<?xml version="1.0" encoding="utf-8" standalone="no"?>
<!DOCTYPE svg PUBLIC "-//W3C//DTD SVG 1.1//EN"
  "http://www.w3.org/Graphics/SVG/1.1/DTD/svg11.dtd">
<svg height="345.6pt" version="1.1" viewBox="0 0 460.8 345.6" width="460.8pt" xmlns="http://www.w3.org/2000/svg" xmlns:xlink="http://www.w3.org/1999/xlink">
 <metadata>
  <rdf:RDF xmlns:cc="http://creativecommons.org/ns#" xmlns:dc="http://purl.org/dc/elements/1.1/" xmlns:rdf="http://www.w3.org/1999/02/22-rdf-syntax-ns#">
   <cc:Work>
    <dc:type rdf:resource="http://purl.org/dc/dcmitype/StillImage"/>
    <dc:date>2021-04-13T08:29:42.770865</dc:date>
    <dc:format>image/svg+xml</dc:format>
    <dc:creator>
     <cc:Agent>
      <dc:title>Matplotlib v3.4.1, https://matplotlib.org/</dc:title>
     </cc:Agent>
    </dc:creator>
   </cc:Work>
  </rdf:RDF>
 </metadata>
 <defs>
  <style type="text/css">*{stroke-linecap:butt;stroke-linejoin:round;}</style>
 </defs>
 <g id="figure_1">
  <g id="patch_1">
   <path d="M 0 345.6 
L 460.8 345.6 
L 460.8 0 
L 0 0 
z
" style="fill:#ffffff;"/>
  </g>
  <g id="axes_1">
   <g id="patch_2">
    <path d="M 33.791667 261.805794 
L 450 261.805794 
L 450 45.608676 
L 33.791667 45.608676 
z
" style="fill:#ffffff;"/>
   </g>
   <g id="matplotlib.axis_1">
    <g id="xtick_1">
     <g id="line2d_1">
      <defs>
       <path d="M 0 0 
L 0 3.5 
" id="m468143b559" style="stroke:#000000;stroke-width:0.8;"/>
      </defs>
      <g>
       <use style="stroke:#000000;stroke-width:0.8;" x="128.38447" xlink:href="#m468143b559" y="261.805794"/>
      </g>
     </g>
     <g id="text_1">
      <!-- $\mathdefault{0}$ -->
      <g transform="translate(120.388636 293.020546)scale(0.35 -0.35)">
       <defs>
        <path d="M 2688 2038 
C 2688 2430 2682 3099 2413 3613 
C 2176 4063 1798 4224 1466 4224 
C 1158 4224 768 4082 525 3620 
C 269 3137 243 2539 243 2038 
C 243 1671 250 1112 448 623 
C 723 -39 1216 -128 1466 -128 
C 1760 -128 2208 -7 2470 604 
C 2662 1048 2688 1568 2688 2038 
z
M 1466 -26 
C 1056 -26 813 328 723 816 
C 653 1196 653 1749 653 2109 
C 653 2604 653 3015 736 3407 
C 858 3954 1216 4121 1466 4121 
C 1728 4121 2067 3947 2189 3420 
C 2272 3054 2278 2623 2278 2109 
C 2278 1691 2278 1176 2202 797 
C 2067 96 1690 -26 1466 -26 
z
" id="CMR17-30" transform="scale(0.015625)"/>
       </defs>
       <use transform="scale(0.996264)" xlink:href="#CMR17-30"/>
      </g>
     </g>
    </g>
    <g id="xtick_2">
     <g id="line2d_2">
      <g>
       <use style="stroke:#000000;stroke-width:0.8;" x="279.732955" xlink:href="#m468143b559" y="261.805794"/>
      </g>
     </g>
     <g id="text_2">
      <!-- $\mathdefault{2}$ -->
      <g transform="translate(271.737121 293.020546)scale(0.35 -0.35)">
       <defs>
        <path d="M 2669 990 
L 2554 990 
C 2490 537 2438 460 2413 422 
C 2381 371 1920 371 1830 371 
L 602 371 
C 832 620 1280 1073 1824 1596 
C 2214 1966 2669 2400 2669 3033 
C 2669 3788 2067 4224 1395 4224 
C 691 4224 262 3603 262 3027 
C 262 2777 448 2745 525 2745 
C 589 2745 781 2783 781 3007 
C 781 3206 614 3264 525 3264 
C 486 3264 448 3257 422 3244 
C 544 3788 915 4057 1306 4057 
C 1862 4057 2227 3616 2227 3033 
C 2227 2477 1901 1998 1536 1583 
L 262 147 
L 262 0 
L 2515 0 
L 2669 990 
z
" id="CMR17-32" transform="scale(0.015625)"/>
       </defs>
       <use transform="scale(0.996264)" xlink:href="#CMR17-32"/>
      </g>
     </g>
    </g>
    <g id="xtick_3">
     <g id="line2d_3">
      <g>
       <use style="stroke:#000000;stroke-width:0.8;" x="431.081439" xlink:href="#m468143b559" y="261.805794"/>
      </g>
     </g>
     <g id="text_3">
      <!-- $\mathdefault{4}$ -->
      <g transform="translate(423.085606 293.020546)scale(0.35 -0.35)">
       <defs>
        <path d="M 2150 4147 
C 2150 4281 2144 4288 2029 4288 
L 128 1254 
L 128 1088 
L 1779 1088 
L 1779 460 
C 1779 230 1766 166 1318 166 
L 1197 166 
L 1197 0 
C 1402 12 1747 12 1965 12 
C 2182 12 2528 12 2733 0 
L 2733 166 
L 2611 166 
C 2163 166 2150 230 2150 460 
L 2150 1088 
L 2803 1088 
L 2803 1254 
L 2150 1254 
L 2150 4147 
z
M 1798 3723 
L 1798 1254 
L 256 1254 
L 1798 3723 
z
" id="CMR17-34" transform="scale(0.015625)"/>
       </defs>
       <use transform="scale(0.996264)" xlink:href="#CMR17-34"/>
      </g>
     </g>
    </g>
    <g id="text_4">
     <!-- $t$ -->
     <g transform="translate(235.73123 328.017649)scale(0.35 -0.35)">
      <defs>
       <path d="M 1286 2566 
L 1875 2566 
C 1997 2566 2061 2566 2061 2681 
C 2061 2752 2022 2752 1894 2752 
L 1331 2752 
L 1568 3664 
C 1594 3752 1594 3764 1594 3808 
C 1594 3910 1510 3968 1427 3968 
C 1376 3968 1229 3948 1178 3746 
L 928 2752 
L 326 2752 
C 198 2752 141 2752 141 2630 
C 141 2566 186 2566 307 2566 
L 877 2566 
L 454 881 
C 403 657 384 593 384 510 
C 384 210 595 -64 954 -64 
C 1600 -64 1946 868 1946 913 
C 1946 951 1920 970 1882 970 
C 1869 970 1843 970 1830 944 
C 1824 938 1818 932 1773 830 
C 1638 510 1344 64 973 64 
C 781 64 768 223 768 364 
C 768 370 768 491 787 568 
L 1286 2566 
z
" id="CMMI12-74" transform="scale(0.015625)"/>
      </defs>
      <use transform="scale(0.996264)" xlink:href="#CMMI12-74"/>
     </g>
    </g>
   </g>
   <g id="matplotlib.axis_2">
    <g id="ytick_1">
     <g id="line2d_4">
      <defs>
       <path d="M 0 0 
L -3.5 0 
" id="m509bff483d" style="stroke:#000000;stroke-width:0.8;"/>
      </defs>
      <g>
       <use style="stroke:#000000;stroke-width:0.8;" x="33.791667" xlink:href="#m509bff483d" y="251.978652"/>
      </g>
     </g>
     <g id="text_5">
      <!-- $\mathdefault{0}$ -->
      <g transform="translate(10.8 264.086028)scale(0.35 -0.35)">
       <use transform="scale(0.996264)" xlink:href="#CMR17-30"/>
      </g>
     </g>
    </g>
    <g id="ytick_2">
     <g id="line2d_5">
      <g>
       <use style="stroke:#000000;stroke-width:0.8;" x="33.791667" xlink:href="#m509bff483d" y="153.312967"/>
      </g>
     </g>
     <g id="text_6">
      <!-- $\mathdefault{2}$ -->
      <g transform="translate(10.8 165.420343)scale(0.35 -0.35)">
       <use transform="scale(0.996264)" xlink:href="#CMR17-32"/>
      </g>
     </g>
    </g>
    <g id="ytick_3">
     <g id="line2d_6">
      <g>
       <use style="stroke:#000000;stroke-width:0.8;" x="33.791667" xlink:href="#m509bff483d" y="54.647282"/>
      </g>
     </g>
     <g id="text_7">
      <!-- $\mathdefault{4}$ -->
      <g transform="translate(10.8 66.754658)scale(0.35 -0.35)">
       <use transform="scale(0.996264)" xlink:href="#CMR17-34"/>
      </g>
     </g>
    </g>
   </g>
   <g id="line2d_7">
    <path clip-path="url(#p9ce60b9204)" d="M 52.710228 251.978652 
L 128.08147 251.978652 
L 128.46022 202.695167 
L 134.141469 206.259652 
L 139.822719 209.566332 
L 145.882718 212.830281 
L 151.942718 215.843045 
L 158.381467 218.790477 
L 164.820216 221.497499 
L 171.637716 224.123485 
L 178.833965 226.650326 
L 186.408964 229.062929 
L 193.983963 231.245724 
L 201.937713 233.31425 
L 210.648962 235.343751 
L 219.738961 237.226591 
L 229.20771 238.961632 
L 239.433959 240.607012 
L 250.417708 242.143357 
L 262.158956 243.556863 
L 275.036455 244.874694 
L 289.050204 246.075615 
L 304.200202 247.146622 
L 321.24395 248.121066 
L 340.181449 248.975113 
L 361.770196 249.720592 
L 386.767694 250.355815 
L 416.688941 250.885812 
L 431.081439 251.075089 
L 431.081439 251.075089 
" style="fill:none;stroke:#000000;stroke-dasharray:1.5,2.475;stroke-dashoffset:0;stroke-width:1.5;"/>
   </g>
   <g id="line2d_8">
    <path clip-path="url(#p9ce60b9204)" d="M 52.710228 251.978652 
L 128.08147 251.978652 
L 128.46022 153.510298 
L 131.49022 161.088184 
L 134.520219 168.082894 
L 137.550219 174.539308 
L 140.580219 180.498852 
L 143.610218 185.999764 
L 146.640218 191.077339 
L 149.670218 195.764156 
L 153.078967 200.6071 
L 156.487717 205.032818 
L 159.896467 209.077255 
L 163.305216 212.77326 
L 166.713966 216.150849 
L 170.122716 219.237456 
L 173.910215 222.356158 
L 177.697715 225.177794 
L 181.485215 227.73066 
L 185.651464 230.258865 
L 189.817714 232.523467 
L 194.362713 234.725524 
L 198.907713 236.678338 
L 203.831462 238.545264 
L 209.133962 240.301862 
L 214.436461 241.828761 
L 220.117711 243.243872 
L 226.55646 244.610679 
L 233.373959 245.825513 
L 240.948959 246.941896 
L 249.281458 247.937451 
L 258.750207 248.832149 
L 269.355206 249.601242 
L 281.475205 250.252851 
L 295.867703 250.798892 
L 313.668951 251.241646 
L 336.772699 251.578444 
L 368.966446 251.807743 
L 422.37019 251.936984 
L 431.081439 251.945553 
L 431.081439 251.945553 
" style="fill:none;stroke:#000000;stroke-dasharray:5.55,2.4;stroke-dashoffset:0;stroke-width:1.5;"/>
   </g>
   <g id="line2d_9">
    <path clip-path="url(#p9ce60b9204)" d="M 52.710228 251.978652 
L 128.08147 251.978652 
L 128.46022 55.435818 
L 130.73272 77.681734 
L 133.005219 97.409721 
L 135.277719 114.904775 
L 137.550219 130.419631 
L 139.822719 144.178422 
L 142.095219 156.379909 
L 144.367718 167.200357 
L 146.640218 176.796081 
L 148.912718 185.305703 
L 151.185218 192.852154 
L 153.457717 199.544451 
L 155.730217 205.479273 
L 158.002717 210.742356 
L 160.275217 215.409732 
L 162.547717 219.548825 
L 164.820216 223.21943 
L 167.092716 226.474574 
L 169.365216 229.361281 
L 171.637716 231.921253 
L 174.288965 234.544031 
L 176.940215 236.823844 
L 179.591465 238.805541 
L 182.242715 240.528104 
L 185.272714 242.222702 
L 188.302714 243.666511 
L 191.711464 245.037019 
L 195.498963 246.296461 
L 199.665213 247.419591 
L 204.210212 248.393229 
L 209.133962 249.214826 
L 214.815211 249.931774 
L 221.632711 250.551108 
L 229.58646 251.041083 
L 239.812709 251.432581 
L 253.447707 251.713042 
L 273.900205 251.88855 
L 314.047701 251.96786 
L 431.081439 251.97863 
L 431.081439 251.97863 
" style="fill:none;stroke:#000000;stroke-linecap:square;stroke-width:1.5;"/>
   </g>
   <g id="patch_3">
    <path d="M 33.791667 261.805794 
L 33.791667 45.608676 
" style="fill:none;stroke:#000000;stroke-linecap:square;stroke-linejoin:miter;stroke-width:0.8;"/>
   </g>
   <g id="patch_4">
    <path d="M 450 261.805794 
L 450 45.608676 
" style="fill:none;stroke:#000000;stroke-linecap:square;stroke-linejoin:miter;stroke-width:0.8;"/>
   </g>
   <g id="patch_5">
    <path d="M 33.791667 261.805794 
L 450 261.805794 
" style="fill:none;stroke:#000000;stroke-linecap:square;stroke-linejoin:miter;stroke-width:0.8;"/>
   </g>
   <g id="patch_6">
    <path d="M 33.791667 45.608676 
L 450 45.608676 
" style="fill:none;stroke:#000000;stroke-linecap:square;stroke-linejoin:miter;stroke-width:0.8;"/>
   </g>
   <g id="text_8">
    <!-- $\delta_{\epsilon}(t)$ -->
    <g transform="translate(210.747837 36.920539)scale(0.35 -0.35)">
     <defs>
      <path d="M 1664 2795 
C 845 2597 256 1748 256 1001 
C 256 319 717 -64 1229 -64 
C 1984 -64 2496 970 2496 1818 
C 2496 2393 2227 2743 2067 2954 
C 1830 3254 1446 3745 1446 4052 
C 1446 4160 1530 4352 1811 4352 
C 2010 4352 2131 4281 2323 4173 
C 2381 4134 2528 4052 2611 4052 
C 2746 4052 2842 4186 2842 4288 
C 2842 4409 2746 4428 2522 4480 
C 2221 4544 2131 4544 2022 4544 
C 1914 4544 1286 4544 1286 3892 
C 1286 3579 1446 3216 1664 2795 
z
M 1734 2673 
C 1978 2169 2074 1978 2074 1563 
C 2074 1065 1805 64 1235 64 
C 986 64 627 229 627 823 
C 627 1238 864 2444 1734 2673 
z
" id="CMMI12-e" transform="scale(0.015625)"/>
      <path d="M 1862 1472 
C 1958 1472 2067 1472 2067 1574 
C 2067 1657 2003 1657 1888 1657 
L 851 1657 
C 1011 2224 1389 2566 1958 2566 
L 2144 2566 
C 2253 2566 2349 2566 2349 2668 
C 2349 2752 2278 2752 2163 2752 
L 1946 2752 
C 1158 2752 294 2136 294 1141 
C 294 420 774 -64 1408 -64 
C 1818 -64 2221 193 2221 258 
C 2221 297 2202 336 2163 336 
C 2144 336 2131 330 2099 304 
C 1856 141 1619 64 1427 64 
C 1088 64 730 291 730 920 
C 730 1043 742 1212 800 1472 
L 1862 1472 
z
" id="CMMI12-f" transform="scale(0.015625)"/>
      <path d="M 1958 -1562 
C 1958 -1556 1958 -1543 1939 -1524 
C 1645 -1223 858 -403 858 1596 
C 858 3595 1632 4408 1946 4729 
C 1946 4735 1958 4748 1958 4767 
C 1958 4787 1939 4800 1914 4800 
C 1843 4800 1299 4325 986 3620 
C 666 2909 576 2218 576 1603 
C 576 1141 621 360 1005 -467 
C 1312 -1133 1837 -1600 1914 -1600 
C 1946 -1600 1958 -1588 1958 -1562 
z
" id="CMR17-28" transform="scale(0.015625)"/>
      <path d="M 1683 1596 
C 1683 2057 1638 2839 1254 3665 
C 947 4332 422 4800 346 4800 
C 326 4800 301 4793 301 4761 
C 301 4748 307 4742 314 4729 
C 621 4408 1402 3595 1402 1603 
C 1402 -396 627 -1210 314 -1530 
C 307 -1543 301 -1549 301 -1562 
C 301 -1594 326 -1600 346 -1600 
C 416 -1600 960 -1127 1274 -422 
C 1594 289 1683 981 1683 1596 
z
" id="CMR17-29" transform="scale(0.015625)"/>
     </defs>
     <use transform="scale(0.996264)" xlink:href="#CMMI12-e"/>
     <use transform="translate(43.205457 -14.943915)scale(0.697382)" xlink:href="#CMMI12-f"/>
     <use transform="translate(71.275731 0)scale(0.996264)" xlink:href="#CMR17-28"/>
     <use transform="translate(106.556498 0)scale(0.996264)" xlink:href="#CMMI12-74"/>
     <use transform="translate(141.782829 0)scale(0.996264)" xlink:href="#CMR17-29"/>
    </g>
   </g>
   <g id="legend_1">
    <g id="patch_7">
     <path d="M 197.782908 219.95573 
L 425.5 219.95573 
Q 432.5 219.95573 432.5 212.95573 
L 432.5 70.108676 
Q 432.5 63.108676 425.5 63.108676 
L 197.782908 63.108676 
Q 190.782908 63.108676 190.782908 70.108676 
L 190.782908 212.95573 
Q 190.782908 219.95573 197.782908 219.95573 
z
" style="fill:#ffffff;opacity:0.8;stroke:#cccccc;stroke-linejoin:miter;"/>
    </g>
    <g id="line2d_10">
     <path d="M 204.782908 89.358676 
L 274.782908 89.358676 
" style="fill:none;stroke:#000000;stroke-dasharray:1.5,2.475;stroke-dashoffset:0;stroke-width:1.5;"/>
    </g>
    <g id="line2d_11"/>
    <g id="text_9">
     <!-- $\epsilon=1.0$ -->
     <g transform="translate(302.782908 101.608676)scale(0.35 -0.35)">
      <defs>
       <path d="M 4115 2048 
C 4211 2048 4307 2048 4307 2156 
C 4307 2272 4198 2272 4090 2272 
L 512 2272 
C 403 2272 294 2272 294 2156 
C 294 2048 390 2048 486 2048 
L 4115 2048 
z
M 4090 927 
C 4198 927 4307 927 4307 1043 
C 4307 1152 4211 1152 4115 1152 
L 486 1152 
C 390 1152 294 1152 294 1043 
C 294 927 403 927 512 927 
L 4090 927 
z
" id="CMR17-3d" transform="scale(0.015625)"/>
       <path d="M 1702 4083 
C 1702 4217 1696 4224 1606 4224 
C 1357 3927 979 3833 621 3820 
C 602 3820 570 3820 563 3808 
C 557 3795 557 3782 557 3648 
C 755 3648 1088 3686 1344 3839 
L 1344 467 
C 1344 243 1331 166 781 166 
L 589 166 
L 589 0 
C 896 6 1216 12 1523 12 
C 1830 12 2150 6 2458 0 
L 2458 166 
L 2266 166 
C 1715 166 1702 236 1702 467 
L 1702 4083 
z
" id="CMR17-31" transform="scale(0.015625)"/>
       <path d="M 1178 307 
C 1178 492 1024 620 870 620 
C 685 620 557 467 557 313 
C 557 128 710 0 864 0 
C 1050 0 1178 153 1178 307 
z
" id="CMMI12-3a" transform="scale(0.015625)"/>
      </defs>
      <use transform="scale(0.996264)" xlink:href="#CMMI12-f"/>
      <use transform="translate(67.062967 0)scale(0.996264)" xlink:href="#CMR17-3d"/>
      <use transform="translate(166.451764 0)scale(0.996264)" xlink:href="#CMR17-31"/>
      <use transform="translate(212.142241 0)scale(0.996264)" xlink:href="#CMMI12-3a"/>
      <use transform="translate(239.239418 0)scale(0.996264)" xlink:href="#CMR17-30"/>
     </g>
    </g>
    <g id="line2d_12">
     <path d="M 204.782908 138.141028 
L 274.782908 138.141028 
" style="fill:none;stroke:#000000;stroke-dasharray:5.55,2.4;stroke-dashoffset:0;stroke-width:1.5;"/>
    </g>
    <g id="line2d_13"/>
    <g id="text_10">
     <!-- $\epsilon=0.5$ -->
     <g transform="translate(302.782908 150.391028)scale(0.35 -0.35)">
      <defs>
       <path d="M 730 3750 
C 794 3724 1056 3641 1325 3641 
C 1920 3641 2246 3961 2432 4140 
C 2432 4191 2432 4224 2394 4224 
C 2387 4224 2374 4224 2323 4198 
C 2099 4102 1837 4032 1517 4032 
C 1325 4032 1037 4055 723 4191 
C 653 4224 640 4224 634 4224 
C 602 4224 595 4217 595 4090 
L 595 2231 
C 595 2113 595 2080 659 2080 
C 691 2080 704 2093 736 2139 
C 941 2435 1222 2560 1542 2560 
C 1766 2560 2246 2415 2246 1293 
C 2246 1087 2246 716 2054 422 
C 1894 159 1645 25 1370 25 
C 947 25 518 319 403 812 
C 429 806 480 793 506 793 
C 589 793 749 838 749 1036 
C 749 1209 627 1280 506 1280 
C 358 1280 262 1190 262 1011 
C 262 454 704 -128 1382 -128 
C 2042 -128 2669 441 2669 1267 
C 2669 2054 2170 2662 1549 2662 
C 1222 2662 947 2540 730 2304 
L 730 3750 
z
" id="CMR17-35" transform="scale(0.015625)"/>
      </defs>
      <use transform="scale(0.996264)" xlink:href="#CMMI12-f"/>
      <use transform="translate(67.062967 0)scale(0.996264)" xlink:href="#CMR17-3d"/>
      <use transform="translate(166.451764 0)scale(0.996264)" xlink:href="#CMR17-30"/>
      <use transform="translate(212.142241 0)scale(0.996264)" xlink:href="#CMMI12-3a"/>
      <use transform="translate(239.239418 0)scale(0.996264)" xlink:href="#CMR17-35"/>
     </g>
    </g>
    <g id="line2d_14">
     <path d="M 204.782908 186.923379 
L 274.782908 186.923379 
" style="fill:none;stroke:#000000;stroke-linecap:square;stroke-width:1.5;"/>
    </g>
    <g id="line2d_15"/>
    <g id="text_11">
     <!-- $\epsilon=0.25$ -->
     <g transform="translate(302.782908 199.173379)scale(0.35 -0.35)">
      <use transform="scale(0.996264)" xlink:href="#CMMI12-f"/>
      <use transform="translate(67.062967 0)scale(0.996264)" xlink:href="#CMR17-3d"/>
      <use transform="translate(166.451764 0)scale(0.996264)" xlink:href="#CMR17-30"/>
      <use transform="translate(212.142241 0)scale(0.996264)" xlink:href="#CMMI12-3a"/>
      <use transform="translate(239.239418 0)scale(0.996264)" xlink:href="#CMR17-32"/>
      <use transform="translate(284.929895 0)scale(0.996264)" xlink:href="#CMR17-35"/>
     </g>
    </g>
   </g>
  </g>
 </g>
 <defs>
  <clipPath id="p9ce60b9204">
   <rect height="216.197117" width="416.208333" x="33.791667" y="45.608676"/>
  </clipPath>
 </defs>
</svg>
