<?xml version="1.0" encoding="utf-8" standalone="no"?>
<!DOCTYPE svg PUBLIC "-//W3C//DTD SVG 1.1//EN"
  "http://www.w3.org/Graphics/SVG/1.1/DTD/svg11.dtd">
<svg height="345.6pt" version="1.1" viewBox="0 0 460.8 345.6" width="460.8pt" xmlns="http://www.w3.org/2000/svg" xmlns:xlink="http://www.w3.org/1999/xlink">
 <metadata>
  <rdf:RDF xmlns:cc="http://creativecommons.org/ns#" xmlns:dc="http://purl.org/dc/elements/1.1/" xmlns:rdf="http://www.w3.org/1999/02/22-rdf-syntax-ns#">
   <cc:Work>
    <dc:type rdf:resource="http://purl.org/dc/dcmitype/StillImage"/>
    <dc:date>2021-04-13T08:29:53.900491</dc:date>
    <dc:format>image/svg+xml</dc:format>
    <dc:creator>
     <cc:Agent>
      <dc:title>Matplotlib v3.4.1, https://matplotlib.org/</dc:title>
     </cc:Agent>
    </dc:creator>
   </cc:Work>
  </rdf:RDF>
 </metadata>
 <defs>
  <style type="text/css">*{stroke-linecap:butt;stroke-linejoin:round;}</style>
 </defs>
 <g id="figure_1">
  <g id="patch_1">
   <path d="M 0 345.6 
L 460.8 345.6 
L 460.8 0 
L 0 0 
z
" style="fill:#ffffff;"/>
  </g>
  <g id="axes_1">
   <g id="patch_2">
    <path d="M 60.91227 261.805794 
L 450 261.805794 
L 450 10.8 
L 60.91227 10.8 
z
" style="fill:#ffffff;"/>
   </g>
   <g id="matplotlib.axis_1">
    <g id="xtick_1">
     <g id="line2d_1">
      <defs>
       <path d="M 0 0 
L 0 3.5 
" id="m355cdecf13" style="stroke:#000000;stroke-width:0.8;"/>
      </defs>
      <g>
       <use style="stroke:#000000;stroke-width:0.8;" x="78.598076" xlink:href="#m355cdecf13" y="261.805794"/>
      </g>
     </g>
     <g id="text_1">
      <!-- $\mathdefault{0}$ -->
      <g transform="translate(70.602242 293.020546)scale(0.35 -0.35)">
       <defs>
        <path d="M 2688 2038 
C 2688 2430 2682 3099 2413 3613 
C 2176 4063 1798 4224 1466 4224 
C 1158 4224 768 4082 525 3620 
C 269 3137 243 2539 243 2038 
C 243 1671 250 1112 448 623 
C 723 -39 1216 -128 1466 -128 
C 1760 -128 2208 -7 2470 604 
C 2662 1048 2688 1568 2688 2038 
z
M 1466 -26 
C 1056 -26 813 328 723 816 
C 653 1196 653 1749 653 2109 
C 653 2604 653 3015 736 3407 
C 858 3954 1216 4121 1466 4121 
C 1728 4121 2067 3947 2189 3420 
C 2272 3054 2278 2623 2278 2109 
C 2278 1691 2278 1176 2202 797 
C 2067 96 1690 -26 1466 -26 
z
" id="CMR17-30" transform="scale(0.015625)"/>
       </defs>
       <use transform="scale(0.996264)" xlink:href="#CMR17-30"/>
      </g>
     </g>
    </g>
    <g id="xtick_2">
     <g id="line2d_2">
      <g>
       <use style="stroke:#000000;stroke-width:0.8;" x="255.456135" xlink:href="#m355cdecf13" y="261.805794"/>
      </g>
     </g>
     <g id="text_2">
      <!-- $\mathdefault{5}$ -->
      <g transform="translate(247.460302 293.020546)scale(0.35 -0.35)">
       <defs>
        <path d="M 730 3750 
C 794 3724 1056 3641 1325 3641 
C 1920 3641 2246 3961 2432 4140 
C 2432 4191 2432 4224 2394 4224 
C 2387 4224 2374 4224 2323 4198 
C 2099 4102 1837 4032 1517 4032 
C 1325 4032 1037 4055 723 4191 
C 653 4224 640 4224 634 4224 
C 602 4224 595 4217 595 4090 
L 595 2231 
C 595 2113 595 2080 659 2080 
C 691 2080 704 2093 736 2139 
C 941 2435 1222 2560 1542 2560 
C 1766 2560 2246 2415 2246 1293 
C 2246 1087 2246 716 2054 422 
C 1894 159 1645 25 1370 25 
C 947 25 518 319 403 812 
C 429 806 480 793 506 793 
C 589 793 749 838 749 1036 
C 749 1209 627 1280 506 1280 
C 358 1280 262 1190 262 1011 
C 262 454 704 -128 1382 -128 
C 2042 -128 2669 441 2669 1267 
C 2669 2054 2170 2662 1549 2662 
C 1222 2662 947 2540 730 2304 
L 730 3750 
z
" id="CMR17-35" transform="scale(0.015625)"/>
       </defs>
       <use transform="scale(0.996264)" xlink:href="#CMR17-35"/>
      </g>
     </g>
    </g>
    <g id="xtick_3">
     <g id="line2d_3">
      <g>
       <use style="stroke:#000000;stroke-width:0.8;" x="432.314194" xlink:href="#m355cdecf13" y="261.805794"/>
      </g>
     </g>
     <g id="text_3">
      <!-- $\mathdefault{10}$ -->
      <g transform="translate(416.322527 293.020546)scale(0.35 -0.35)">
       <defs>
        <path d="M 1702 4083 
C 1702 4217 1696 4224 1606 4224 
C 1357 3927 979 3833 621 3820 
C 602 3820 570 3820 563 3808 
C 557 3795 557 3782 557 3648 
C 755 3648 1088 3686 1344 3839 
L 1344 467 
C 1344 243 1331 166 781 166 
L 589 166 
L 589 0 
C 896 6 1216 12 1523 12 
C 1830 12 2150 6 2458 0 
L 2458 166 
L 2266 166 
C 1715 166 1702 236 1702 467 
L 1702 4083 
z
" id="CMR17-31" transform="scale(0.015625)"/>
       </defs>
       <use transform="scale(0.996264)" xlink:href="#CMR17-31"/>
       <use transform="translate(45.690477 0)scale(0.996264)" xlink:href="#CMR17-30"/>
      </g>
     </g>
    </g>
    <g id="text_4">
     <!-- $t$ -->
     <g transform="translate(249.291531 328.017649)scale(0.35 -0.35)">
      <defs>
       <path d="M 1286 2566 
L 1875 2566 
C 1997 2566 2061 2566 2061 2681 
C 2061 2752 2022 2752 1894 2752 
L 1331 2752 
L 1568 3664 
C 1594 3752 1594 3764 1594 3808 
C 1594 3910 1510 3968 1427 3968 
C 1376 3968 1229 3948 1178 3746 
L 928 2752 
L 326 2752 
C 198 2752 141 2752 141 2630 
C 141 2566 186 2566 307 2566 
L 877 2566 
L 454 881 
C 403 657 384 593 384 510 
C 384 210 595 -64 954 -64 
C 1600 -64 1946 868 1946 913 
C 1946 951 1920 970 1882 970 
C 1869 970 1843 970 1830 944 
C 1824 938 1818 932 1773 830 
C 1638 510 1344 64 973 64 
C 781 64 768 223 768 364 
C 768 370 768 491 787 568 
L 1286 2566 
z
" id="CMMI12-74" transform="scale(0.015625)"/>
      </defs>
      <use transform="scale(0.996264)" xlink:href="#CMMI12-74"/>
     </g>
    </g>
   </g>
   <g id="matplotlib.axis_2">
    <g id="ytick_1">
     <g id="line2d_4">
      <defs>
       <path d="M 0 0 
L -3.5 0 
" id="m919feb405d" style="stroke:#000000;stroke-width:0.8;"/>
      </defs>
      <g>
       <use style="stroke:#000000;stroke-width:0.8;" x="60.91227" xlink:href="#m919feb405d" y="189.734409"/>
      </g>
     </g>
     <g id="text_5">
      <!-- $\mathdefault{−5}$ -->
      <g transform="translate(10.8 201.841785)scale(0.35 -0.35)">
       <defs>
        <path d="M 4218 1472 
C 4326 1472 4442 1472 4442 1600 
C 4442 1728 4326 1728 4218 1728 
L 755 1728 
C 646 1728 531 1728 531 1600 
C 531 1472 646 1472 755 1472 
L 4218 1472 
z
" id="CMSY10-0" transform="scale(0.015625)"/>
       </defs>
       <use transform="scale(0.996264)" xlink:href="#CMSY10-0"/>
       <use transform="translate(77.487468 0)scale(0.996264)" xlink:href="#CMR17-35"/>
      </g>
     </g>
    </g>
    <g id="ytick_2">
     <g id="line2d_5">
      <g>
       <use style="stroke:#000000;stroke-width:0.8;" x="60.91227" xlink:href="#m919feb405d" y="52.031615"/>
      </g>
     </g>
     <g id="text_6">
      <!-- $\mathdefault{0}$ -->
      <g transform="translate(37.920603 64.138991)scale(0.35 -0.35)">
       <use transform="scale(0.996264)" xlink:href="#CMR17-30"/>
      </g>
     </g>
    </g>
   </g>
   <g id="line2d_6">
    <path clip-path="url(#pc9cb2ecc89)" d="M 78.598076 24.491056 
L 80.560659 23.24884 
L 84.097821 22.209354 
L 87.634982 22.289145 
L 91.172143 23.114117 
L 94.709304 24.415181 
L 98.246465 26.000338 
L 101.783627 27.73403 
L 105.320788 29.521906 
L 108.857949 31.299567 
L 112.39511 33.024286 
L 115.932271 34.668909 
L 119.469432 36.217387 
L 123.006594 37.661499 
L 126.543755 38.998467 
L 130.080916 40.229212 
L 133.618077 41.357109 
L 137.155238 42.387078 
L 140.6924 43.324944 
L 144.229561 44.176986 
L 147.766722 44.949624 
L 151.303883 45.649202 
L 154.841044 46.281854 
L 158.378205 46.853408 
L 161.915367 47.369344 
L 165.452528 47.834761 
L 168.989689 48.254375 
L 172.52685 48.632522 
L 176.064011 48.973174 
L 179.601173 49.279954 
L 183.138334 49.556162 
L 186.675495 49.804792 
L 190.212656 50.02856 
L 193.749817 50.229924 
L 197.286978 50.411105 
L 200.82414 50.574111 
L 204.361301 50.720754 
L 207.898462 50.852667 
L 211.435623 50.971324 
L 214.972784 51.078052 
L 218.509946 51.174048 
L 222.047107 51.260386 
L 225.584268 51.338038 
L 229.121429 51.407876 
L 232.65859 51.470685 
L 236.195751 51.527171 
L 239.732913 51.57797 
L 243.270074 51.623656 
L 246.807235 51.664741 
L 250.344396 51.701689 
L 253.881557 51.734917 
L 257.418719 51.764799 
L 260.95588 51.791671 
L 264.493041 51.815837 
L 268.030202 51.83757 
L 271.567363 51.857113 
L 275.104524 51.874689 
L 278.641686 51.890494 
L 282.178847 51.904708 
L 285.716008 51.91749 
L 289.253169 51.928984 
L 292.79033 51.939321 
L 296.327491 51.948617 
L 299.864653 51.956976 
L 303.401814 51.964494 
L 306.938975 51.971254 
L 310.476136 51.977334 
L 314.013297 51.982801 
L 317.550459 51.987718 
L 321.08762 51.992139 
L 324.624781 51.996115 
L 328.161942 51.99969 
L 331.699103 52.002906 
L 335.236264 52.005797 
L 338.773426 52.008398 
L 342.310587 52.010736 
L 345.847748 52.012839 
L 349.384909 52.01473 
L 352.92207 52.016431 
L 356.459232 52.01796 
L 359.996393 52.019335 
L 363.533554 52.020572 
L 367.070715 52.021684 
L 370.607876 52.022685 
L 374.145037 52.023584 
L 377.682199 52.024393 
L 381.21936 52.02512 
L 384.756521 52.025775 
L 388.293682 52.026363 
L 391.830843 52.026892 
L 395.368005 52.027367 
L 398.905166 52.027795 
L 402.442327 52.02818 
L 405.979488 52.028526 
L 409.516649 52.028837 
L 413.05381 52.029117 
L 416.590972 52.029368 
L 420.128133 52.029595 
L 423.665294 52.029798 
L 427.202455 52.029981 
L 430.739616 52.030146 
L 432.314194 52.030214 
" style="fill:none;stroke:#000000;stroke-linecap:square;stroke-width:1.5;"/>
   </g>
   <g id="line2d_7">
    <path clip-path="url(#pc9cb2ecc89)" d="M 78.598076 24.491056 
L 80.560659 34.459336 
L 84.097821 47.961024 
L 87.634982 57.080636 
L 91.172143 63.038067 
L 94.709304 66.729793 
L 98.246465 68.813101 
L 101.783627 69.768545 
L 105.320788 69.946214 
L 108.857949 69.600014 
L 112.39511 68.913053 
L 115.932271 68.016416 
L 119.469432 67.003059 
L 123.006594 65.938071 
L 126.543755 64.866245 
L 130.080916 63.817664 
L 133.618077 62.811808 
L 137.155238 61.860574 
L 140.6924 60.970488 
L 144.229561 60.14432 
L 147.766722 59.38226 
L 151.303883 58.682773 
L 154.841044 58.04321 
L 158.378205 57.460247 
L 161.915367 56.930198 
L 165.452528 56.449227 
L 168.989689 56.013501 
L 172.52685 55.619288 
L 176.064011 55.263017 
L 179.601173 54.94132 
L 183.138334 54.651054 
L 186.675495 54.389302 
L 190.212656 54.153379 
L 193.749817 53.94082 
L 197.286978 53.749375 
L 200.82414 53.576993 
L 204.361301 53.421811 
L 207.898462 53.282138 
L 211.435623 53.156444 
L 214.972784 53.043343 
L 218.509946 52.941584 
L 222.047107 52.850037 
L 225.584268 52.767684 
L 229.121429 52.693605 
L 232.65859 52.626973 
L 236.195751 52.56704 
L 239.732913 52.513136 
L 243.270074 52.464655 
L 246.807235 52.421052 
L 250.344396 52.381838 
L 253.881557 52.34657 
L 257.418719 52.314853 
L 260.95588 52.286329 
L 264.493041 52.260678 
L 268.030202 52.237609 
L 271.567363 52.216862 
L 275.104524 52.198205 
L 278.641686 52.181427 
L 282.178847 52.166339 
L 285.716008 52.15277 
L 289.253169 52.140568 
L 292.79033 52.129594 
L 296.327491 52.119726 
L 299.864653 52.110851 
L 303.401814 52.102871 
L 306.938975 52.095694 
L 310.476136 52.08924 
L 314.013297 52.083436 
L 317.550459 52.078217 
L 321.08762 52.073523 
L 324.624781 52.069302 
L 328.161942 52.065506 
L 331.699103 52.062093 
L 335.236264 52.059023 
L 338.773426 52.056262 
L 342.310587 52.05378 
L 345.847748 52.051547 
L 349.384909 52.04954 
L 352.92207 52.047734 
L 356.459232 52.046111 
L 359.996393 52.044651 
L 363.533554 52.043338 
L 367.070715 52.042157 
L 370.607876 52.041095 
L 374.145037 52.04014 
L 377.682199 52.039282 
L 381.21936 52.03851 
L 384.756521 52.037815 
L 388.293682 52.037191 
L 391.830843 52.036629 
L 395.368005 52.036124 
L 398.905166 52.03567 
L 402.442327 52.035261 
L 405.979488 52.034894 
L 409.516649 52.034564 
L 413.05381 52.034267 
L 416.590972 52.034 
L 420.128133 52.03376 
L 423.665294 52.033544 
L 427.202455 52.033349 
L 430.739616 52.033175 
L 432.314194 52.033103 
" style="fill:none;stroke:#000000;stroke-dasharray:5.55,2.4;stroke-dashoffset:0;stroke-width:1.5;"/>
   </g>
   <g id="line2d_8">
    <path clip-path="url(#pc9cb2ecc89)" d="M 78.598076 250.396439 
L 80.560659 214.049174 
L 84.097821 162.78456 
L 87.634982 125.685673 
L 91.172143 99.006679 
L 94.709304 79.976431 
L 98.246465 66.546399 
L 101.783627 57.20364 
L 105.320788 50.832033 
L 108.857949 46.609346 
L 112.39511 43.930884 
L 115.932271 42.352871 
L 119.469432 41.550484 
L 123.006594 41.28674 
L 126.543755 41.389446 
L 130.080916 41.734139 
L 133.618077 42.231442 
L 137.155238 42.817727 
L 140.6924 43.448208 
L 144.229561 44.091836 
L 147.766722 44.727541 
L 151.303883 45.341463 
L 154.841044 45.924913 
L 158.378205 46.472881 
L 161.915367 46.982943 
L 165.452528 47.454464 
L 168.989689 47.88802 
L 172.52685 48.284981 
L 176.064011 48.647211 
L 179.601173 48.976855 
L 183.138334 49.276191 
L 186.675495 49.547526 
L 190.212656 49.793127 
L 193.749817 50.015176 
L 197.286978 50.215739 
L 200.82414 50.396753 
L 204.361301 50.560021 
L 207.898462 50.707203 
L 211.435623 50.839829 
L 214.972784 50.959294 
L 218.509946 51.066874 
L 222.047107 51.163728 
L 225.584268 51.250908 
L 229.121429 51.329368 
L 232.65859 51.399969 
L 236.195751 51.463493 
L 239.732913 51.520643 
L 243.270074 51.572056 
L 246.807235 51.618304 
L 250.344396 51.659903 
L 253.881557 51.697321 
L 257.418719 51.730975 
L 260.95588 51.761243 
L 264.493041 51.788466 
L 268.030202 51.81295 
L 271.567363 51.834969 
L 275.104524 51.854772 
L 278.641686 51.872581 
L 282.178847 51.888597 
L 285.716008 51.903 
L 289.253169 51.915953 
L 292.79033 51.927602 
L 296.327491 51.938077 
L 299.864653 51.947498 
L 303.401814 51.95597 
L 306.938975 51.963589 
L 310.476136 51.97044 
L 314.013297 51.976601 
L 317.550459 51.982142 
L 321.08762 51.987125 
L 324.624781 51.991606 
L 328.161942 51.995636 
L 331.699103 51.99926 
L 335.236264 52.002518 
L 338.773426 52.005449 
L 342.310587 52.008084 
L 345.847748 52.010454 
L 349.384909 52.012586 
L 352.92207 52.014502 
L 356.459232 52.016226 
L 359.996393 52.017776 
L 363.533554 52.01917 
L 367.070715 52.020423 
L 370.607876 52.02155 
L 374.145037 52.022564 
L 377.682199 52.023476 
L 381.21936 52.024295 
L 384.756521 52.025033 
L 388.293682 52.025696 
L 391.830843 52.026292 
L 395.368005 52.026828 
L 398.905166 52.02731 
L 402.442327 52.027744 
L 405.979488 52.028134 
L 409.516649 52.028484 
L 413.05381 52.0288 
L 416.590972 52.029083 
L 420.128133 52.029338 
L 423.665294 52.029567 
L 427.202455 52.029774 
L 430.739616 52.029959 
L 432.314194 52.030036 
" style="fill:none;stroke:#000000;stroke-dasharray:1.5,2.475;stroke-dashoffset:0;stroke-width:1.5;"/>
   </g>
   <g id="patch_3">
    <path d="M 60.91227 261.805794 
L 60.91227 10.8 
" style="fill:none;stroke:#000000;stroke-linecap:square;stroke-linejoin:miter;stroke-width:0.8;"/>
   </g>
   <g id="patch_4">
    <path d="M 450 261.805794 
L 450 10.8 
" style="fill:none;stroke:#000000;stroke-linecap:square;stroke-linejoin:miter;stroke-width:0.8;"/>
   </g>
   <g id="patch_5">
    <path d="M 60.91227 261.805794 
L 450 261.805794 
" style="fill:none;stroke:#000000;stroke-linecap:square;stroke-linejoin:miter;stroke-width:0.8;"/>
   </g>
   <g id="patch_6">
    <path d="M 60.91227 10.8 
L 450 10.8 
" style="fill:none;stroke:#000000;stroke-linecap:square;stroke-linejoin:miter;stroke-width:0.8;"/>
   </g>
   <g id="legend_1">
    <g id="patch_7">
     <path d="M 282.903981 244.305794 
L 425.5 244.305794 
Q 432.5 244.305794 432.5 237.305794 
L 432.5 94.45874 
Q 432.5 87.45874 425.5 87.45874 
L 282.903981 87.45874 
Q 275.903981 87.45874 275.903981 94.45874 
L 275.903981 237.305794 
Q 275.903981 244.305794 282.903981 244.305794 
z
" style="fill:#ffffff;opacity:0.8;stroke:#cccccc;stroke-linejoin:miter;"/>
    </g>
    <g id="line2d_9">
     <path d="M 289.903981 113.70874 
L 359.903981 113.70874 
" style="fill:none;stroke:#000000;stroke-linecap:square;stroke-width:1.5;"/>
    </g>
    <g id="line2d_10"/>
    <g id="text_7">
     <!-- $x_1$ -->
     <g transform="translate(387.903981 125.95874)scale(0.35 -0.35)">
      <defs>
       <path d="M 3034 2624 
C 2829 2585 2752 2431 2752 2310 
C 2752 2156 2874 2105 2963 2105 
C 3155 2105 3290 2271 3290 2444 
C 3290 2694 2982 2816 2714 2816 
C 2323 2816 2106 2451 2048 2329 
C 1901 2790 1504 2816 1389 2816 
C 736 2816 390 1993 390 1849 
C 390 1823 416 1790 461 1790 
C 512 1790 525 1829 538 1855 
C 755 2572 1184 2687 1370 2687 
C 1658 2687 1715 2438 1715 2284 
C 1715 2143 1677 1993 1600 1678 
L 1382 778 
C 1286 390 1101 64 762 64 
C 730 64 570 64 435 126 
C 666 166 717 358 717 435 
C 717 563 621 640 499 640 
C 346 640 179 505 179 300 
C 179 57 480 -64 755 -64 
C 1062 -64 1280 153 1414 415 
C 1517 64 1837 -64 2074 -64 
C 2726 -64 3072 751 3072 896 
C 3072 929 3046 955 3008 955 
C 2950 955 2944 922 2925 870 
C 2752 300 2381 64 2093 64 
C 1869 64 1747 204 1747 467 
C 1747 607 1773 712 1875 1146 
L 2099 2039 
C 2195 2425 2413 2687 2707 2687 
C 2720 2687 2899 2687 3034 2624 
z
" id="CMMI12-78" transform="scale(0.015625)"/>
      </defs>
      <use transform="scale(0.996264)" xlink:href="#CMMI12-78"/>
      <use transform="translate(55.43406 -14.943915)scale(0.697382)" xlink:href="#CMR17-31"/>
     </g>
    </g>
    <g id="line2d_11">
     <path d="M 289.903981 162.491091 
L 359.903981 162.491091 
" style="fill:none;stroke:#000000;stroke-dasharray:5.55,2.4;stroke-dashoffset:0;stroke-width:1.5;"/>
    </g>
    <g id="line2d_12"/>
    <g id="text_8">
     <!-- $x_2$ -->
     <g transform="translate(387.903981 174.741091)scale(0.35 -0.35)">
      <defs>
       <path d="M 2669 990 
L 2554 990 
C 2490 537 2438 460 2413 422 
C 2381 371 1920 371 1830 371 
L 602 371 
C 832 620 1280 1073 1824 1596 
C 2214 1966 2669 2400 2669 3033 
C 2669 3788 2067 4224 1395 4224 
C 691 4224 262 3603 262 3027 
C 262 2777 448 2745 525 2745 
C 589 2745 781 2783 781 3007 
C 781 3206 614 3264 525 3264 
C 486 3264 448 3257 422 3244 
C 544 3788 915 4057 1306 4057 
C 1862 4057 2227 3616 2227 3033 
C 2227 2477 1901 1998 1536 1583 
L 262 147 
L 262 0 
L 2515 0 
L 2669 990 
z
" id="CMR17-32" transform="scale(0.015625)"/>
      </defs>
      <use transform="scale(0.996264)" xlink:href="#CMMI12-78"/>
      <use transform="translate(55.43406 -14.943915)scale(0.697382)" xlink:href="#CMR17-32"/>
     </g>
    </g>
    <g id="line2d_13">
     <path d="M 289.903981 211.273442 
L 359.903981 211.273442 
" style="fill:none;stroke:#000000;stroke-dasharray:1.5,2.475;stroke-dashoffset:0;stroke-width:1.5;"/>
    </g>
    <g id="line2d_14"/>
    <g id="text_9">
     <!-- $u$ -->
     <g transform="translate(387.903981 223.523442)scale(0.35 -0.35)">
      <defs>
       <path d="M 2182 370 
C 2266 12 2573 -64 2726 -64 
C 2931 -64 3085 70 3187 287 
C 3296 517 3379 893 3379 913 
C 3379 944 3354 970 3315 970 
C 3258 970 3251 938 3226 842 
C 3110 402 2995 64 2739 64 
C 2547 64 2547 274 2547 357 
C 2547 504 2566 568 2630 836 
C 2675 1008 2720 1181 2758 1359 
L 3021 2400 
C 3066 2560 3066 2572 3066 2591 
C 3066 2687 2989 2752 2893 2752 
C 2707 2752 2662 2591 2624 2432 
C 2560 2183 2214 810 2170 587 
C 2163 587 1914 64 1446 64 
C 1114 64 1050 351 1050 587 
C 1050 951 1229 1462 1395 1890 
C 1472 2094 1504 2177 1504 2305 
C 1504 2579 1306 2816 998 2816 
C 410 2816 173 1890 173 1838 
C 173 1813 198 1781 243 1781 
C 301 1781 307 1807 333 1896 
C 486 2445 736 2687 979 2687 
C 1043 2687 1146 2681 1146 2477 
C 1146 2311 1075 2126 979 1883 
C 698 1123 666 881 666 689 
C 666 38 1158 -64 1421 -64 
C 1830 -64 2054 217 2182 370 
z
" id="CMMI12-75" transform="scale(0.015625)"/>
      </defs>
      <use transform="scale(0.996264)" xlink:href="#CMMI12-75"/>
     </g>
    </g>
   </g>
  </g>
 </g>
 <defs>
  <clipPath id="pc9cb2ecc89">
   <rect height="251.005794" width="389.08773" x="60.91227" y="10.8"/>
  </clipPath>
 </defs>
</svg>
