<?xml version="1.0" encoding="utf-8" standalone="no"?>
<!DOCTYPE svg PUBLIC "-//W3C//DTD SVG 1.1//EN"
  "http://www.w3.org/Graphics/SVG/1.1/DTD/svg11.dtd">
<svg height="345.6pt" version="1.1" viewBox="0 0 460.8 345.6" width="460.8pt" xmlns="http://www.w3.org/2000/svg" xmlns:xlink="http://www.w3.org/1999/xlink">
 <metadata>
  <rdf:RDF xmlns:cc="http://creativecommons.org/ns#" xmlns:dc="http://purl.org/dc/elements/1.1/" xmlns:rdf="http://www.w3.org/1999/02/22-rdf-syntax-ns#">
   <cc:Work>
    <dc:type rdf:resource="http://purl.org/dc/dcmitype/StillImage"/>
    <dc:date>2021-04-13T08:29:54.032792</dc:date>
    <dc:format>image/svg+xml</dc:format>
    <dc:creator>
     <cc:Agent>
      <dc:title>Matplotlib v3.4.1, https://matplotlib.org/</dc:title>
     </cc:Agent>
    </dc:creator>
   </cc:Work>
  </rdf:RDF>
 </metadata>
 <defs>
  <style type="text/css">*{stroke-linecap:butt;stroke-linejoin:round;}</style>
 </defs>
 <g id="figure_1">
  <g id="patch_1">
   <path d="M 0 345.6 
L 460.8 345.6 
L 460.8 0 
L 0 0 
z
" style="fill:#ffffff;"/>
  </g>
  <g id="axes_1">
   <g id="patch_2">
    <path d="M 60.91227 261.805794 
L 450 261.805794 
L 450 10.8 
L 60.91227 10.8 
z
" style="fill:#ffffff;"/>
   </g>
   <g id="matplotlib.axis_1">
    <g id="xtick_1">
     <g id="line2d_1">
      <defs>
       <path d="M 0 0 
L 0 3.5 
" id="m1fe97f9d13" style="stroke:#000000;stroke-width:0.8;"/>
      </defs>
      <g>
       <use style="stroke:#000000;stroke-width:0.8;" x="78.598076" xlink:href="#m1fe97f9d13" y="261.805794"/>
      </g>
     </g>
     <g id="text_1">
      <!-- $\mathdefault{0}$ -->
      <g transform="translate(70.602242 293.020546)scale(0.35 -0.35)">
       <defs>
        <path d="M 2688 2038 
C 2688 2430 2682 3099 2413 3613 
C 2176 4063 1798 4224 1466 4224 
C 1158 4224 768 4082 525 3620 
C 269 3137 243 2539 243 2038 
C 243 1671 250 1112 448 623 
C 723 -39 1216 -128 1466 -128 
C 1760 -128 2208 -7 2470 604 
C 2662 1048 2688 1568 2688 2038 
z
M 1466 -26 
C 1056 -26 813 328 723 816 
C 653 1196 653 1749 653 2109 
C 653 2604 653 3015 736 3407 
C 858 3954 1216 4121 1466 4121 
C 1728 4121 2067 3947 2189 3420 
C 2272 3054 2278 2623 2278 2109 
C 2278 1691 2278 1176 2202 797 
C 2067 96 1690 -26 1466 -26 
z
" id="CMR17-30" transform="scale(0.015625)"/>
       </defs>
       <use transform="scale(0.996264)" xlink:href="#CMR17-30"/>
      </g>
     </g>
    </g>
    <g id="xtick_2">
     <g id="line2d_2">
      <g>
       <use style="stroke:#000000;stroke-width:0.8;" x="255.456135" xlink:href="#m1fe97f9d13" y="261.805794"/>
      </g>
     </g>
     <g id="text_2">
      <!-- $\mathdefault{5}$ -->
      <g transform="translate(247.460302 293.020546)scale(0.35 -0.35)">
       <defs>
        <path d="M 730 3750 
C 794 3724 1056 3641 1325 3641 
C 1920 3641 2246 3961 2432 4140 
C 2432 4191 2432 4224 2394 4224 
C 2387 4224 2374 4224 2323 4198 
C 2099 4102 1837 4032 1517 4032 
C 1325 4032 1037 4055 723 4191 
C 653 4224 640 4224 634 4224 
C 602 4224 595 4217 595 4090 
L 595 2231 
C 595 2113 595 2080 659 2080 
C 691 2080 704 2093 736 2139 
C 941 2435 1222 2560 1542 2560 
C 1766 2560 2246 2415 2246 1293 
C 2246 1087 2246 716 2054 422 
C 1894 159 1645 25 1370 25 
C 947 25 518 319 403 812 
C 429 806 480 793 506 793 
C 589 793 749 838 749 1036 
C 749 1209 627 1280 506 1280 
C 358 1280 262 1190 262 1011 
C 262 454 704 -128 1382 -128 
C 2042 -128 2669 441 2669 1267 
C 2669 2054 2170 2662 1549 2662 
C 1222 2662 947 2540 730 2304 
L 730 3750 
z
" id="CMR17-35" transform="scale(0.015625)"/>
       </defs>
       <use transform="scale(0.996264)" xlink:href="#CMR17-35"/>
      </g>
     </g>
    </g>
    <g id="xtick_3">
     <g id="line2d_3">
      <g>
       <use style="stroke:#000000;stroke-width:0.8;" x="432.314194" xlink:href="#m1fe97f9d13" y="261.805794"/>
      </g>
     </g>
     <g id="text_3">
      <!-- $\mathdefault{10}$ -->
      <g transform="translate(416.322527 293.020546)scale(0.35 -0.35)">
       <defs>
        <path d="M 1702 4083 
C 1702 4217 1696 4224 1606 4224 
C 1357 3927 979 3833 621 3820 
C 602 3820 570 3820 563 3808 
C 557 3795 557 3782 557 3648 
C 755 3648 1088 3686 1344 3839 
L 1344 467 
C 1344 243 1331 166 781 166 
L 589 166 
L 589 0 
C 896 6 1216 12 1523 12 
C 1830 12 2150 6 2458 0 
L 2458 166 
L 2266 166 
C 1715 166 1702 236 1702 467 
L 1702 4083 
z
" id="CMR17-31" transform="scale(0.015625)"/>
       </defs>
       <use transform="scale(0.996264)" xlink:href="#CMR17-31"/>
       <use transform="translate(45.690477 0)scale(0.996264)" xlink:href="#CMR17-30"/>
      </g>
     </g>
    </g>
    <g id="text_4">
     <!-- $t$ -->
     <g transform="translate(249.291531 328.017649)scale(0.35 -0.35)">
      <defs>
       <path d="M 1286 2566 
L 1875 2566 
C 1997 2566 2061 2566 2061 2681 
C 2061 2752 2022 2752 1894 2752 
L 1331 2752 
L 1568 3664 
C 1594 3752 1594 3764 1594 3808 
C 1594 3910 1510 3968 1427 3968 
C 1376 3968 1229 3948 1178 3746 
L 928 2752 
L 326 2752 
C 198 2752 141 2752 141 2630 
C 141 2566 186 2566 307 2566 
L 877 2566 
L 454 881 
C 403 657 384 593 384 510 
C 384 210 595 -64 954 -64 
C 1600 -64 1946 868 1946 913 
C 1946 951 1920 970 1882 970 
C 1869 970 1843 970 1830 944 
C 1824 938 1818 932 1773 830 
C 1638 510 1344 64 973 64 
C 781 64 768 223 768 364 
C 768 370 768 491 787 568 
L 1286 2566 
z
" id="CMMI12-74" transform="scale(0.015625)"/>
      </defs>
      <use transform="scale(0.996264)" xlink:href="#CMMI12-74"/>
     </g>
    </g>
   </g>
   <g id="matplotlib.axis_2">
    <g id="ytick_1">
     <g id="line2d_4">
      <defs>
       <path d="M 0 0 
L -3.5 0 
" id="m7bb11ea302" style="stroke:#000000;stroke-width:0.8;"/>
      </defs>
      <g>
       <use style="stroke:#000000;stroke-width:0.8;" x="60.91227" xlink:href="#m7bb11ea302" y="235.892047"/>
      </g>
     </g>
     <g id="text_5">
      <!-- $\mathdefault{−1}$ -->
      <g transform="translate(10.8 247.999423)scale(0.35 -0.35)">
       <defs>
        <path d="M 4218 1472 
C 4326 1472 4442 1472 4442 1600 
C 4442 1728 4326 1728 4218 1728 
L 755 1728 
C 646 1728 531 1728 531 1600 
C 531 1472 646 1472 755 1472 
L 4218 1472 
z
" id="CMSY10-0" transform="scale(0.015625)"/>
       </defs>
       <use transform="scale(0.996264)" xlink:href="#CMSY10-0"/>
       <use transform="translate(77.487468 0)scale(0.996264)" xlink:href="#CMR17-31"/>
      </g>
     </g>
    </g>
    <g id="ytick_2">
     <g id="line2d_5">
      <g>
       <use style="stroke:#000000;stroke-width:0.8;" x="60.91227" xlink:href="#m7bb11ea302" y="151.595514"/>
      </g>
     </g>
     <g id="text_6">
      <!-- $\mathdefault{0}$ -->
      <g transform="translate(37.920603 163.70289)scale(0.35 -0.35)">
       <use transform="scale(0.996264)" xlink:href="#CMR17-30"/>
      </g>
     </g>
    </g>
    <g id="ytick_3">
     <g id="line2d_6">
      <g>
       <use style="stroke:#000000;stroke-width:0.8;" x="60.91227" xlink:href="#m7bb11ea302" y="67.298981"/>
      </g>
     </g>
     <g id="text_7">
      <!-- $\mathdefault{1}$ -->
      <g transform="translate(37.920603 79.406357)scale(0.35 -0.35)">
       <use transform="scale(0.996264)" xlink:href="#CMR17-31"/>
      </g>
     </g>
    </g>
   </g>
   <g id="line2d_7">
    <path clip-path="url(#pb4b9b23d4b)" d="M 78.598076 67.298981 
L 82.075851 59.47931 
L 85.613012 52.450097 
L 89.150173 46.29785 
L 92.687334 40.969278 
L 96.224496 36.412965 
L 99.761657 32.579374 
L 103.298818 29.420839 
L 106.835979 26.891561 
L 110.37314 24.947588 
L 113.910301 23.546803 
L 117.447463 22.648895 
L 120.984624 22.215336 
L 124.521785 22.209354 
L 128.058946 22.595895 
L 131.596107 23.341591 
L 135.133269 24.414724 
L 138.67043 25.785185 
L 142.207591 27.424433 
L 145.744752 29.305455 
L 149.281913 31.40272 
L 152.819074 33.692137 
L 156.356236 36.151007 
L 159.893397 38.757982 
L 163.430558 41.493014 
L 166.967719 44.337313 
L 170.50488 47.273297 
L 174.042042 50.284552 
L 177.579203 53.355779 
L 181.116364 56.472753 
L 184.653525 59.622277 
L 188.190686 62.79214 
L 191.727847 65.971067 
L 195.265009 69.148685 
L 198.80217 72.315471 
L 202.339331 75.46272 
L 205.876492 78.582498 
L 209.413653 81.667605 
L 212.950815 84.711538 
L 216.487976 87.708451 
L 220.025137 90.65312 
L 223.562298 93.540909 
L 227.099459 96.367732 
L 230.63662 99.130026 
L 234.173782 101.824714 
L 237.710943 104.449176 
L 241.248104 107.001221 
L 244.785265 109.479056 
L 248.322426 111.881261 
L 251.859588 114.206759 
L 255.396749 116.454798 
L 258.93391 118.624918 
L 262.471071 120.716936 
L 266.008232 122.730919 
L 269.545393 124.667167 
L 273.082555 126.526187 
L 276.619716 128.308682 
L 280.156877 130.015529 
L 283.694038 131.647759 
L 287.231199 133.206549 
L 290.768361 134.693198 
L 294.305522 136.109121 
L 297.842683 137.455826 
L 301.379844 138.734913 
L 304.917005 139.948051 
L 308.454166 141.096974 
L 311.991328 142.183469 
L 315.528489 143.209363 
L 319.06565 144.176519 
L 322.602811 145.086824 
L 326.139972 145.942184 
L 329.677133 146.744514 
L 333.214295 147.495731 
L 336.751456 148.197754 
L 340.288617 148.852488 
L 343.825778 149.461831 
L 347.362939 150.027657 
L 350.900101 150.551823 
L 354.437262 151.036158 
L 357.974423 151.48246 
L 361.511584 151.892498 
L 365.048745 152.268003 
L 368.585906 152.61067 
L 372.123068 152.922154 
L 375.660229 153.20407 
L 379.19739 153.457988 
L 382.734551 153.685436 
L 386.271712 153.887895 
L 389.808874 154.066802 
L 393.346035 154.223547 
L 396.883196 154.359472 
L 400.420357 154.475873 
L 403.957518 154.574 
L 407.494679 154.655053 
L 411.031841 154.720187 
L 414.569002 154.770512 
L 418.106163 154.807088 
L 421.643324 154.830934 
L 425.180485 154.84302 
L 428.717647 154.844276 
L 432.254808 154.835585 
L 432.314194 154.835359 
" style="fill:none;stroke:#000000;stroke-linecap:square;stroke-width:1.5;"/>
   </g>
   <g id="line2d_8">
    <path clip-path="url(#pb4b9b23d4b)" d="M 78.598076 67.298981 
L 82.075851 76.736241 
L 85.613012 85.77859 
L 89.150173 94.278675 
L 92.687334 102.255218 
L 96.224496 109.726994 
L 99.761657 116.712768 
L 103.298818 123.231235 
L 106.835979 129.300976 
L 110.37314 134.940406 
L 113.910301 140.167734 
L 117.447463 145.000923 
L 120.984624 149.457657 
L 124.521785 153.555312 
L 128.058946 157.310924 
L 131.596107 160.74117 
L 135.133269 163.862343 
L 138.67043 166.690339 
L 142.207591 169.240637 
L 145.744752 171.528286 
L 149.281913 173.567898 
L 152.819074 175.37364 
L 156.356236 176.959221 
L 159.893397 178.337897 
L 163.430558 179.522461 
L 166.967719 180.525246 
L 170.50488 181.358124 
L 174.042042 182.032507 
L 177.579203 182.559353 
L 181.116364 182.949166 
L 184.653525 183.212006 
L 188.190686 183.35749 
L 191.727847 183.394805 
L 195.265009 183.332709 
L 198.80217 183.179544 
L 202.339331 182.943245 
L 205.876492 182.631347 
L 209.413653 182.250994 
L 212.950815 181.808956 
L 216.487976 181.31163 
L 220.025137 180.765059 
L 223.562298 180.174937 
L 227.099459 179.546625 
L 230.63662 178.88516 
L 234.173782 178.195265 
L 237.710943 177.481361 
L 241.248104 176.747582 
L 244.785265 175.997781 
L 248.322426 175.235544 
L 251.859588 174.464201 
L 255.396749 173.686835 
L 258.93391 172.906296 
L 262.471071 172.12521 
L 266.008232 171.345987 
L 269.545393 170.570836 
L 273.082555 169.801772 
L 276.619716 169.040626 
L 280.156877 168.289053 
L 283.694038 167.548547 
L 287.231199 166.820444 
L 290.768361 166.105931 
L 294.305522 165.40606 
L 297.842683 164.721749 
L 301.379844 164.053797 
L 304.917005 163.402884 
L 308.454166 162.769586 
L 311.991328 162.154377 
L 315.528489 161.557637 
L 319.06565 160.979659 
L 322.602811 160.420655 
L 326.139972 159.880763 
L 329.677133 159.360052 
L 333.214295 158.858524 
L 336.751456 158.376128 
L 340.288617 157.912754 
L 343.825778 157.468248 
L 347.362939 157.042407 
L 350.900101 156.634991 
L 354.437262 156.245724 
L 357.974423 155.874297 
L 361.511584 155.52037 
L 365.048745 155.183582 
L 368.585906 154.863547 
L 372.123068 154.55986 
L 375.660229 154.272101 
L 379.19739 153.999835 
L 382.734551 153.742616 
L 386.271712 153.49999 
L 389.808874 153.271495 
L 393.346035 153.056663 
L 396.883196 152.855025 
L 400.420357 152.666111 
L 403.957518 152.489448 
L 407.494679 152.324566 
L 411.031841 152.171 
L 414.569002 152.028287 
L 418.106163 151.895968 
L 421.643324 151.773592 
L 425.180485 151.660714 
L 428.717647 151.556897 
L 432.254808 151.461712 
L 432.314194 151.460186 
" style="fill:none;stroke:#000000;stroke-dasharray:5.55,2.4;stroke-dashoffset:0;stroke-width:1.5;"/>
   </g>
   <g id="line2d_9">
    <path clip-path="url(#pb4b9b23d4b)" d="M 78.598076 250.396439 
L 82.075851 244.792488 
L 85.613012 239.276551 
L 89.150173 233.947382 
L 92.687334 228.805811 
L 96.224496 223.852027 
L 99.761657 219.085638 
L 103.298818 214.505714 
L 106.835979 210.110838 
L 110.37314 205.899148 
L 113.910301 201.868379 
L 117.447463 198.015904 
L 120.984624 194.338773 
L 124.521785 190.833744 
L 128.058946 187.497321 
L 131.596107 184.325782 
L 135.133269 181.315214 
L 138.67043 178.461535 
L 142.207591 175.760523 
L 145.744752 173.207839 
L 149.281913 170.799051 
L 152.819074 168.529655 
L 156.356236 166.395094 
L 159.893397 164.390776 
L 163.430558 162.51209 
L 166.967719 160.754424 
L 170.50488 159.113177 
L 174.042042 157.583773 
L 177.579203 156.161673 
L 181.116364 154.842383 
L 184.653525 153.621468 
L 188.190686 152.494559 
L 191.727847 151.457358 
L 195.265009 150.505651 
L 198.80217 149.635309 
L 202.339331 148.842295 
L 205.876492 148.122669 
L 209.413653 147.472591 
L 212.950815 146.888328 
L 216.487976 146.36625 
L 220.025137 145.90284 
L 223.562298 145.494688 
L 227.099459 145.1385 
L 230.63662 144.831092 
L 234.173782 144.569394 
L 237.710943 144.350451 
L 241.248104 144.171418 
L 244.785265 144.029564 
L 248.322426 143.922271 
L 251.859588 143.847027 
L 255.396749 143.801433 
L 258.93391 143.783194 
L 262.471071 143.790121 
L 266.008232 143.820131 
L 269.545393 143.871238 
L 273.082555 143.941557 
L 276.619716 144.029299 
L 280.156877 144.13277 
L 283.694038 144.250365 
L 287.231199 144.38057 
L 290.768361 144.521955 
L 294.305522 144.673177 
L 297.842683 144.832969 
L 301.379844 145.000144 
L 304.917005 145.17359 
L 308.454166 145.352268 
L 311.991328 145.535207 
L 315.528489 145.721503 
L 319.06565 145.910315 
L 322.602811 146.100867 
L 326.139972 146.292438 
L 329.677133 146.484363 
L 333.214295 146.676032 
L 336.751456 146.866885 
L 340.288617 147.056412 
L 343.825778 147.244146 
L 347.362939 147.429665 
L 350.900101 147.61259 
L 354.437262 147.792579 
L 357.974423 147.969328 
L 361.511584 148.142565 
L 365.048745 148.312056 
L 368.585906 148.477593 
L 372.123068 148.638999 
L 375.660229 148.796124 
L 379.19739 148.948843 
L 382.734551 149.097054 
L 386.271712 149.240679 
L 389.808874 149.379659 
L 393.346035 149.513953 
L 396.883196 149.643538 
L 400.420357 149.768409 
L 403.957518 149.888573 
L 407.494679 150.004053 
L 411.031841 150.114883 
L 414.569002 150.221109 
L 418.106163 150.322785 
L 421.643324 150.419979 
L 425.180485 150.512762 
L 428.717647 150.601215 
L 432.254808 150.685425 
L 432.314194 150.686804 
" style="fill:none;stroke:#000000;stroke-dasharray:1.5,2.475;stroke-dashoffset:0;stroke-width:1.5;"/>
   </g>
   <g id="patch_3">
    <path d="M 60.91227 261.805794 
L 60.91227 10.8 
" style="fill:none;stroke:#000000;stroke-linecap:square;stroke-linejoin:miter;stroke-width:0.8;"/>
   </g>
   <g id="patch_4">
    <path d="M 450 261.805794 
L 450 10.8 
" style="fill:none;stroke:#000000;stroke-linecap:square;stroke-linejoin:miter;stroke-width:0.8;"/>
   </g>
   <g id="patch_5">
    <path d="M 60.91227 261.805794 
L 450 261.805794 
" style="fill:none;stroke:#000000;stroke-linecap:square;stroke-linejoin:miter;stroke-width:0.8;"/>
   </g>
   <g id="patch_6">
    <path d="M 60.91227 10.8 
L 450 10.8 
" style="fill:none;stroke:#000000;stroke-linecap:square;stroke-linejoin:miter;stroke-width:0.8;"/>
   </g>
   <g id="legend_1">
    <g id="patch_7">
     <path d="M 85.41227 244.305794 
L 228.008289 244.305794 
Q 235.008289 244.305794 235.008289 237.305794 
L 235.008289 94.45874 
Q 235.008289 87.45874 228.008289 87.45874 
L 85.41227 87.45874 
Q 78.41227 87.45874 78.41227 94.45874 
L 78.41227 237.305794 
Q 78.41227 244.305794 85.41227 244.305794 
z
" style="fill:#ffffff;opacity:0.8;stroke:#cccccc;stroke-linejoin:miter;"/>
    </g>
    <g id="line2d_10">
     <path d="M 92.41227 113.70874 
L 162.41227 113.70874 
" style="fill:none;stroke:#000000;stroke-linecap:square;stroke-width:1.5;"/>
    </g>
    <g id="line2d_11"/>
    <g id="text_8">
     <!-- $x_1$ -->
     <g transform="translate(190.41227 125.95874)scale(0.35 -0.35)">
      <defs>
       <path d="M 3034 2624 
C 2829 2585 2752 2431 2752 2310 
C 2752 2156 2874 2105 2963 2105 
C 3155 2105 3290 2271 3290 2444 
C 3290 2694 2982 2816 2714 2816 
C 2323 2816 2106 2451 2048 2329 
C 1901 2790 1504 2816 1389 2816 
C 736 2816 390 1993 390 1849 
C 390 1823 416 1790 461 1790 
C 512 1790 525 1829 538 1855 
C 755 2572 1184 2687 1370 2687 
C 1658 2687 1715 2438 1715 2284 
C 1715 2143 1677 1993 1600 1678 
L 1382 778 
C 1286 390 1101 64 762 64 
C 730 64 570 64 435 126 
C 666 166 717 358 717 435 
C 717 563 621 640 499 640 
C 346 640 179 505 179 300 
C 179 57 480 -64 755 -64 
C 1062 -64 1280 153 1414 415 
C 1517 64 1837 -64 2074 -64 
C 2726 -64 3072 751 3072 896 
C 3072 929 3046 955 3008 955 
C 2950 955 2944 922 2925 870 
C 2752 300 2381 64 2093 64 
C 1869 64 1747 204 1747 467 
C 1747 607 1773 712 1875 1146 
L 2099 2039 
C 2195 2425 2413 2687 2707 2687 
C 2720 2687 2899 2687 3034 2624 
z
" id="CMMI12-78" transform="scale(0.015625)"/>
      </defs>
      <use transform="scale(0.996264)" xlink:href="#CMMI12-78"/>
      <use transform="translate(55.43406 -14.943915)scale(0.697382)" xlink:href="#CMR17-31"/>
     </g>
    </g>
    <g id="line2d_12">
     <path d="M 92.41227 162.491091 
L 162.41227 162.491091 
" style="fill:none;stroke:#000000;stroke-dasharray:5.55,2.4;stroke-dashoffset:0;stroke-width:1.5;"/>
    </g>
    <g id="line2d_13"/>
    <g id="text_9">
     <!-- $x_2$ -->
     <g transform="translate(190.41227 174.741091)scale(0.35 -0.35)">
      <defs>
       <path d="M 2669 990 
L 2554 990 
C 2490 537 2438 460 2413 422 
C 2381 371 1920 371 1830 371 
L 602 371 
C 832 620 1280 1073 1824 1596 
C 2214 1966 2669 2400 2669 3033 
C 2669 3788 2067 4224 1395 4224 
C 691 4224 262 3603 262 3027 
C 262 2777 448 2745 525 2745 
C 589 2745 781 2783 781 3007 
C 781 3206 614 3264 525 3264 
C 486 3264 448 3257 422 3244 
C 544 3788 915 4057 1306 4057 
C 1862 4057 2227 3616 2227 3033 
C 2227 2477 1901 1998 1536 1583 
L 262 147 
L 262 0 
L 2515 0 
L 2669 990 
z
" id="CMR17-32" transform="scale(0.015625)"/>
      </defs>
      <use transform="scale(0.996264)" xlink:href="#CMMI12-78"/>
      <use transform="translate(55.43406 -14.943915)scale(0.697382)" xlink:href="#CMR17-32"/>
     </g>
    </g>
    <g id="line2d_14">
     <path d="M 92.41227 211.273442 
L 162.41227 211.273442 
" style="fill:none;stroke:#000000;stroke-dasharray:1.5,2.475;stroke-dashoffset:0;stroke-width:1.5;"/>
    </g>
    <g id="line2d_15"/>
    <g id="text_10">
     <!-- $u$ -->
     <g transform="translate(190.41227 223.523442)scale(0.35 -0.35)">
      <defs>
       <path d="M 2182 370 
C 2266 12 2573 -64 2726 -64 
C 2931 -64 3085 70 3187 287 
C 3296 517 3379 893 3379 913 
C 3379 944 3354 970 3315 970 
C 3258 970 3251 938 3226 842 
C 3110 402 2995 64 2739 64 
C 2547 64 2547 274 2547 357 
C 2547 504 2566 568 2630 836 
C 2675 1008 2720 1181 2758 1359 
L 3021 2400 
C 3066 2560 3066 2572 3066 2591 
C 3066 2687 2989 2752 2893 2752 
C 2707 2752 2662 2591 2624 2432 
C 2560 2183 2214 810 2170 587 
C 2163 587 1914 64 1446 64 
C 1114 64 1050 351 1050 587 
C 1050 951 1229 1462 1395 1890 
C 1472 2094 1504 2177 1504 2305 
C 1504 2579 1306 2816 998 2816 
C 410 2816 173 1890 173 1838 
C 173 1813 198 1781 243 1781 
C 301 1781 307 1807 333 1896 
C 486 2445 736 2687 979 2687 
C 1043 2687 1146 2681 1146 2477 
C 1146 2311 1075 2126 979 1883 
C 698 1123 666 881 666 689 
C 666 38 1158 -64 1421 -64 
C 1830 -64 2054 217 2182 370 
z
" id="CMMI12-75" transform="scale(0.015625)"/>
      </defs>
      <use transform="scale(0.996264)" xlink:href="#CMMI12-75"/>
     </g>
    </g>
   </g>
  </g>
 </g>
 <defs>
  <clipPath id="pb4b9b23d4b">
   <rect height="251.005794" width="389.08773" x="60.91227" y="10.8"/>
  </clipPath>
 </defs>
</svg>
