<?xml version="1.0" encoding="utf-8" standalone="no"?>
<!DOCTYPE svg PUBLIC "-//W3C//DTD SVG 1.1//EN"
  "http://www.w3.org/Graphics/SVG/1.1/DTD/svg11.dtd">
<svg height="345.6pt" version="1.1" viewBox="0 0 460.8 345.6" width="460.8pt" xmlns="http://www.w3.org/2000/svg" xmlns:xlink="http://www.w3.org/1999/xlink">
 <metadata>
  <rdf:RDF xmlns:cc="http://creativecommons.org/ns#" xmlns:dc="http://purl.org/dc/elements/1.1/" xmlns:rdf="http://www.w3.org/1999/02/22-rdf-syntax-ns#">
   <cc:Work>
    <dc:type rdf:resource="http://purl.org/dc/dcmitype/StillImage"/>
    <dc:date>2021-04-13T08:29:52.977290</dc:date>
    <dc:format>image/svg+xml</dc:format>
    <dc:creator>
     <cc:Agent>
      <dc:title>Matplotlib v3.4.1, https://matplotlib.org/</dc:title>
     </cc:Agent>
    </dc:creator>
   </cc:Work>
  </rdf:RDF>
 </metadata>
 <defs>
  <style type="text/css">*{stroke-linecap:butt;stroke-linejoin:round;}</style>
 </defs>
 <g id="figure_1">
  <g id="patch_1">
   <path d="M 0 345.6 
L 460.8 345.6 
L 460.8 0 
L 0 0 
z
" style="fill:#ffffff;"/>
  </g>
  <g id="axes_1">
   <g id="patch_2">
    <path d="M 60.91227 261.805794 
L 450 261.805794 
L 450 10.8 
L 60.91227 10.8 
z
" style="fill:#ffffff;"/>
   </g>
   <g id="matplotlib.axis_1">
    <g id="xtick_1">
     <g id="line2d_1">
      <defs>
       <path d="M 0 0 
L 0 3.5 
" id="mcea462efbc" style="stroke:#000000;stroke-width:0.8;"/>
      </defs>
      <g>
       <use style="stroke:#000000;stroke-width:0.8;" x="78.598076" xlink:href="#mcea462efbc" y="261.805794"/>
      </g>
     </g>
     <g id="text_1">
      <!-- $\mathdefault{0}$ -->
      <g transform="translate(70.602242 293.020546)scale(0.35 -0.35)">
       <defs>
        <path d="M 2688 2038 
C 2688 2430 2682 3099 2413 3613 
C 2176 4063 1798 4224 1466 4224 
C 1158 4224 768 4082 525 3620 
C 269 3137 243 2539 243 2038 
C 243 1671 250 1112 448 623 
C 723 -39 1216 -128 1466 -128 
C 1760 -128 2208 -7 2470 604 
C 2662 1048 2688 1568 2688 2038 
z
M 1466 -26 
C 1056 -26 813 328 723 816 
C 653 1196 653 1749 653 2109 
C 653 2604 653 3015 736 3407 
C 858 3954 1216 4121 1466 4121 
C 1728 4121 2067 3947 2189 3420 
C 2272 3054 2278 2623 2278 2109 
C 2278 1691 2278 1176 2202 797 
C 2067 96 1690 -26 1466 -26 
z
" id="CMR17-30" transform="scale(0.015625)"/>
       </defs>
       <use transform="scale(0.996264)" xlink:href="#CMR17-30"/>
      </g>
     </g>
    </g>
    <g id="xtick_2">
     <g id="line2d_2">
      <g>
       <use style="stroke:#000000;stroke-width:0.8;" x="255.456135" xlink:href="#mcea462efbc" y="261.805794"/>
      </g>
     </g>
     <g id="text_2">
      <!-- $\mathdefault{5}$ -->
      <g transform="translate(247.460302 293.020546)scale(0.35 -0.35)">
       <defs>
        <path d="M 730 3750 
C 794 3724 1056 3641 1325 3641 
C 1920 3641 2246 3961 2432 4140 
C 2432 4191 2432 4224 2394 4224 
C 2387 4224 2374 4224 2323 4198 
C 2099 4102 1837 4032 1517 4032 
C 1325 4032 1037 4055 723 4191 
C 653 4224 640 4224 634 4224 
C 602 4224 595 4217 595 4090 
L 595 2231 
C 595 2113 595 2080 659 2080 
C 691 2080 704 2093 736 2139 
C 941 2435 1222 2560 1542 2560 
C 1766 2560 2246 2415 2246 1293 
C 2246 1087 2246 716 2054 422 
C 1894 159 1645 25 1370 25 
C 947 25 518 319 403 812 
C 429 806 480 793 506 793 
C 589 793 749 838 749 1036 
C 749 1209 627 1280 506 1280 
C 358 1280 262 1190 262 1011 
C 262 454 704 -128 1382 -128 
C 2042 -128 2669 441 2669 1267 
C 2669 2054 2170 2662 1549 2662 
C 1222 2662 947 2540 730 2304 
L 730 3750 
z
" id="CMR17-35" transform="scale(0.015625)"/>
       </defs>
       <use transform="scale(0.996264)" xlink:href="#CMR17-35"/>
      </g>
     </g>
    </g>
    <g id="xtick_3">
     <g id="line2d_3">
      <g>
       <use style="stroke:#000000;stroke-width:0.8;" x="432.314194" xlink:href="#mcea462efbc" y="261.805794"/>
      </g>
     </g>
     <g id="text_3">
      <!-- $\mathdefault{10}$ -->
      <g transform="translate(416.322527 293.020546)scale(0.35 -0.35)">
       <defs>
        <path d="M 1702 4083 
C 1702 4217 1696 4224 1606 4224 
C 1357 3927 979 3833 621 3820 
C 602 3820 570 3820 563 3808 
C 557 3795 557 3782 557 3648 
C 755 3648 1088 3686 1344 3839 
L 1344 467 
C 1344 243 1331 166 781 166 
L 589 166 
L 589 0 
C 896 6 1216 12 1523 12 
C 1830 12 2150 6 2458 0 
L 2458 166 
L 2266 166 
C 1715 166 1702 236 1702 467 
L 1702 4083 
z
" id="CMR17-31" transform="scale(0.015625)"/>
       </defs>
       <use transform="scale(0.996264)" xlink:href="#CMR17-31"/>
       <use transform="translate(45.690477 0)scale(0.996264)" xlink:href="#CMR17-30"/>
      </g>
     </g>
    </g>
    <g id="text_4">
     <!-- $t$ -->
     <g transform="translate(249.291531 328.017649)scale(0.35 -0.35)">
      <defs>
       <path d="M 1286 2566 
L 1875 2566 
C 1997 2566 2061 2566 2061 2681 
C 2061 2752 2022 2752 1894 2752 
L 1331 2752 
L 1568 3664 
C 1594 3752 1594 3764 1594 3808 
C 1594 3910 1510 3968 1427 3968 
C 1376 3968 1229 3948 1178 3746 
L 928 2752 
L 326 2752 
C 198 2752 141 2752 141 2630 
C 141 2566 186 2566 307 2566 
L 877 2566 
L 454 881 
C 403 657 384 593 384 510 
C 384 210 595 -64 954 -64 
C 1600 -64 1946 868 1946 913 
C 1946 951 1920 970 1882 970 
C 1869 970 1843 970 1830 944 
C 1824 938 1818 932 1773 830 
C 1638 510 1344 64 973 64 
C 781 64 768 223 768 364 
C 768 370 768 491 787 568 
L 1286 2566 
z
" id="CMMI12-74" transform="scale(0.015625)"/>
      </defs>
      <use transform="scale(0.996264)" xlink:href="#CMMI12-74"/>
     </g>
    </g>
   </g>
   <g id="matplotlib.axis_2">
    <g id="ytick_1">
     <g id="line2d_4">
      <defs>
       <path d="M 0 0 
L -3.5 0 
" id="m01b9d53306" style="stroke:#000000;stroke-width:0.8;"/>
      </defs>
      <g>
       <use style="stroke:#000000;stroke-width:0.8;" x="60.91227" xlink:href="#m01b9d53306" y="208.195935"/>
      </g>
     </g>
     <g id="text_5">
      <!-- $\mathdefault{−2}$ -->
      <g transform="translate(10.8 220.303311)scale(0.35 -0.35)">
       <defs>
        <path d="M 4218 1472 
C 4326 1472 4442 1472 4442 1600 
C 4442 1728 4326 1728 4218 1728 
L 755 1728 
C 646 1728 531 1728 531 1600 
C 531 1472 646 1472 755 1472 
L 4218 1472 
z
" id="CMSY10-0" transform="scale(0.015625)"/>
        <path d="M 2669 990 
L 2554 990 
C 2490 537 2438 460 2413 422 
C 2381 371 1920 371 1830 371 
L 602 371 
C 832 620 1280 1073 1824 1596 
C 2214 1966 2669 2400 2669 3033 
C 2669 3788 2067 4224 1395 4224 
C 691 4224 262 3603 262 3027 
C 262 2777 448 2745 525 2745 
C 589 2745 781 2783 781 3007 
C 781 3206 614 3264 525 3264 
C 486 3264 448 3257 422 3244 
C 544 3788 915 4057 1306 4057 
C 1862 4057 2227 3616 2227 3033 
C 2227 2477 1901 1998 1536 1583 
L 262 147 
L 262 0 
L 2515 0 
L 2669 990 
z
" id="CMR17-32" transform="scale(0.015625)"/>
       </defs>
       <use transform="scale(0.996264)" xlink:href="#CMSY10-0"/>
       <use transform="translate(77.487468 0)scale(0.996264)" xlink:href="#CMR17-32"/>
      </g>
     </g>
    </g>
    <g id="ytick_2">
     <g id="line2d_5">
      <g>
       <use style="stroke:#000000;stroke-width:0.8;" x="60.91227" xlink:href="#m01b9d53306" y="92.902013"/>
      </g>
     </g>
     <g id="text_6">
      <!-- $\mathdefault{0}$ -->
      <g transform="translate(37.920603 105.009389)scale(0.35 -0.35)">
       <use transform="scale(0.996264)" xlink:href="#CMR17-30"/>
      </g>
     </g>
    </g>
   </g>
   <g id="line2d_6">
    <path clip-path="url(#p3ded11a985)" d="M 78.598076 35.255053 
L 81.389456 31.178931 
L 84.926617 27.265453 
L 88.463778 24.576519 
L 92.000939 22.942053 
L 95.5381 22.209354 
L 99.075261 22.241731 
L 102.612423 22.917213 
L 106.149584 24.127327 
L 109.686745 25.775946 
L 113.223906 27.778208 
L 116.761067 30.059501 
L 120.298229 32.554521 
L 123.83539 35.206389 
L 127.372551 37.96583 
L 130.909712 40.790421 
L 134.446873 43.643888 
L 137.984034 46.49546 
L 141.521196 49.319278 
L 145.058357 52.093848 
L 148.595518 54.801549 
L 152.132679 57.428173 
L 155.66984 59.962518 
L 159.207002 62.396009 
L 162.744163 64.722359 
L 166.281324 66.937265 
L 169.818485 69.038131 
L 173.355646 71.023818 
L 176.892807 72.894428 
L 180.429969 74.6511 
L 183.96713 76.295838 
L 187.504291 77.831354 
L 191.041452 79.260932 
L 194.578613 80.588303 
L 198.115775 81.817545 
L 201.652936 82.952986 
L 205.190097 83.999128 
L 208.727258 84.960573 
L 212.264419 85.841972 
L 215.80158 86.647968 
L 219.338742 87.383158 
L 222.875903 88.05206 
L 226.413064 88.659077 
L 229.950225 89.208483 
L 233.487386 89.704399 
L 237.024548 90.150783 
L 240.561709 90.551417 
L 244.09887 90.909901 
L 247.636031 91.22965 
L 251.173192 91.51389 
L 254.710353 91.765661 
L 258.247515 91.987817 
L 261.784676 92.18303 
L 265.321837 92.353793 
L 268.858998 92.502428 
L 272.396159 92.631091 
L 275.933321 92.741777 
L 279.470482 92.836331 
L 283.007643 92.91645 
L 286.544804 92.983694 
L 290.081965 93.039495 
L 293.619126 93.085161 
L 297.156288 93.121884 
L 300.693449 93.150749 
L 304.23061 93.172742 
L 307.767771 93.188754 
L 311.304932 93.199588 
L 314.842094 93.20597 
L 318.379255 93.208548 
L 321.916416 93.207903 
L 325.453577 93.204555 
L 328.990738 93.198964 
L 332.527899 93.191538 
L 336.065061 93.182636 
L 339.602222 93.172576 
L 343.139383 93.161634 
L 346.676544 93.150049 
L 350.213705 93.138032 
L 353.750867 93.125761 
L 357.288028 93.113388 
L 360.825189 93.101044 
L 364.36235 93.088837 
L 367.899511 93.076857 
L 371.436672 93.065179 
L 374.973834 93.053861 
L 378.510995 93.04295 
L 382.048156 93.032481 
L 385.585317 93.02248 
L 389.122478 93.012964 
L 392.65964 93.003944 
L 396.196801 92.995423 
L 399.733962 92.9874 
L 403.271123 92.97987 
L 406.808284 92.972823 
L 410.345445 92.966248 
L 413.882607 92.960128 
L 417.419768 92.954449 
L 420.956929 92.949192 
L 424.49409 92.944338 
L 428.031251 92.939868 
L 431.568413 92.935761 
L 432.314194 92.93494 
" style="fill:none;stroke:#000000;stroke-linecap:square;stroke-width:1.5;"/>
   </g>
   <g id="line2d_7">
    <path clip-path="url(#p3ded11a985)" d="M 78.598076 35.255053 
L 81.389456 47.031305 
L 84.926617 60.188593 
L 88.463778 71.553534 
L 92.000939 81.306909 
L 95.5381 89.615534 
L 99.075261 96.632949 
L 102.612423 102.500121 
L 106.149584 107.346153 
L 109.686745 111.288984 
L 113.223906 114.43608 
L 116.761067 116.885119 
L 120.298229 118.72465 
L 123.83539 120.034727 
L 127.372551 120.887535 
L 130.909712 121.347971 
L 134.446873 121.474211 
L 137.984034 121.318247 
L 141.521196 120.926389 
L 145.058357 120.339748 
L 148.595518 119.594683 
L 152.132679 118.723225 
L 155.66984 117.753469 
L 159.207002 116.709944 
L 162.744163 115.613957 
L 166.281324 114.483906 
L 169.818485 113.335574 
L 173.355646 112.182405 
L 176.892807 111.035747 
L 180.429969 109.905085 
L 183.96713 108.798247 
L 187.504291 107.721599 
L 191.041452 106.680217 
L 194.578613 105.678047 
L 198.115775 104.718046 
L 201.652936 103.802316 
L 205.190097 102.932217 
L 208.727258 102.108475 
L 212.264419 101.331274 
L 215.80158 100.600343 
L 219.338742 99.915029 
L 222.875903 99.274365 
L 226.413064 98.677128 
L 229.950225 98.121889 
L 233.487386 97.607065 
L 237.024548 97.13095 
L 240.561709 96.691757 
L 244.09887 96.287643 
L 247.636031 95.916737 
L 251.173192 95.57716 
L 254.710353 95.267045 
L 258.247515 94.984552 
L 261.784676 94.727879 
L 265.321837 94.495275 
L 268.858998 94.285047 
L 272.396159 94.095564 
L 275.933321 93.925265 
L 279.470482 93.772662 
L 283.007643 93.636341 
L 286.544804 93.514963 
L 290.081965 93.407265 
L 293.619126 93.312059 
L 297.156288 93.228232 
L 300.693449 93.154744 
L 304.23061 93.090625 
L 307.767771 93.034972 
L 311.304932 92.986951 
L 314.842094 92.945787 
L 318.379255 92.910768 
L 321.916416 92.881238 
L 325.453577 92.856595 
L 328.990738 92.836288 
L 332.527899 92.819813 
L 336.065061 92.806712 
L 339.602222 92.796569 
L 343.139383 92.789007 
L 346.676544 92.783684 
L 350.213705 92.780293 
L 353.750867 92.778558 
L 357.288028 92.778232 
L 360.825189 92.779093 
L 364.36235 92.780945 
L 367.899511 92.783613 
L 371.436672 92.786943 
L 374.973834 92.790799 
L 378.510995 92.795062 
L 382.048156 92.799629 
L 385.585317 92.804408 
L 389.122478 92.809323 
L 392.65964 92.814307 
L 396.196801 92.819302 
L 399.733962 92.824262 
L 403.271123 92.829147 
L 406.808284 92.833923 
L 410.345445 92.838564 
L 413.882607 92.843049 
L 417.419768 92.847362 
L 420.956929 92.851491 
L 424.49409 92.855426 
L 428.031251 92.859163 
L 431.568413 92.862698 
L 432.314194 92.863418 
" style="fill:none;stroke:#000000;stroke-dasharray:5.55,2.4;stroke-dashoffset:0;stroke-width:1.5;"/>
   </g>
   <g id="line2d_8">
    <path clip-path="url(#p3ded11a985)" d="M 78.598076 250.396439 
L 81.389456 234.075494 
L 84.926617 215.199881 
L 88.463778 198.20416 
L 92.000939 182.945283 
L 95.5381 169.287022 
L 99.075261 157.100127 
L 102.612423 146.262404 
L 106.149584 136.658716 
L 109.686745 128.180915 
L 113.223906 120.727722 
L 116.761067 114.204568 
L 120.298229 108.523388 
L 123.83539 103.6024 
L 127.372551 99.365852 
L 130.909712 95.743762 
L 134.446873 92.67164 
L 137.984034 90.090206 
L 141.521196 87.945107 
L 145.058357 86.186629 
L 148.595518 84.769418 
L 152.132679 83.652204 
L 155.66984 82.797526 
L 159.207002 82.171472 
L 162.744163 81.743428 
L 166.281324 81.485828 
L 169.818485 81.373931 
L 173.355646 81.385591 
L 176.892807 81.501051 
L 180.429969 81.702744 
L 183.96713 81.975105 
L 187.504291 82.304398 
L 191.041452 82.678546 
L 194.578613 83.086985 
L 198.115775 83.520513 
L 201.652936 83.971162 
L 205.190097 84.432077 
L 208.727258 84.897395 
L 212.264419 85.362148 
L 215.80158 85.822162 
L 219.338742 86.273969 
L 222.875903 86.714731 
L 226.413064 87.142159 
L 229.950225 87.554454 
L 233.487386 87.95024 
L 237.024548 88.32851 
L 240.561709 88.688581 
L 244.09887 89.030043 
L 247.636031 89.352723 
L 251.173192 89.656647 
L 254.710353 89.942011 
L 258.247515 90.209148 
L 261.784676 90.458506 
L 265.321837 90.690624 
L 268.858998 90.906115 
L 272.396159 91.105647 
L 275.933321 91.289926 
L 279.470482 91.459688 
L 283.007643 91.615685 
L 286.544804 91.758673 
L 290.081965 91.889411 
L 293.619126 92.008647 
L 297.156288 92.117116 
L 300.693449 92.215535 
L 304.23061 92.3046 
L 307.767771 92.384982 
L 311.304932 92.457323 
L 314.842094 92.52224 
L 318.379255 92.580316 
L 321.916416 92.632108 
L 325.453577 92.678139 
L 328.990738 92.718904 
L 332.527899 92.754865 
L 336.065061 92.786457 
L 339.602222 92.814085 
L 343.139383 92.838126 
L 346.676544 92.85893 
L 350.213705 92.876821 
L 353.750867 92.892097 
L 357.288028 92.905035 
L 360.825189 92.915887 
L 364.36235 92.924887 
L 367.899511 92.932245 
L 371.436672 92.938156 
L 374.973834 92.942795 
L 378.510995 92.946322 
L 382.048156 92.948882 
L 385.585317 92.950605 
L 389.122478 92.951608 
L 392.65964 92.951996 
L 396.196801 92.951864 
L 399.733962 92.951296 
L 403.271123 92.950366 
L 406.808284 92.94914 
L 410.345445 92.947677 
L 413.882607 92.946028 
L 417.419768 92.944237 
L 420.956929 92.942343 
L 424.49409 92.940381 
L 428.031251 92.938379 
L 431.568413 92.936362 
L 432.314194 92.935936 
" style="fill:none;stroke:#000000;stroke-dasharray:1.5,2.475;stroke-dashoffset:0;stroke-width:1.5;"/>
   </g>
   <g id="patch_3">
    <path d="M 60.91227 261.805794 
L 60.91227 10.8 
" style="fill:none;stroke:#000000;stroke-linecap:square;stroke-linejoin:miter;stroke-width:0.8;"/>
   </g>
   <g id="patch_4">
    <path d="M 450 261.805794 
L 450 10.8 
" style="fill:none;stroke:#000000;stroke-linecap:square;stroke-linejoin:miter;stroke-width:0.8;"/>
   </g>
   <g id="patch_5">
    <path d="M 60.91227 261.805794 
L 450 261.805794 
" style="fill:none;stroke:#000000;stroke-linecap:square;stroke-linejoin:miter;stroke-width:0.8;"/>
   </g>
   <g id="patch_6">
    <path d="M 60.91227 10.8 
L 450 10.8 
" style="fill:none;stroke:#000000;stroke-linecap:square;stroke-linejoin:miter;stroke-width:0.8;"/>
   </g>
   <g id="legend_1">
    <g id="patch_7">
     <path d="M 85.41227 244.305794 
L 228.008289 244.305794 
Q 235.008289 244.305794 235.008289 237.305794 
L 235.008289 94.45874 
Q 235.008289 87.45874 228.008289 87.45874 
L 85.41227 87.45874 
Q 78.41227 87.45874 78.41227 94.45874 
L 78.41227 237.305794 
Q 78.41227 244.305794 85.41227 244.305794 
z
" style="fill:#ffffff;opacity:0.8;stroke:#cccccc;stroke-linejoin:miter;"/>
    </g>
    <g id="line2d_9">
     <path d="M 92.41227 113.70874 
L 162.41227 113.70874 
" style="fill:none;stroke:#000000;stroke-linecap:square;stroke-width:1.5;"/>
    </g>
    <g id="line2d_10"/>
    <g id="text_7">
     <!-- $x_1$ -->
     <g transform="translate(190.41227 125.95874)scale(0.35 -0.35)">
      <defs>
       <path d="M 3034 2624 
C 2829 2585 2752 2431 2752 2310 
C 2752 2156 2874 2105 2963 2105 
C 3155 2105 3290 2271 3290 2444 
C 3290 2694 2982 2816 2714 2816 
C 2323 2816 2106 2451 2048 2329 
C 1901 2790 1504 2816 1389 2816 
C 736 2816 390 1993 390 1849 
C 390 1823 416 1790 461 1790 
C 512 1790 525 1829 538 1855 
C 755 2572 1184 2687 1370 2687 
C 1658 2687 1715 2438 1715 2284 
C 1715 2143 1677 1993 1600 1678 
L 1382 778 
C 1286 390 1101 64 762 64 
C 730 64 570 64 435 126 
C 666 166 717 358 717 435 
C 717 563 621 640 499 640 
C 346 640 179 505 179 300 
C 179 57 480 -64 755 -64 
C 1062 -64 1280 153 1414 415 
C 1517 64 1837 -64 2074 -64 
C 2726 -64 3072 751 3072 896 
C 3072 929 3046 955 3008 955 
C 2950 955 2944 922 2925 870 
C 2752 300 2381 64 2093 64 
C 1869 64 1747 204 1747 467 
C 1747 607 1773 712 1875 1146 
L 2099 2039 
C 2195 2425 2413 2687 2707 2687 
C 2720 2687 2899 2687 3034 2624 
z
" id="CMMI12-78" transform="scale(0.015625)"/>
      </defs>
      <use transform="scale(0.996264)" xlink:href="#CMMI12-78"/>
      <use transform="translate(55.43406 -14.943915)scale(0.697382)" xlink:href="#CMR17-31"/>
     </g>
    </g>
    <g id="line2d_11">
     <path d="M 92.41227 162.491091 
L 162.41227 162.491091 
" style="fill:none;stroke:#000000;stroke-dasharray:5.55,2.4;stroke-dashoffset:0;stroke-width:1.5;"/>
    </g>
    <g id="line2d_12"/>
    <g id="text_8">
     <!-- $x_2$ -->
     <g transform="translate(190.41227 174.741091)scale(0.35 -0.35)">
      <use transform="scale(0.996264)" xlink:href="#CMMI12-78"/>
      <use transform="translate(55.43406 -14.943915)scale(0.697382)" xlink:href="#CMR17-32"/>
     </g>
    </g>
    <g id="line2d_13">
     <path d="M 92.41227 211.273442 
L 162.41227 211.273442 
" style="fill:none;stroke:#000000;stroke-dasharray:1.5,2.475;stroke-dashoffset:0;stroke-width:1.5;"/>
    </g>
    <g id="line2d_14"/>
    <g id="text_9">
     <!-- $u$ -->
     <g transform="translate(190.41227 223.523442)scale(0.35 -0.35)">
      <defs>
       <path d="M 2182 370 
C 2266 12 2573 -64 2726 -64 
C 2931 -64 3085 70 3187 287 
C 3296 517 3379 893 3379 913 
C 3379 944 3354 970 3315 970 
C 3258 970 3251 938 3226 842 
C 3110 402 2995 64 2739 64 
C 2547 64 2547 274 2547 357 
C 2547 504 2566 568 2630 836 
C 2675 1008 2720 1181 2758 1359 
L 3021 2400 
C 3066 2560 3066 2572 3066 2591 
C 3066 2687 2989 2752 2893 2752 
C 2707 2752 2662 2591 2624 2432 
C 2560 2183 2214 810 2170 587 
C 2163 587 1914 64 1446 64 
C 1114 64 1050 351 1050 587 
C 1050 951 1229 1462 1395 1890 
C 1472 2094 1504 2177 1504 2305 
C 1504 2579 1306 2816 998 2816 
C 410 2816 173 1890 173 1838 
C 173 1813 198 1781 243 1781 
C 301 1781 307 1807 333 1896 
C 486 2445 736 2687 979 2687 
C 1043 2687 1146 2681 1146 2477 
C 1146 2311 1075 2126 979 1883 
C 698 1123 666 881 666 689 
C 666 38 1158 -64 1421 -64 
C 1830 -64 2054 217 2182 370 
z
" id="CMMI12-75" transform="scale(0.015625)"/>
      </defs>
      <use transform="scale(0.996264)" xlink:href="#CMMI12-75"/>
     </g>
    </g>
   </g>
  </g>
 </g>
 <defs>
  <clipPath id="p3ded11a985">
   <rect height="251.005794" width="389.08773" x="60.91227" y="10.8"/>
  </clipPath>
 </defs>
</svg>
