<?xml version="1.0" encoding="utf-8" standalone="no"?>
<!DOCTYPE svg PUBLIC "-//W3C//DTD SVG 1.1//EN"
  "http://www.w3.org/Graphics/SVG/1.1/DTD/svg11.dtd">
<svg height="345.6pt" version="1.1" viewBox="0 0 460.8 345.6" width="460.8pt" xmlns="http://www.w3.org/2000/svg" xmlns:xlink="http://www.w3.org/1999/xlink">
 <metadata>
  <rdf:RDF xmlns:cc="http://creativecommons.org/ns#" xmlns:dc="http://purl.org/dc/elements/1.1/" xmlns:rdf="http://www.w3.org/1999/02/22-rdf-syntax-ns#">
   <cc:Work>
    <dc:type rdf:resource="http://purl.org/dc/dcmitype/StillImage"/>
    <dc:date>2021-04-13T08:28:57.731704</dc:date>
    <dc:format>image/svg+xml</dc:format>
    <dc:creator>
     <cc:Agent>
      <dc:title>Matplotlib v3.4.1, https://matplotlib.org/</dc:title>
     </cc:Agent>
    </dc:creator>
   </cc:Work>
  </rdf:RDF>
 </metadata>
 <defs>
  <style type="text/css">*{stroke-linecap:butt;stroke-linejoin:round;}</style>
 </defs>
 <g id="figure_1">
  <g id="patch_1">
   <path d="M 0 345.6 
L 460.8 345.6 
L 460.8 0 
L 0 0 
z
" style="fill:#ffffff;"/>
  </g>
  <g id="axes_1">
   <g id="patch_2">
    <path d="M 60.91227 296.802897 
L 450 296.802897 
L 450 10.8 
L 60.91227 10.8 
z
" style="fill:#ffffff;"/>
   </g>
   <g id="matplotlib.axis_1">
    <g id="xtick_1">
     <g id="line2d_1">
      <path clip-path="url(#p008289581a)" d="M 78.598076 296.802897 
L 78.598076 10.8 
" style="fill:none;stroke:#b0b0b0;stroke-linecap:square;stroke-width:0.8;"/>
     </g>
     <g id="line2d_2">
      <defs>
       <path d="M 0 0 
L 0 3.5 
" id="mce4c606f2c" style="stroke:#000000;stroke-width:0.8;"/>
      </defs>
      <g>
       <use style="stroke:#000000;stroke-width:0.8;" x="78.598076" xlink:href="#mce4c606f2c" y="296.802897"/>
      </g>
     </g>
     <g id="text_1">
      <!-- $\mathdefault{0}$ -->
      <g transform="translate(70.602242 328.017649)scale(0.35 -0.35)">
       <defs>
        <path d="M 2688 2038 
C 2688 2430 2682 3099 2413 3613 
C 2176 4063 1798 4224 1466 4224 
C 1158 4224 768 4082 525 3620 
C 269 3137 243 2539 243 2038 
C 243 1671 250 1112 448 623 
C 723 -39 1216 -128 1466 -128 
C 1760 -128 2208 -7 2470 604 
C 2662 1048 2688 1568 2688 2038 
z
M 1466 -26 
C 1056 -26 813 328 723 816 
C 653 1196 653 1749 653 2109 
C 653 2604 653 3015 736 3407 
C 858 3954 1216 4121 1466 4121 
C 1728 4121 2067 3947 2189 3420 
C 2272 3054 2278 2623 2278 2109 
C 2278 1691 2278 1176 2202 797 
C 2067 96 1690 -26 1466 -26 
z
" id="CMR17-30" transform="scale(0.015625)"/>
       </defs>
       <use transform="scale(0.996264)" xlink:href="#CMR17-30"/>
      </g>
     </g>
    </g>
    <g id="xtick_2">
     <g id="line2d_3">
      <path clip-path="url(#p008289581a)" d="M 220.084523 296.802897 
L 220.084523 10.8 
" style="fill:none;stroke:#b0b0b0;stroke-linecap:square;stroke-width:0.8;"/>
     </g>
     <g id="line2d_4">
      <g>
       <use style="stroke:#000000;stroke-width:0.8;" x="220.084523" xlink:href="#mce4c606f2c" y="296.802897"/>
      </g>
     </g>
     <g id="text_2">
      <!-- $\mathdefault{2}$ -->
      <g transform="translate(212.08869 328.017649)scale(0.35 -0.35)">
       <defs>
        <path d="M 2669 990 
L 2554 990 
C 2490 537 2438 460 2413 422 
C 2381 371 1920 371 1830 371 
L 602 371 
C 832 620 1280 1073 1824 1596 
C 2214 1966 2669 2400 2669 3033 
C 2669 3788 2067 4224 1395 4224 
C 691 4224 262 3603 262 3027 
C 262 2777 448 2745 525 2745 
C 589 2745 781 2783 781 3007 
C 781 3206 614 3264 525 3264 
C 486 3264 448 3257 422 3244 
C 544 3788 915 4057 1306 4057 
C 1862 4057 2227 3616 2227 3033 
C 2227 2477 1901 1998 1536 1583 
L 262 147 
L 262 0 
L 2515 0 
L 2669 990 
z
" id="CMR17-32" transform="scale(0.015625)"/>
       </defs>
       <use transform="scale(0.996264)" xlink:href="#CMR17-32"/>
      </g>
     </g>
    </g>
    <g id="xtick_3">
     <g id="line2d_5">
      <path clip-path="url(#p008289581a)" d="M 361.57097 296.802897 
L 361.57097 10.8 
" style="fill:none;stroke:#b0b0b0;stroke-linecap:square;stroke-width:0.8;"/>
     </g>
     <g id="line2d_6">
      <g>
       <use style="stroke:#000000;stroke-width:0.8;" x="361.57097" xlink:href="#mce4c606f2c" y="296.802897"/>
      </g>
     </g>
     <g id="text_3">
      <!-- $\mathdefault{4}$ -->
      <g transform="translate(353.575137 328.017649)scale(0.35 -0.35)">
       <defs>
        <path d="M 2150 4147 
C 2150 4281 2144 4288 2029 4288 
L 128 1254 
L 128 1088 
L 1779 1088 
L 1779 460 
C 1779 230 1766 166 1318 166 
L 1197 166 
L 1197 0 
C 1402 12 1747 12 1965 12 
C 2182 12 2528 12 2733 0 
L 2733 166 
L 2611 166 
C 2163 166 2150 230 2150 460 
L 2150 1088 
L 2803 1088 
L 2803 1254 
L 2150 1254 
L 2150 4147 
z
M 1798 3723 
L 1798 1254 
L 256 1254 
L 1798 3723 
z
" id="CMR17-34" transform="scale(0.015625)"/>
       </defs>
       <use transform="scale(0.996264)" xlink:href="#CMR17-34"/>
      </g>
     </g>
    </g>
   </g>
   <g id="matplotlib.axis_2">
    <g id="ytick_1">
     <g id="line2d_7">
      <path clip-path="url(#p008289581a)" d="M 60.91227 283.496562 
L 450 283.496562 
" style="fill:none;stroke:#b0b0b0;stroke-linecap:square;stroke-width:0.8;"/>
     </g>
     <g id="line2d_8">
      <defs>
       <path d="M 0 0 
L -3.5 0 
" id="m23812905fb" style="stroke:#000000;stroke-width:0.8;"/>
      </defs>
      <g>
       <use style="stroke:#000000;stroke-width:0.8;" x="60.91227" xlink:href="#m23812905fb" y="283.496562"/>
      </g>
     </g>
     <g id="text_4">
      <!-- $\mathdefault{−1}$ -->
      <g transform="translate(10.8 295.603938)scale(0.35 -0.35)">
       <defs>
        <path d="M 4218 1472 
C 4326 1472 4442 1472 4442 1600 
C 4442 1728 4326 1728 4218 1728 
L 755 1728 
C 646 1728 531 1728 531 1600 
C 531 1472 646 1472 755 1472 
L 4218 1472 
z
" id="CMSY10-0" transform="scale(0.015625)"/>
        <path d="M 1702 4083 
C 1702 4217 1696 4224 1606 4224 
C 1357 3927 979 3833 621 3820 
C 602 3820 570 3820 563 3808 
C 557 3795 557 3782 557 3648 
C 755 3648 1088 3686 1344 3839 
L 1344 467 
C 1344 243 1331 166 781 166 
L 589 166 
L 589 0 
C 896 6 1216 12 1523 12 
C 1830 12 2150 6 2458 0 
L 2458 166 
L 2266 166 
C 1715 166 1702 236 1702 467 
L 1702 4083 
z
" id="CMR17-31" transform="scale(0.015625)"/>
       </defs>
       <use transform="scale(0.996264)" xlink:href="#CMSY10-0"/>
       <use transform="translate(77.487468 0)scale(0.996264)" xlink:href="#CMR17-31"/>
      </g>
     </g>
    </g>
    <g id="ytick_2">
     <g id="line2d_9">
      <path clip-path="url(#p008289581a)" d="M 60.91227 153.699343 
L 450 153.699343 
" style="fill:none;stroke:#b0b0b0;stroke-linecap:square;stroke-width:0.8;"/>
     </g>
     <g id="line2d_10">
      <g>
       <use style="stroke:#000000;stroke-width:0.8;" x="60.91227" xlink:href="#m23812905fb" y="153.699343"/>
      </g>
     </g>
     <g id="text_5">
      <!-- $\mathdefault{0}$ -->
      <g transform="translate(37.920603 165.806719)scale(0.35 -0.35)">
       <use transform="scale(0.996264)" xlink:href="#CMR17-30"/>
      </g>
     </g>
    </g>
    <g id="ytick_3">
     <g id="line2d_11">
      <path clip-path="url(#p008289581a)" d="M 60.91227 23.902125 
L 450 23.902125 
" style="fill:none;stroke:#b0b0b0;stroke-linecap:square;stroke-width:0.8;"/>
     </g>
     <g id="line2d_12">
      <g>
       <use style="stroke:#000000;stroke-width:0.8;" x="60.91227" xlink:href="#m23812905fb" y="23.902125"/>
      </g>
     </g>
     <g id="text_6">
      <!-- $\mathdefault{1}$ -->
      <g transform="translate(37.920603 36.009501)scale(0.35 -0.35)">
       <use transform="scale(0.996264)" xlink:href="#CMR17-31"/>
      </g>
     </g>
    </g>
   </g>
   <g id="line2d_13">
    <path clip-path="url(#p008289581a)" d="M 78.598076 23.902125 
L 81.498548 24.008545 
L 84.39902 24.332954 
L 87.370236 24.890741 
L 90.341451 25.675741 
L 93.38341 26.713386 
L 96.425368 27.98584 
L 99.53807 29.528506 
L 102.721515 31.354894 
L 105.975703 33.477951 
L 109.371378 35.964522 
L 112.837796 38.782724 
L 116.445701 42.008983 
L 120.124348 45.59766 
L 123.944482 49.633747 
L 127.976846 54.223188 
L 132.150696 59.314068 
L 136.536776 65.017738 
L 141.205829 71.463717 
L 146.157855 78.691492 
L 151.392853 86.731563 
L 157.052311 95.835165 
L 163.348458 106.396082 
L 170.493523 118.830996 
L 179.19494 134.443435 
L 194.263247 162.033817 
L 206.431081 184.101012 
L 214.495809 198.274073 
L 221.287158 209.768995 
L 227.300332 219.519979 
L 232.818303 228.052126 
L 237.911816 235.528364 
L 242.722355 242.201031 
L 247.249921 248.108431 
L 251.565258 253.379786 
L 255.668365 258.048575 
L 259.629985 262.22379 
L 263.450119 265.92801 
L 267.128767 269.186107 
L 270.665928 272.02472 
L 274.061603 274.471754 
L 277.386534 276.598378 
L 280.640723 278.417041 
L 283.824168 279.940954 
L 286.93687 281.183943 
L 289.978828 282.160323 
L 292.950044 282.884776 
L 295.921259 283.381405 
L 298.892474 283.649325 
L 301.792946 283.689796 
L 304.693419 283.511781 
L 307.593891 283.11557 
L 310.565106 282.484141 
L 313.536322 281.625538 
L 316.57828 280.512714 
L 319.690982 279.131291 
L 322.803684 277.507005 
L 325.987129 275.597867 
L 329.31206 273.340348 
L 332.707735 270.761988 
L 336.244896 267.789405 
L 339.852801 264.463487 
L 343.602192 260.701881 
L 347.493069 256.480534 
L 351.525433 251.777607 
L 355.770026 246.483002 
L 360.226849 240.564289 
L 364.966645 233.891761 
L 369.989414 226.428334 
L 375.365899 218.033634 
L 381.237587 208.442446 
L 387.745963 197.372749 
L 395.244745 184.165311 
L 404.865823 166.737909 
L 431.606762 118.038603 
L 432.314194 116.788827 
L 432.314194 116.788827 
" style="fill:none;stroke:#1f77b4;stroke-linecap:square;stroke-width:1.5;"/>
   </g>
   <g id="line2d_14">
    <path clip-path="url(#p008289581a)" d="M 78.598076 153.699343 
L 94.232328 125.243956 
L 102.509286 110.651206 
L 109.371378 98.989564 
L 115.455295 89.076263 
L 121.04401 80.388352 
L 126.208265 72.765032 
L 131.018805 66.050396 
L 135.617114 60.009889 
L 139.932451 54.700227 
L 144.106301 49.914508 
L 148.067922 45.705722 
L 151.888056 41.967553 
L 155.566703 38.67539 
L 159.103864 35.80284 
L 162.570282 33.273465 
L 165.895214 31.118774 
L 169.149402 29.271957 
L 172.332847 27.719908 
L 175.445549 26.448893 
L 178.487508 25.444684 
L 181.458723 24.692679 
L 184.429938 24.168182 
L 187.401154 23.872127 
L 190.301626 23.80398 
L 193.202098 23.954158 
L 196.10257 24.322418 
L 199.073786 24.925145 
L 202.045001 25.755026 
L 205.08696 26.838477 
L 208.128918 28.156509 
L 211.24162 29.745486 
L 214.425065 31.618805 
L 217.679254 33.789285 
L 221.074928 36.32464 
L 224.541346 39.191788 
L 228.149251 42.467948 
L 231.898642 46.179132 
L 235.789519 50.34969 
L 239.821883 55.001794 
L 244.066476 60.245075 
L 248.523299 66.112494 
L 253.192352 72.632043 
L 258.144378 79.932286 
L 263.450119 88.154519 
L 269.251064 97.564894 
L 275.617954 108.326055 
L 282.975249 121.214036 
L 292.101125 137.673876 
L 322.520711 192.918175 
L 329.73652 205.33951 
L 336.032667 215.744563 
L 341.762868 224.790292 
L 346.997866 232.648872 
L 351.949892 239.686146 
L 356.618945 245.936553 
L 361.005025 251.443125 
L 365.178875 256.335073 
L 369.211239 260.722414 
L 373.031373 264.558621 
L 376.71002 267.947602 
L 380.317925 270.971622 
L 383.784343 273.590026 
L 387.180017 275.876099 
L 390.434206 277.802983 
L 393.617651 279.434027 
L 396.730353 280.782765 
L 399.772311 281.863247 
L 402.81427 282.706833 
L 405.785485 283.300596 
L 408.756701 283.665797 
L 411.657173 283.80121 
L 414.557645 283.717954 
L 417.458117 283.416159 
L 420.429333 282.880928 
L 423.400548 282.117827 
L 426.442507 281.101881 
L 429.484465 279.850357 
L 432.314194 278.476662 
L 432.314194 278.476662 
" style="fill:none;stroke:#ff7f0e;stroke-linecap:square;stroke-width:1.5;"/>
   </g>
   <g id="patch_3">
    <path d="M 60.91227 296.802897 
L 60.91227 10.8 
" style="fill:none;stroke:#000000;stroke-linecap:square;stroke-linejoin:miter;stroke-width:0.8;"/>
   </g>
   <g id="patch_4">
    <path d="M 450 296.802897 
L 450 10.8 
" style="fill:none;stroke:#000000;stroke-linecap:square;stroke-linejoin:miter;stroke-width:0.8;"/>
   </g>
   <g id="patch_5">
    <path d="M 60.91227 296.802897 
L 450 296.802897 
" style="fill:none;stroke:#000000;stroke-linecap:square;stroke-linejoin:miter;stroke-width:0.8;"/>
   </g>
   <g id="patch_6">
    <path d="M 60.91227 10.8 
L 450 10.8 
" style="fill:none;stroke:#000000;stroke-linecap:square;stroke-linejoin:miter;stroke-width:0.8;"/>
   </g>
  </g>
 </g>
 <defs>
  <clipPath id="p008289581a">
   <rect height="286.002897" width="389.08773" x="60.91227" y="10.8"/>
  </clipPath>
 </defs>
</svg>
