<?xml version="1.0" encoding="utf-8" standalone="no"?>
<!DOCTYPE svg PUBLIC "-//W3C//DTD SVG 1.1//EN"
  "http://www.w3.org/Graphics/SVG/1.1/DTD/svg11.dtd">
<svg height="345.6pt" version="1.1" viewBox="0 0 460.8 345.6" width="460.8pt" xmlns="http://www.w3.org/2000/svg" xmlns:xlink="http://www.w3.org/1999/xlink">
 <metadata>
  <rdf:RDF xmlns:cc="http://creativecommons.org/ns#" xmlns:dc="http://purl.org/dc/elements/1.1/" xmlns:rdf="http://www.w3.org/1999/02/22-rdf-syntax-ns#">
   <cc:Work>
    <dc:type rdf:resource="http://purl.org/dc/dcmitype/StillImage"/>
    <dc:date>2021-04-13T08:29:39.856702</dc:date>
    <dc:format>image/svg+xml</dc:format>
    <dc:creator>
     <cc:Agent>
      <dc:title>Matplotlib v3.4.1, https://matplotlib.org/</dc:title>
     </cc:Agent>
    </dc:creator>
   </cc:Work>
  </rdf:RDF>
 </metadata>
 <defs>
  <style type="text/css">*{stroke-linecap:butt;stroke-linejoin:round;}</style>
 </defs>
 <g id="figure_1">
  <g id="patch_1">
   <path d="M 0 345.6 
L 460.8 345.6 
L 460.8 0 
L 0 0 
z
" style="fill:#ffffff;"/>
  </g>
  <g id="axes_1">
   <g id="patch_2">
    <path d="M 59.267346 261.805794 
L 450 261.805794 
L 450 10.811376 
L 59.267346 10.811376 
z
" style="fill:#ffffff;"/>
   </g>
   <g id="matplotlib.axis_1">
    <g id="xtick_1">
     <g id="line2d_1">
      <path clip-path="url(#p9b4c9d2c25)" d="M 77.027921 261.805794 
L 77.027921 10.811376 
" style="fill:none;stroke:#b0b0b0;stroke-linecap:square;stroke-width:0.8;"/>
     </g>
     <g id="line2d_2">
      <defs>
       <path d="M 0 0 
L 0 3.5 
" id="m8295fce601" style="stroke:#000000;stroke-width:0.8;"/>
      </defs>
      <g>
       <use style="stroke:#000000;stroke-width:0.8;" x="77.027921" xlink:href="#m8295fce601" y="261.805794"/>
      </g>
     </g>
     <g id="text_1">
      <!-- $\mathdefault{0}$ -->
      <g transform="translate(69.032088 293.020546)scale(0.35 -0.35)">
       <defs>
        <path d="M 2688 2038 
C 2688 2430 2682 3099 2413 3613 
C 2176 4063 1798 4224 1466 4224 
C 1158 4224 768 4082 525 3620 
C 269 3137 243 2539 243 2038 
C 243 1671 250 1112 448 623 
C 723 -39 1216 -128 1466 -128 
C 1760 -128 2208 -7 2470 604 
C 2662 1048 2688 1568 2688 2038 
z
M 1466 -26 
C 1056 -26 813 328 723 816 
C 653 1196 653 1749 653 2109 
C 653 2604 653 3015 736 3407 
C 858 3954 1216 4121 1466 4121 
C 1728 4121 2067 3947 2189 3420 
C 2272 3054 2278 2623 2278 2109 
C 2278 1691 2278 1176 2202 797 
C 2067 96 1690 -26 1466 -26 
z
" id="CMR17-30" transform="scale(0.015625)"/>
       </defs>
       <use transform="scale(0.996264)" xlink:href="#CMR17-30"/>
      </g>
     </g>
    </g>
    <g id="xtick_2">
     <g id="line2d_3">
      <path clip-path="url(#p9b4c9d2c25)" d="M 254.633673 261.805794 
L 254.633673 10.811376 
" style="fill:none;stroke:#b0b0b0;stroke-linecap:square;stroke-width:0.8;"/>
     </g>
     <g id="line2d_4">
      <g>
       <use style="stroke:#000000;stroke-width:0.8;" x="254.633673" xlink:href="#m8295fce601" y="261.805794"/>
      </g>
     </g>
     <g id="text_2">
      <!-- $\mathdefault{10}$ -->
      <g transform="translate(238.642006 293.020546)scale(0.35 -0.35)">
       <defs>
        <path d="M 1702 4083 
C 1702 4217 1696 4224 1606 4224 
C 1357 3927 979 3833 621 3820 
C 602 3820 570 3820 563 3808 
C 557 3795 557 3782 557 3648 
C 755 3648 1088 3686 1344 3839 
L 1344 467 
C 1344 243 1331 166 781 166 
L 589 166 
L 589 0 
C 896 6 1216 12 1523 12 
C 1830 12 2150 6 2458 0 
L 2458 166 
L 2266 166 
C 1715 166 1702 236 1702 467 
L 1702 4083 
z
" id="CMR17-31" transform="scale(0.015625)"/>
       </defs>
       <use transform="scale(0.996264)" xlink:href="#CMR17-31"/>
       <use transform="translate(45.690477 0)scale(0.996264)" xlink:href="#CMR17-30"/>
      </g>
     </g>
    </g>
    <g id="xtick_3">
     <g id="line2d_5">
      <path clip-path="url(#p9b4c9d2c25)" d="M 432.239425 261.805794 
L 432.239425 10.811376 
" style="fill:none;stroke:#b0b0b0;stroke-linecap:square;stroke-width:0.8;"/>
     </g>
     <g id="line2d_6">
      <g>
       <use style="stroke:#000000;stroke-width:0.8;" x="432.239425" xlink:href="#m8295fce601" y="261.805794"/>
      </g>
     </g>
     <g id="text_3">
      <!-- $\mathdefault{20}$ -->
      <g transform="translate(416.247758 293.020546)scale(0.35 -0.35)">
       <defs>
        <path d="M 2669 990 
L 2554 990 
C 2490 537 2438 460 2413 422 
C 2381 371 1920 371 1830 371 
L 602 371 
C 832 620 1280 1073 1824 1596 
C 2214 1966 2669 2400 2669 3033 
C 2669 3788 2067 4224 1395 4224 
C 691 4224 262 3603 262 3027 
C 262 2777 448 2745 525 2745 
C 589 2745 781 2783 781 3007 
C 781 3206 614 3264 525 3264 
C 486 3264 448 3257 422 3244 
C 544 3788 915 4057 1306 4057 
C 1862 4057 2227 3616 2227 3033 
C 2227 2477 1901 1998 1536 1583 
L 262 147 
L 262 0 
L 2515 0 
L 2669 990 
z
" id="CMR17-32" transform="scale(0.015625)"/>
       </defs>
       <use transform="scale(0.996264)" xlink:href="#CMR17-32"/>
       <use transform="translate(45.690477 0)scale(0.996264)" xlink:href="#CMR17-30"/>
      </g>
     </g>
    </g>
    <g id="text_4">
     <!-- $t$ -->
     <g transform="translate(248.469069 328.017649)scale(0.35 -0.35)">
      <defs>
       <path d="M 1286 2566 
L 1875 2566 
C 1997 2566 2061 2566 2061 2681 
C 2061 2752 2022 2752 1894 2752 
L 1331 2752 
L 1568 3664 
C 1594 3752 1594 3764 1594 3808 
C 1594 3910 1510 3968 1427 3968 
C 1376 3968 1229 3948 1178 3746 
L 928 2752 
L 326 2752 
C 198 2752 141 2752 141 2630 
C 141 2566 186 2566 307 2566 
L 877 2566 
L 454 881 
C 403 657 384 593 384 510 
C 384 210 595 -64 954 -64 
C 1600 -64 1946 868 1946 913 
C 1946 951 1920 970 1882 970 
C 1869 970 1843 970 1830 944 
C 1824 938 1818 932 1773 830 
C 1638 510 1344 64 973 64 
C 781 64 768 223 768 364 
C 768 370 768 491 787 568 
L 1286 2566 
z
" id="CMMI12-74" transform="scale(0.015625)"/>
      </defs>
      <use transform="scale(0.996264)" xlink:href="#CMMI12-74"/>
     </g>
    </g>
   </g>
   <g id="matplotlib.axis_2">
    <g id="ytick_1">
     <g id="line2d_7">
      <path clip-path="url(#p9b4c9d2c25)" d="M 59.267346 207.06262 
L 450 207.06262 
" style="fill:none;stroke:#b0b0b0;stroke-linecap:square;stroke-width:0.8;"/>
     </g>
     <g id="line2d_8">
      <defs>
       <path d="M 0 0 
L -3.5 0 
" id="mebb4a9b3b7" style="stroke:#000000;stroke-width:0.8;"/>
      </defs>
      <g>
       <use style="stroke:#000000;stroke-width:0.8;" x="59.267346" xlink:href="#mebb4a9b3b7" y="207.06262"/>
      </g>
     </g>
     <g id="text_5">
      <!-- $\mathdefault{0.0}$ -->
      <g transform="translate(10.8 219.169996)scale(0.35 -0.35)">
       <defs>
        <path d="M 1178 307 
C 1178 492 1024 620 870 620 
C 685 620 557 467 557 313 
C 557 128 710 0 864 0 
C 1050 0 1178 153 1178 307 
z
" id="CMMI12-3a" transform="scale(0.015625)"/>
       </defs>
       <use transform="scale(0.996264)" xlink:href="#CMR17-30"/>
       <use transform="translate(45.690477 0)scale(0.996264)" xlink:href="#CMMI12-3a"/>
       <use transform="translate(72.787654 0)scale(0.996264)" xlink:href="#CMR17-30"/>
      </g>
     </g>
    </g>
    <g id="ytick_2">
     <g id="line2d_9">
      <path clip-path="url(#p9b4c9d2c25)" d="M 59.267346 114.641417 
L 450 114.641417 
" style="fill:none;stroke:#b0b0b0;stroke-linecap:square;stroke-width:0.8;"/>
     </g>
     <g id="line2d_10">
      <g>
       <use style="stroke:#000000;stroke-width:0.8;" x="59.267346" xlink:href="#mebb4a9b3b7" y="114.641417"/>
      </g>
     </g>
     <g id="text_6">
      <!-- $\mathdefault{0.5}$ -->
      <g transform="translate(10.8 126.748793)scale(0.35 -0.35)">
       <defs>
        <path d="M 730 3750 
C 794 3724 1056 3641 1325 3641 
C 1920 3641 2246 3961 2432 4140 
C 2432 4191 2432 4224 2394 4224 
C 2387 4224 2374 4224 2323 4198 
C 2099 4102 1837 4032 1517 4032 
C 1325 4032 1037 4055 723 4191 
C 653 4224 640 4224 634 4224 
C 602 4224 595 4217 595 4090 
L 595 2231 
C 595 2113 595 2080 659 2080 
C 691 2080 704 2093 736 2139 
C 941 2435 1222 2560 1542 2560 
C 1766 2560 2246 2415 2246 1293 
C 2246 1087 2246 716 2054 422 
C 1894 159 1645 25 1370 25 
C 947 25 518 319 403 812 
C 429 806 480 793 506 793 
C 589 793 749 838 749 1036 
C 749 1209 627 1280 506 1280 
C 358 1280 262 1190 262 1011 
C 262 454 704 -128 1382 -128 
C 2042 -128 2669 441 2669 1267 
C 2669 2054 2170 2662 1549 2662 
C 1222 2662 947 2540 730 2304 
L 730 3750 
z
" id="CMR17-35" transform="scale(0.015625)"/>
       </defs>
       <use transform="scale(0.996264)" xlink:href="#CMR17-30"/>
       <use transform="translate(45.690477 0)scale(0.996264)" xlink:href="#CMMI12-3a"/>
       <use transform="translate(72.787654 0)scale(0.996264)" xlink:href="#CMR17-35"/>
      </g>
     </g>
    </g>
    <g id="ytick_3">
     <g id="line2d_11">
      <path clip-path="url(#p9b4c9d2c25)" d="M 59.267346 22.220213 
L 450 22.220213 
" style="fill:none;stroke:#b0b0b0;stroke-linecap:square;stroke-width:0.8;"/>
     </g>
     <g id="line2d_12">
      <g>
       <use style="stroke:#000000;stroke-width:0.8;" x="59.267346" xlink:href="#mebb4a9b3b7" y="22.220213"/>
      </g>
     </g>
     <g id="text_7">
      <!-- $\mathdefault{1.0}$ -->
      <g transform="translate(10.8 34.327589)scale(0.35 -0.35)">
       <use transform="scale(0.996264)" xlink:href="#CMR17-31"/>
       <use transform="translate(45.690477 0)scale(0.996264)" xlink:href="#CMMI12-3a"/>
       <use transform="translate(72.787654 0)scale(0.996264)" xlink:href="#CMR17-30"/>
      </g>
     </g>
    </g>
   </g>
   <g id="line2d_13">
    <path clip-path="url(#p9b4c9d2c25)" d="M 77.027921 22.220213 
L 78.805757 32.124003 
L 80.939159 45.491332 
L 83.428128 62.612007 
L 86.983799 88.775105 
L 94.450708 144.108929 
L 97.650811 165.867915 
L 100.139781 181.387728 
L 102.62875 195.465035 
L 104.762153 206.280754 
L 106.895555 215.885552 
L 108.67339 222.945098 
L 110.451226 229.143101 
L 112.229061 234.487831 
L 113.651329 238.160828 
L 115.073598 241.311756 
L 116.495866 243.956536 
L 117.918134 246.113758 
L 119.340403 247.804338 
L 120.407104 248.779748 
L 121.473805 249.515802 
L 122.540506 250.023232 
L 123.607207 250.313147 
L 124.673909 250.396957 
L 125.74061 250.286309 
L 126.807311 249.993023 
L 128.229579 249.338499 
L 129.651848 248.408893 
L 131.074116 247.23253 
L 132.851951 245.457758 
L 134.985354 242.952372 
L 137.474323 239.624121 
L 140.674427 234.908286 
L 152.763707 216.559768 
L 155.608244 212.808681 
L 158.45278 209.442936 
L 160.94175 206.84784 
L 163.430719 204.596997 
L 165.564122 202.946829 
L 167.697524 201.553279 
L 169.830927 200.41095 
L 171.964329 199.510792 
L 174.097731 198.840668 
L 176.231134 198.385915 
L 178.720103 198.10526 
L 181.209073 198.066068 
L 183.698042 198.237659 
L 186.542579 198.651471 
L 189.742683 199.338604 
L 193.65392 200.406621 
L 199.698561 202.315973 
L 208.23217 204.993833 
L 213.210109 206.322131 
L 217.832481 207.321916 
L 222.099286 208.02451 
L 226.366091 208.515739 
L 230.988463 208.825666 
L 235.966402 208.935119 
L 241.655475 208.835719 
L 249.122383 208.466376 
L 276.145481 206.917185 
L 285.745792 206.706696 
L 297.123938 206.69175 
L 317.391261 206.94181 
L 340.147553 207.132935 
L 367.881785 207.102936 
L 422.639114 207.053607 
L 432.239425 207.059196 
L 432.239425 207.059196 
" style="fill:none;stroke:#1f77b4;stroke-linecap:square;stroke-width:1.5;"/>
   </g>
   <g id="line2d_14">
    <path clip-path="url(#p9b4c9d2c25)" d="M 77.027921 207.06262 
L 79.161324 186.203849 
L 80.939159 170.89478 
L 82.716994 157.474567 
L 84.49483 145.923074 
L 85.917098 138.000784 
L 87.339366 131.219834 
L 88.761634 125.544591 
L 90.183903 120.933653 
L 91.250604 118.146148 
L 92.317305 115.91011 
L 93.384006 114.203173 
L 94.450708 113.001964 
L 95.161842 112.470184 
L 95.872976 112.145064 
L 96.58411 112.019131 
L 97.295244 112.084815 
L 98.006378 112.334465 
L 98.717512 112.760371 
L 99.784214 113.71274 
L 100.850915 115.017964 
L 101.917616 116.649767 
L 103.339884 119.2883 
L 104.762153 122.399492 
L 106.539988 126.861392 
L 108.67339 132.905346 
L 111.16236 140.669854 
L 114.718031 152.569461 
L 122.540506 178.975699 
L 125.74061 188.846507 
L 128.229579 195.874711 
L 130.718549 202.239636 
L 132.851951 207.122152 
L 134.985354 211.451025 
L 137.118756 215.215461 
L 138.896591 217.921032 
L 140.674427 220.239607 
L 142.452262 222.180444 
L 144.230098 223.756415 
L 146.007933 224.983511 
L 147.430201 225.726436 
L 148.852469 226.268507 
L 150.630305 226.680895 
L 152.40814 226.820423 
L 154.185975 226.711422 
L 155.963811 226.378863 
L 158.097213 225.720252 
L 160.230616 224.819579 
L 162.719585 223.519719 
L 165.564122 221.785274 
L 169.47536 219.126404 
L 180.142372 211.722001 
L 183.698042 209.573347 
L 186.898146 207.874656 
L 190.09825 206.425992 
L 193.298353 205.239745 
L 196.498457 204.316552 
L 199.698561 203.647206 
L 202.898664 203.214627 
L 206.098768 202.995785 
L 209.654439 202.970203 
L 213.565676 203.15953 
L 218.188048 203.603175 
L 224.588256 204.455141 
L 240.233207 206.626582 
L 246.988981 207.285475 
L 253.389188 207.686839 
L 260.144963 207.888332 
L 267.967438 207.892773 
L 278.63445 207.65664 
L 305.657548 206.973268 
L 320.591365 206.885305 
L 345.836627 207.010829 
L 378.904364 207.098801 
L 432.239425 207.054959 
L 432.239425 207.054959 
" style="fill:none;stroke:#ff7f0e;stroke-linecap:square;stroke-width:1.5;"/>
   </g>
   <g id="patch_3">
    <path d="M 59.267346 261.805794 
L 59.267346 10.811376 
" style="fill:none;stroke:#000000;stroke-linecap:square;stroke-linejoin:miter;stroke-width:0.8;"/>
   </g>
   <g id="patch_4">
    <path d="M 450 261.805794 
L 450 10.811376 
" style="fill:none;stroke:#000000;stroke-linecap:square;stroke-linejoin:miter;stroke-width:0.8;"/>
   </g>
   <g id="patch_5">
    <path d="M 59.267346 261.805794 
L 450 261.805794 
" style="fill:none;stroke:#000000;stroke-linecap:square;stroke-linejoin:miter;stroke-width:0.8;"/>
   </g>
   <g id="patch_6">
    <path d="M 59.267346 10.811376 
L 450 10.811376 
" style="fill:none;stroke:#000000;stroke-linecap:square;stroke-linejoin:miter;stroke-width:0.8;"/>
   </g>
   <g id="legend_1">
    <g id="patch_7">
     <path d="M 194.03056 143.428729 
L 425.5 143.428729 
Q 432.5 143.428729 432.5 136.428729 
L 432.5 35.311376 
Q 432.5 28.311376 425.5 28.311376 
L 194.03056 28.311376 
Q 187.03056 28.311376 187.03056 35.311376 
L 187.03056 136.428729 
Q 187.03056 143.428729 194.03056 143.428729 
z
" style="fill:#ffffff;opacity:0.8;stroke:#cccccc;stroke-linejoin:miter;"/>
    </g>
    <g id="line2d_15">
     <path d="M 201.03056 56.181915 
L 271.03056 56.181915 
" style="fill:none;stroke:#1f77b4;stroke-linecap:square;stroke-width:1.5;"/>
    </g>
    <g id="line2d_16"/>
    <g id="text_8">
     <!-- $\mathrm{Re}(x(t))$ -->
     <g transform="translate(299.03056 68.431915)scale(0.35 -0.35)">
      <defs>
       <path d="M 2509 2156 
C 3117 2278 3629 2689 3629 3203 
C 3629 3806 2950 4352 2054 4352 
L 333 4352 
L 333 4185 
C 774 4185 845 4185 845 3896 
L 845 428 
C 845 140 774 140 333 140 
L 333 -26 
C 518 -13 851 -13 1050 -13 
C 1248 -13 1581 -13 1766 -26 
L 1766 140 
C 1325 140 1254 140 1254 428 
L 1254 2112 
L 2003 2112 
C 2368 2112 2573 1964 2662 1881 
C 2918 1632 2918 1459 2918 1024 
C 2918 595 2918 377 3110 160 
C 3354 -103 3680 -128 3821 -128 
C 4294 -128 4365 403 4365 512 
C 4365 550 4365 595 4307 595 
C 4256 595 4250 556 4250 531 
C 4218 115 4032 -26 3834 -26 
C 3482 -26 3443 377 3405 768 
C 3386 902 3373 998 3360 1139 
C 3322 1459 3270 1926 2509 2156 
z
M 1984 2214 
L 1254 2214 
L 1254 3935 
C 1254 4153 1267 4185 1523 4185 
L 1990 4185 
C 2522 4185 3142 3999 3142 3203 
C 3142 2374 2464 2214 1984 2214 
z
" id="CMR17-52" transform="scale(0.015625)"/>
       <path d="M 2438 1503 
C 2464 1529 2464 1542 2464 1606 
C 2464 2251 2118 2816 1389 2816 
C 710 2816 173 2175 173 1394 
C 173 554 781 -64 1459 -64 
C 2176 -64 2458 619 2458 755 
C 2458 800 2419 800 2406 800 
C 2362 800 2355 787 2330 709 
C 2189 270 1837 51 1504 51 
C 1229 51 954 206 781 490 
C 582 819 582 1200 582 1503 
L 2438 1503 
z
M 589 1600 
C 634 2511 1126 2713 1382 2713 
C 1818 2713 2112 2308 2118 1600 
L 589 1600 
z
" id="CMR17-65" transform="scale(0.015625)"/>
       <path d="M 1958 -1562 
C 1958 -1556 1958 -1543 1939 -1524 
C 1645 -1223 858 -403 858 1596 
C 858 3595 1632 4408 1946 4729 
C 1946 4735 1958 4748 1958 4767 
C 1958 4787 1939 4800 1914 4800 
C 1843 4800 1299 4325 986 3620 
C 666 2909 576 2218 576 1603 
C 576 1141 621 360 1005 -467 
C 1312 -1133 1837 -1600 1914 -1600 
C 1946 -1600 1958 -1588 1958 -1562 
z
" id="CMR17-28" transform="scale(0.015625)"/>
       <path d="M 3034 2624 
C 2829 2585 2752 2431 2752 2310 
C 2752 2156 2874 2105 2963 2105 
C 3155 2105 3290 2271 3290 2444 
C 3290 2694 2982 2816 2714 2816 
C 2323 2816 2106 2451 2048 2329 
C 1901 2790 1504 2816 1389 2816 
C 736 2816 390 1993 390 1849 
C 390 1823 416 1790 461 1790 
C 512 1790 525 1829 538 1855 
C 755 2572 1184 2687 1370 2687 
C 1658 2687 1715 2438 1715 2284 
C 1715 2143 1677 1993 1600 1678 
L 1382 778 
C 1286 390 1101 64 762 64 
C 730 64 570 64 435 126 
C 666 166 717 358 717 435 
C 717 563 621 640 499 640 
C 346 640 179 505 179 300 
C 179 57 480 -64 755 -64 
C 1062 -64 1280 153 1414 415 
C 1517 64 1837 -64 2074 -64 
C 2726 -64 3072 751 3072 896 
C 3072 929 3046 955 3008 955 
C 2950 955 2944 922 2925 870 
C 2752 300 2381 64 2093 64 
C 1869 64 1747 204 1747 467 
C 1747 607 1773 712 1875 1146 
L 2099 2039 
C 2195 2425 2413 2687 2707 2687 
C 2720 2687 2899 2687 3034 2624 
z
" id="CMMI12-78" transform="scale(0.015625)"/>
       <path d="M 1683 1596 
C 1683 2057 1638 2839 1254 3665 
C 947 4332 422 4800 346 4800 
C 326 4800 301 4793 301 4761 
C 301 4748 307 4742 314 4729 
C 621 4408 1402 3595 1402 1603 
C 1402 -396 627 -1210 314 -1530 
C 307 -1543 301 -1549 301 -1562 
C 301 -1594 326 -1600 346 -1600 
C 416 -1600 960 -1127 1274 -422 
C 1594 289 1683 981 1683 1596 
z
" id="CMR17-29" transform="scale(0.015625)"/>
      </defs>
      <use transform="scale(0.996264)" xlink:href="#CMR17-52"/>
      <use transform="translate(67.791102 0)scale(0.996264)" xlink:href="#CMR17-65"/>
      <use transform="translate(108.276762 0)scale(0.996264)" xlink:href="#CMR17-28"/>
      <use transform="translate(143.55753 0)scale(0.996264)" xlink:href="#CMMI12-78"/>
      <use transform="translate(198.99159 0)scale(0.996264)" xlink:href="#CMR17-28"/>
      <use transform="translate(234.272358 0)scale(0.996264)" xlink:href="#CMMI12-74"/>
      <use transform="translate(269.498688 0)scale(0.996264)" xlink:href="#CMR17-29"/>
      <use transform="translate(304.779456 0)scale(0.996264)" xlink:href="#CMR17-29"/>
     </g>
    </g>
    <g id="line2d_17">
     <path d="M 201.03056 108.490591 
L 271.03056 108.490591 
" style="fill:none;stroke:#ff7f0e;stroke-linecap:square;stroke-width:1.5;"/>
    </g>
    <g id="line2d_18"/>
    <g id="text_9">
     <!-- $\mathrm{Im}(x(t))$ -->
     <g transform="translate(299.03056 120.740591)scale(0.35 -0.35)">
      <defs>
       <path d="M 1261 3898 
C 1261 4185 1338 4185 1798 4185 
L 1798 4352 
C 1594 4339 1267 4339 1050 4339 
C 832 4339 506 4339 301 4352 
L 301 4185 
C 762 4185 838 4185 838 3898 
L 838 453 
C 838 166 762 166 301 166 
L 301 0 
C 506 12 832 12 1050 12 
C 1267 12 1594 12 1798 0 
L 1798 166 
C 1338 166 1261 166 1261 453 
L 1261 3898 
z
" id="CMR17-49" transform="scale(0.015625)"/>
       <path d="M 4326 1954 
C 4326 2276 4269 2816 3507 2816 
C 3072 2816 2771 2520 2656 2173 
L 2650 2173 
C 2573 2700 2195 2816 1837 2816 
C 1331 2816 1069 2424 973 2166 
L 966 2166 
L 966 2816 
L 211 2745 
L 211 2578 
C 589 2578 646 2540 646 2231 
L 646 443 
C 646 198 621 166 211 166 
L 211 0 
C 365 12 646 12 813 12 
C 979 12 1267 12 1421 0 
L 1421 166 
C 1011 166 986 192 986 443 
L 986 1678 
C 986 2269 1344 2713 1792 2713 
C 2266 2713 2317 2289 2317 1980 
L 2317 443 
C 2317 198 2291 166 1882 166 
L 1882 0 
C 2035 12 2317 12 2483 12 
C 2650 12 2938 12 3091 0 
L 3091 166 
C 2682 166 2656 192 2656 443 
L 2656 1678 
C 2656 2269 3014 2713 3462 2713 
C 3936 2713 3987 2289 3987 1980 
L 3987 443 
C 3987 198 3962 166 3552 166 
L 3552 0 
C 3706 12 3987 12 4154 12 
C 4320 12 4608 12 4762 0 
L 4762 166 
C 4352 166 4326 192 4326 443 
L 4326 1954 
z
" id="CMR17-6d" transform="scale(0.015625)"/>
      </defs>
      <use transform="scale(0.996264)" xlink:href="#CMR17-49"/>
      <use transform="translate(32.638409 0)scale(0.996264)" xlink:href="#CMR17-6d"/>
      <use transform="translate(109.557999 0)scale(0.996264)" xlink:href="#CMR17-28"/>
      <use transform="translate(144.838767 0)scale(0.996264)" xlink:href="#CMMI12-78"/>
      <use transform="translate(200.272826 0)scale(0.996264)" xlink:href="#CMR17-28"/>
      <use transform="translate(235.553594 0)scale(0.996264)" xlink:href="#CMMI12-74"/>
      <use transform="translate(270.779924 0)scale(0.996264)" xlink:href="#CMR17-29"/>
      <use transform="translate(306.060692 0)scale(0.996264)" xlink:href="#CMR17-29"/>
     </g>
    </g>
   </g>
  </g>
 </g>
 <defs>
  <clipPath id="p9b4c9d2c25">
   <rect height="250.994418" width="390.732654" x="59.267346" y="10.811376"/>
  </clipPath>
 </defs>
</svg>
