<?xml version="1.0" encoding="utf-8" standalone="no"?>
<!DOCTYPE svg PUBLIC "-//W3C//DTD SVG 1.1//EN"
  "http://www.w3.org/Graphics/SVG/1.1/DTD/svg11.dtd">
<svg height="345.6pt" version="1.1" viewBox="0 0 460.8 345.6" width="460.8pt" xmlns="http://www.w3.org/2000/svg" xmlns:xlink="http://www.w3.org/1999/xlink">
 <metadata>
  <rdf:RDF xmlns:cc="http://creativecommons.org/ns#" xmlns:dc="http://purl.org/dc/elements/1.1/" xmlns:rdf="http://www.w3.org/1999/02/22-rdf-syntax-ns#">
   <cc:Work>
    <dc:type rdf:resource="http://purl.org/dc/dcmitype/StillImage"/>
    <dc:date>2021-04-13T08:29:39.269159</dc:date>
    <dc:format>image/svg+xml</dc:format>
    <dc:creator>
     <cc:Agent>
      <dc:title>Matplotlib v3.4.1, https://matplotlib.org/</dc:title>
     </cc:Agent>
    </dc:creator>
   </cc:Work>
  </rdf:RDF>
 </metadata>
 <defs>
  <style type="text/css">*{stroke-linecap:butt;stroke-linejoin:round;}</style>
 </defs>
 <g id="figure_1">
  <g id="patch_1">
   <path d="M 0 345.6 
L 460.8 345.6 
L 460.8 0 
L 0 0 
z
" style="fill:#ffffff;"/>
  </g>
  <g id="patch_2">
   <path d="M 68.4 334.8 
L 392.4 334.8 
L 392.4 10.8 
L 68.4 10.8 
z
" style="fill:#ffffff;"/>
  </g>
  <g id="pane3d_1">
   <g id="patch_3">
    <path d="M 92.864234 254.911983 
L 199.859616 165.226333 
L 198.372277 35.883593 
L 86.256616 117.700496 
" style="fill:#f2f2f2;opacity:0.5;stroke:#f2f2f2;stroke-linejoin:miter;"/>
   </g>
  </g>
  <g id="pane3d_2">
   <g id="patch_4">
    <path d="M 199.859616 165.226333 
L 371.549027 215.129667 
L 377.676017 81.331864 
L 198.372277 35.883593 
" style="fill:#e6e6e6;opacity:0.5;stroke:#e6e6e6;stroke-linejoin:miter;"/>
   </g>
  </g>
  <g id="pane3d_3">
   <g id="patch_5">
    <path d="M 92.864234 254.911983 
L 274.863396 314.352909 
L 371.549027 215.129667 
L 199.859616 165.226333 
" style="fill:#ececec;opacity:0.5;stroke:#ececec;stroke-linejoin:miter;"/>
   </g>
  </g>
  <g id="axis3d_1">
   <g id="line2d_1">
    <path d="M 92.864234 254.911983 
L 274.863396 314.352909 
" style="fill:none;stroke:#000000;stroke-linecap:square;stroke-width:0.8;"/>
   </g>
   <g id="text_1">
    <!-- $t$ -->
    <g transform="translate(159.03287 327.784898)scale(0.35 -0.35)">
     <defs>
      <path d="M 1286 2566 
L 1875 2566 
C 1997 2566 2061 2566 2061 2681 
C 2061 2752 2022 2752 1894 2752 
L 1331 2752 
L 1568 3664 
C 1594 3752 1594 3764 1594 3808 
C 1594 3910 1510 3968 1427 3968 
C 1376 3968 1229 3948 1178 3746 
L 928 2752 
L 326 2752 
C 198 2752 141 2752 141 2630 
C 141 2566 186 2566 307 2566 
L 877 2566 
L 454 881 
C 403 657 384 593 384 510 
C 384 210 595 -64 954 -64 
C 1600 -64 1946 868 1946 913 
C 1946 951 1920 970 1882 970 
C 1869 970 1843 970 1830 944 
C 1824 938 1818 932 1773 830 
C 1638 510 1344 64 973 64 
C 781 64 768 223 768 364 
C 768 370 768 491 787 568 
L 1286 2566 
z
" id="CMMI12-74" transform="scale(0.015625)"/>
     </defs>
     <use transform="scale(0.996264)" xlink:href="#CMMI12-74"/>
    </g>
   </g>
   <g id="Line3DCollection_1">
    <path d="M 103.887059 258.512038 
L 210.30124 168.261301 
L 209.255382 38.642142 
" style="fill:none;stroke:#b0b0b0;stroke-width:0.8;"/>
    <path d="M 262.696365 310.379157 
L 360.118421 211.807241 
L 365.714926 78.300076 
" style="fill:none;stroke:#b0b0b0;stroke-width:0.8;"/>
   </g>
   <g id="xtick_1">
    <g id="line2d_2">
     <path d="M 104.813707 257.726139 
L 102.029785 260.087207 
" style="fill:none;stroke:#000000;stroke-linecap:square;stroke-width:0.8;"/>
    </g>
    <g id="text_2">
     <!-- $\mathdefault{0}$ -->
     <g transform="translate(88.367173 298.427074)scale(0.35 -0.35)">
      <defs>
       <path d="M 2688 2038 
C 2688 2430 2682 3099 2413 3613 
C 2176 4063 1798 4224 1466 4224 
C 1158 4224 768 4082 525 3620 
C 269 3137 243 2539 243 2038 
C 243 1671 250 1112 448 623 
C 723 -39 1216 -128 1466 -128 
C 1760 -128 2208 -7 2470 604 
C 2662 1048 2688 1568 2688 2038 
z
M 1466 -26 
C 1056 -26 813 328 723 816 
C 653 1196 653 1749 653 2109 
C 653 2604 653 3015 736 3407 
C 858 3954 1216 4121 1466 4121 
C 1728 4121 2067 3947 2189 3420 
C 2272 3054 2278 2623 2278 2109 
C 2278 1691 2278 1176 2202 797 
C 2067 96 1690 -26 1466 -26 
z
" id="CMR17-30" transform="scale(0.015625)"/>
      </defs>
      <use transform="scale(0.996264)" xlink:href="#CMR17-30"/>
     </g>
    </g>
   </g>
   <g id="xtick_2">
    <g id="line2d_3">
     <path d="M 263.547956 309.517514 
L 260.989355 312.106314 
" style="fill:none;stroke:#000000;stroke-linecap:square;stroke-width:0.8;"/>
    </g>
    <g id="text_3">
     <!-- $\mathdefault{20}$ -->
     <g transform="translate(239.332572 351.201753)scale(0.35 -0.35)">
      <defs>
       <path d="M 2669 990 
L 2554 990 
C 2490 537 2438 460 2413 422 
C 2381 371 1920 371 1830 371 
L 602 371 
C 832 620 1280 1073 1824 1596 
C 2214 1966 2669 2400 2669 3033 
C 2669 3788 2067 4224 1395 4224 
C 691 4224 262 3603 262 3027 
C 262 2777 448 2745 525 2745 
C 589 2745 781 2783 781 3007 
C 781 3206 614 3264 525 3264 
C 486 3264 448 3257 422 3244 
C 544 3788 915 4057 1306 4057 
C 1862 4057 2227 3616 2227 3033 
C 2227 2477 1901 1998 1536 1583 
L 262 147 
L 262 0 
L 2515 0 
L 2669 990 
z
" id="CMR17-32" transform="scale(0.015625)"/>
      </defs>
      <use transform="scale(0.996264)" xlink:href="#CMR17-32"/>
      <use transform="translate(45.690477 0)scale(0.996264)" xlink:href="#CMR17-30"/>
     </g>
    </g>
   </g>
  </g>
  <g id="axis3d_2">
   <g id="line2d_4">
    <path d="M 371.549027 215.129667 
L 274.863396 314.352909 
" style="fill:none;stroke:#000000;stroke-linecap:square;stroke-width:0.8;"/>
   </g>
   <g id="text_4">
    <!-- $\mathrm{Re}(x(t))$ -->
    <g transform="translate(317.045922 339.229531)rotate(-45.742112)scale(0.35 -0.35)">
     <defs>
      <path d="M 2509 2156 
C 3117 2278 3629 2689 3629 3203 
C 3629 3806 2950 4352 2054 4352 
L 333 4352 
L 333 4185 
C 774 4185 845 4185 845 3896 
L 845 428 
C 845 140 774 140 333 140 
L 333 -26 
C 518 -13 851 -13 1050 -13 
C 1248 -13 1581 -13 1766 -26 
L 1766 140 
C 1325 140 1254 140 1254 428 
L 1254 2112 
L 2003 2112 
C 2368 2112 2573 1964 2662 1881 
C 2918 1632 2918 1459 2918 1024 
C 2918 595 2918 377 3110 160 
C 3354 -103 3680 -128 3821 -128 
C 4294 -128 4365 403 4365 512 
C 4365 550 4365 595 4307 595 
C 4256 595 4250 556 4250 531 
C 4218 115 4032 -26 3834 -26 
C 3482 -26 3443 377 3405 768 
C 3386 902 3373 998 3360 1139 
C 3322 1459 3270 1926 2509 2156 
z
M 1984 2214 
L 1254 2214 
L 1254 3935 
C 1254 4153 1267 4185 1523 4185 
L 1990 4185 
C 2522 4185 3142 3999 3142 3203 
C 3142 2374 2464 2214 1984 2214 
z
" id="CMR17-52" transform="scale(0.015625)"/>
      <path d="M 2438 1503 
C 2464 1529 2464 1542 2464 1606 
C 2464 2251 2118 2816 1389 2816 
C 710 2816 173 2175 173 1394 
C 173 554 781 -64 1459 -64 
C 2176 -64 2458 619 2458 755 
C 2458 800 2419 800 2406 800 
C 2362 800 2355 787 2330 709 
C 2189 270 1837 51 1504 51 
C 1229 51 954 206 781 490 
C 582 819 582 1200 582 1503 
L 2438 1503 
z
M 589 1600 
C 634 2511 1126 2713 1382 2713 
C 1818 2713 2112 2308 2118 1600 
L 589 1600 
z
" id="CMR17-65" transform="scale(0.015625)"/>
      <path d="M 1958 -1562 
C 1958 -1556 1958 -1543 1939 -1524 
C 1645 -1223 858 -403 858 1596 
C 858 3595 1632 4408 1946 4729 
C 1946 4735 1958 4748 1958 4767 
C 1958 4787 1939 4800 1914 4800 
C 1843 4800 1299 4325 986 3620 
C 666 2909 576 2218 576 1603 
C 576 1141 621 360 1005 -467 
C 1312 -1133 1837 -1600 1914 -1600 
C 1946 -1600 1958 -1588 1958 -1562 
z
" id="CMR17-28" transform="scale(0.015625)"/>
      <path d="M 3034 2624 
C 2829 2585 2752 2431 2752 2310 
C 2752 2156 2874 2105 2963 2105 
C 3155 2105 3290 2271 3290 2444 
C 3290 2694 2982 2816 2714 2816 
C 2323 2816 2106 2451 2048 2329 
C 1901 2790 1504 2816 1389 2816 
C 736 2816 390 1993 390 1849 
C 390 1823 416 1790 461 1790 
C 512 1790 525 1829 538 1855 
C 755 2572 1184 2687 1370 2687 
C 1658 2687 1715 2438 1715 2284 
C 1715 2143 1677 1993 1600 1678 
L 1382 778 
C 1286 390 1101 64 762 64 
C 730 64 570 64 435 126 
C 666 166 717 358 717 435 
C 717 563 621 640 499 640 
C 346 640 179 505 179 300 
C 179 57 480 -64 755 -64 
C 1062 -64 1280 153 1414 415 
C 1517 64 1837 -64 2074 -64 
C 2726 -64 3072 751 3072 896 
C 3072 929 3046 955 3008 955 
C 2950 955 2944 922 2925 870 
C 2752 300 2381 64 2093 64 
C 1869 64 1747 204 1747 467 
C 1747 607 1773 712 1875 1146 
L 2099 2039 
C 2195 2425 2413 2687 2707 2687 
C 2720 2687 2899 2687 3034 2624 
z
" id="CMMI12-78" transform="scale(0.015625)"/>
      <path d="M 1683 1596 
C 1683 2057 1638 2839 1254 3665 
C 947 4332 422 4800 346 4800 
C 326 4800 301 4793 301 4761 
C 301 4748 307 4742 314 4729 
C 621 4408 1402 3595 1402 1603 
C 1402 -396 627 -1210 314 -1530 
C 307 -1543 301 -1549 301 -1562 
C 301 -1594 326 -1600 346 -1600 
C 416 -1600 960 -1127 1274 -422 
C 1594 289 1683 981 1683 1596 
z
" id="CMR17-29" transform="scale(0.015625)"/>
     </defs>
     <use transform="scale(0.996264)" xlink:href="#CMR17-52"/>
     <use transform="translate(67.791102 0)scale(0.996264)" xlink:href="#CMR17-65"/>
     <use transform="translate(108.276762 0)scale(0.996264)" xlink:href="#CMR17-28"/>
     <use transform="translate(143.55753 0)scale(0.996264)" xlink:href="#CMMI12-78"/>
     <use transform="translate(198.99159 0)scale(0.996264)" xlink:href="#CMR17-28"/>
     <use transform="translate(234.272358 0)scale(0.996264)" xlink:href="#CMMI12-74"/>
     <use transform="translate(269.498688 0)scale(0.996264)" xlink:href="#CMR17-29"/>
     <use transform="translate(304.779456 0)scale(0.996264)" xlink:href="#CMR17-29"/>
    </g>
   </g>
  </g>
  <g id="axis3d_3">
   <g id="line2d_5">
    <path d="M 371.549027 215.129667 
L 377.676017 81.331864 
" style="fill:none;stroke:#000000;stroke-linecap:square;stroke-width:0.8;"/>
   </g>
   <g id="text_5">
    <!-- $\mathrm{Im}(x(t))$ -->
    <g transform="translate(420.943652 204.351546)rotate(-87.378092)scale(0.35 -0.35)">
     <defs>
      <path d="M 1261 3898 
C 1261 4185 1338 4185 1798 4185 
L 1798 4352 
C 1594 4339 1267 4339 1050 4339 
C 832 4339 506 4339 301 4352 
L 301 4185 
C 762 4185 838 4185 838 3898 
L 838 453 
C 838 166 762 166 301 166 
L 301 0 
C 506 12 832 12 1050 12 
C 1267 12 1594 12 1798 0 
L 1798 166 
C 1338 166 1261 166 1261 453 
L 1261 3898 
z
" id="CMR17-49" transform="scale(0.015625)"/>
      <path d="M 4326 1954 
C 4326 2276 4269 2816 3507 2816 
C 3072 2816 2771 2520 2656 2173 
L 2650 2173 
C 2573 2700 2195 2816 1837 2816 
C 1331 2816 1069 2424 973 2166 
L 966 2166 
L 966 2816 
L 211 2745 
L 211 2578 
C 589 2578 646 2540 646 2231 
L 646 443 
C 646 198 621 166 211 166 
L 211 0 
C 365 12 646 12 813 12 
C 979 12 1267 12 1421 0 
L 1421 166 
C 1011 166 986 192 986 443 
L 986 1678 
C 986 2269 1344 2713 1792 2713 
C 2266 2713 2317 2289 2317 1980 
L 2317 443 
C 2317 198 2291 166 1882 166 
L 1882 0 
C 2035 12 2317 12 2483 12 
C 2650 12 2938 12 3091 0 
L 3091 166 
C 2682 166 2656 192 2656 443 
L 2656 1678 
C 2656 2269 3014 2713 3462 2713 
C 3936 2713 3987 2289 3987 1980 
L 3987 443 
C 3987 198 3962 166 3552 166 
L 3552 0 
C 3706 12 3987 12 4154 12 
C 4320 12 4608 12 4762 0 
L 4762 166 
C 4352 166 4326 192 4326 443 
L 4326 1954 
z
" id="CMR17-6d" transform="scale(0.015625)"/>
     </defs>
     <use transform="scale(0.996264)" xlink:href="#CMR17-49"/>
     <use transform="translate(32.638409 0)scale(0.996264)" xlink:href="#CMR17-6d"/>
     <use transform="translate(109.557999 0)scale(0.996264)" xlink:href="#CMR17-28"/>
     <use transform="translate(144.838767 0)scale(0.996264)" xlink:href="#CMMI12-78"/>
     <use transform="translate(200.272826 0)scale(0.996264)" xlink:href="#CMR17-28"/>
     <use transform="translate(235.553594 0)scale(0.996264)" xlink:href="#CMMI12-74"/>
     <use transform="translate(270.779924 0)scale(0.996264)" xlink:href="#CMR17-29"/>
     <use transform="translate(306.060692 0)scale(0.996264)" xlink:href="#CMR17-29"/>
    </g>
   </g>
  </g>
  <g id="axes_1">
   <g id="line2d_6">
    <path clip-path="url(#p3e5407cc41)" d="M 203.405662 109.879229 
L 203.803824 105.150638 
L 203.921717 100.658282 
L 203.760665 96.430647 
L 203.458434 93.450218 
L 203.002545 90.645352 
L 202.395193 88.026825 
L 201.639056 85.604971 
L 200.737299 83.389649 
L 199.693583 81.390194 
L 198.512065 79.615382 
L 197.197403 78.073381 
L 195.754752 76.771711 
L 194.189769 75.717197 
L 192.508607 74.915925 
L 190.717908 74.373197 
L 188.824797 74.093489 
L 186.836871 74.080403 
L 184.762183 74.33663 
L 182.60923 74.86391 
L 180.38693 75.66299 
L 178.104596 76.733596 
L 175.771913 78.0744 
L 173.398909 79.682993 
L 170.995913 81.555865 
L 168.573525 83.688388 
L 166.142572 86.074809 
L 163.714062 88.708243 
L 161.299138 91.580679 
L 158.119782 95.766441 
L 155.01121 100.336089 
L 151.999949 105.261622 
L 149.112141 110.51186 
L 146.373289 116.05265 
L 143.808006 121.847128 
L 141.439763 127.856009 
L 139.290645 134.037929 
L 137.381118 140.349818 
L 135.729816 146.747299 
L 134.353338 153.185114 
L 133.266081 159.617566 
L 132.480093 165.998967 
L 132.094168 170.724278 
L 131.886255 175.376647 
L 131.858638 179.937692 
L 132.012774 184.389521 
L 132.349294 188.714821 
L 132.868005 192.896949 
L 133.567902 196.92001 
L 134.447184 200.76894 
L 135.503275 204.429567 
L 136.732848 207.888675 
L 138.13186 211.134055 
L 139.695583 214.154551 
L 141.418642 216.940094 
L 143.295058 219.481727 
L 145.318288 221.771632 
L 147.481271 223.803131 
L 149.776477 225.5707 
L 152.195952 227.069956 
L 154.731366 228.297656 
L 157.374061 229.251673 
L 160.115099 229.930979 
L 162.945307 230.335615 
L 165.855325 230.466663 
L 168.835648 230.326206 
L 171.876669 229.917294 
L 174.968718 229.243901 
L 178.102102 228.310878 
L 181.267143 227.123917 
L 184.454206 225.689496 
L 187.653736 224.014838 
L 190.856287 222.107861 
L 194.052544 219.977136 
L 197.233355 217.631837 
L 200.389746 215.081695 
L 203.512947 212.336961 
L 207.610845 208.393208 
L 211.614965 204.14921 
L 215.506516 199.63275 
L 219.267572 194.872655 
L 222.881116 189.89864 
L 226.33108 184.741174 
L 229.602384 179.431349 
L 232.680961 174.000752 
L 235.553788 168.481355 
L 238.20891 162.905398 
L 240.63547 157.30529 
L 242.823726 151.713499 
L 244.765083 146.162452 
L 246.452114 140.684438 
L 247.87859 135.311501 
L 249.039508 130.075335 
L 249.931124 125.007177 
L 250.550979 120.137692 
L 250.897937 115.496851 
L 250.972219 111.113803 
L 250.775435 107.016739 
L 250.310619 103.232751 
L 249.788755 100.615806 
L 249.12106 98.199908 
L 248.310449 95.994951 
L 247.360323 94.010298 
L 246.274567 92.254738 
L 245.057553 90.736442 
L 243.714148 89.462921 
L 242.249704 88.440977 
L 240.670065 87.676659 
L 238.981555 87.175217 
L 237.190977 86.941058 
L 235.3056 86.977701 
L 233.333146 87.287738 
L 231.281777 87.872787 
L 229.160077 88.733463 
L 226.977024 89.869335 
L 224.741972 91.278903 
L 222.464617 92.959565 
L 220.154966 94.9076 
L 217.8233 97.11815 
L 215.480135 99.585214 
L 213.136178 102.30164 
L 210.028444 106.296936 
L 206.964576 110.697879 
L 203.970621 115.478196 
L 201.072479 120.608266 
L 198.295653 126.055299 
L 195.665009 131.783565 
L 193.204524 137.754675 
L 190.937038 143.927892 
L 188.88402 150.26049 
L 187.065336 156.708148 
L 185.499044 163.225367 
L 184.201198 169.765908 
L 183.185688 176.283253 
L 182.464095 182.73106 
L 182.045585 189.063622 
L 181.93471 193.710518 
L 182.000006 198.249173 
L 182.242543 202.661877 
L 182.662587 206.931589 
L 183.259608 211.042022 
L 184.032289 214.97772 
L 184.978548 218.724128 
L 186.095559 222.26766 
L 187.379782 225.595748 
L 188.826993 228.696891 
L 190.432318 231.560694 
L 192.190277 234.177895 
L 194.094819 236.540387 
L 196.139367 238.641228 
L 198.316866 240.474652 
L 200.619822 242.036058 
L 203.040357 243.322009 
L 205.570247 244.330207 
L 208.200973 245.059479 
L 210.923769 245.509745 
L 213.72966 245.681988 
L 216.609509 245.578217 
L 219.554062 245.201429 
L 222.55398 244.555565 
L 225.599885 243.645467 
L 228.682392 242.476834 
L 231.792143 241.056169 
L 234.919839 239.390738 
L 238.056269 237.488518 
L 241.19234 235.358151 
L 244.319096 233.008896 
L 247.427744 230.450582 
L 251.529592 226.732265 
L 255.56413 222.686614 
L 259.512227 218.340835 
L 263.35552 213.723313 
L 267.076463 208.86345 
L 270.658378 203.791519 
L 274.085488 198.53852 
L 277.342953 193.136053 
L 280.416899 187.616193 
L 283.294448 182.011374 
L 285.96374 176.354276 
L 288.413959 170.677724 
L 290.635358 165.014581 
L 292.619281 159.397647 
L 294.358193 153.859562 
L 295.845703 148.432698 
L 297.076598 143.14906 
L 298.046866 138.040168 
L 298.753735 133.136952 
L 299.195706 128.469624 
L 299.372583 124.06755 
L 299.285512 119.959114 
L 298.937017 116.171571 
L 298.506398 113.557174 
L 297.933098 111.148345 
L 297.219772 108.955015 
L 296.36954 106.98657 
L 295.385998 105.251813 
L 294.273216 103.758918 
L 293.035748 102.515382 
L 291.678625 101.527981 
L 290.207359 100.802724 
L 288.627936 100.344804 
L 286.946814 100.158558 
L 285.170909 100.247415 
L 283.307589 100.613859 
L 281.36466 101.259387 
L 279.350344 102.184468 
L 277.273263 103.388511 
L 275.142412 104.869833 
L 272.967133 106.625631 
L 270.757084 108.651963 
L 268.522204 110.943733 
L 265.521366 114.401336 
L 262.519181 118.30149 
L 259.540765 122.622465 
L 256.611474 127.338944 
L 253.756683 132.422138 
L 251.001553 137.839954 
L 248.370792 143.557208 
L 245.888411 149.535886 
L 243.577484 155.735451 
L 241.459903 162.113193 
L 239.556151 168.624614 
L 237.885085 175.223842 
L 236.463735 181.864081 
L 235.307125 188.498063 
L 234.428123 195.078521 
L 233.83731 201.558662 
L 233.542889 207.892623 
L 233.520136 212.520344 
L 233.668909 217.022666 
L 233.989936 221.38214 
L 234.483168 225.582073 
L 235.147784 229.606607 
L 235.982208 233.440795 
L 236.984129 237.070669 
L 238.150529 240.483292 
L 239.477705 243.66681 
L 240.96131 246.610493 
L 242.596383 249.304764 
L 244.37739 251.741222 
L 246.298265 253.912655 
L 248.352453 255.813047 
L 250.532952 257.437578 
L 252.83236 258.78261 
L 255.24292 259.845676 
L 257.756564 260.625453 
L 260.364957 261.12174 
L 263.059541 261.335422 
L 265.831582 261.268435 
L 268.672202 260.923724 
L 271.572428 260.305202 
L 274.523224 259.417705 
L 277.515528 258.266941 
L 280.540285 256.859447 
L 283.588481 255.202535 
L 286.651169 253.304247 
L 289.719499 251.173303 
L 292.78474 248.819055 
L 295.838305 246.251435 
L 299.877029 242.514201 
L 303.860589 238.442467 
L 307.770178 234.063763 
L 311.587695 229.406816 
L 315.295803 224.501387 
L 318.877966 219.378121 
L 322.318496 214.068404 
L 325.602579 208.604224 
L 328.716312 203.018053 
L 331.646728 197.342724 
L 334.381819 191.611323 
L 336.910561 185.857077 
L 339.222941 180.11326 
L 341.309977 174.413081 
L 343.163746 168.789594 
L 344.77741 163.275588 
L 346.145244 157.903487 
L 347.262667 152.70524 
L 348.126271 147.712209 
L 348.733861 142.955047 
L 349.084485 138.46357 
L 349.178469 134.266619 
L 349.017458 130.39192 
L 348.604449 126.865921 
L 348.131902 124.465361 
L 347.522411 122.285012 
L 346.778803 120.334284 
L 345.904363 118.621992 
L 344.902841 117.156308 
L 343.778457 115.944715 
L 342.535899 114.99396 
L 341.180324 114.310007 
L 339.717357 113.89799 
L 338.153086 113.762168 
L 336.494051 113.905877 
L 334.747242 114.331488 
L 334.747242 114.331488 
" style="fill:none;stroke:#1f77b4;stroke-linecap:square;stroke-width:1.5;"/>
   </g>
  </g>
 </g>
 <defs>
  <clipPath id="p3e5407cc41">
   <rect height="324" width="324" x="68.4" y="10.8"/>
  </clipPath>
 </defs>
</svg>
