<?xml version="1.0" encoding="utf-8" standalone="no"?>
<!DOCTYPE svg PUBLIC "-//W3C//DTD SVG 1.1//EN"
  "http://www.w3.org/Graphics/SVG/1.1/DTD/svg11.dtd">
<svg height="345.6pt" version="1.1" viewBox="0 0 460.8 345.6" width="460.8pt" xmlns="http://www.w3.org/2000/svg" xmlns:xlink="http://www.w3.org/1999/xlink">
 <metadata>
  <rdf:RDF xmlns:cc="http://creativecommons.org/ns#" xmlns:dc="http://purl.org/dc/elements/1.1/" xmlns:rdf="http://www.w3.org/1999/02/22-rdf-syntax-ns#">
   <cc:Work>
    <dc:type rdf:resource="http://purl.org/dc/dcmitype/StillImage"/>
    <dc:date>2021-04-13T08:29:38.478137</dc:date>
    <dc:format>image/svg+xml</dc:format>
    <dc:creator>
     <cc:Agent>
      <dc:title>Matplotlib v3.4.1, https://matplotlib.org/</dc:title>
     </cc:Agent>
    </dc:creator>
   </cc:Work>
  </rdf:RDF>
 </metadata>
 <defs>
  <style type="text/css">*{stroke-linecap:butt;stroke-linejoin:round;}</style>
 </defs>
 <g id="figure_1">
  <g id="patch_1">
   <path d="M 0 345.6 
L 460.8 345.6 
L 460.8 0 
L 0 0 
z
" style="fill:#ffffff;"/>
  </g>
  <g id="axes_1">
   <g id="patch_2">
    <path d="M 60.91227 261.805794 
L 450 261.805794 
L 450 10.811376 
L 60.91227 10.811376 
z
" style="fill:#ffffff;"/>
   </g>
   <g id="matplotlib.axis_1">
    <g id="xtick_1">
     <g id="line2d_1">
      <path clip-path="url(#p04bae8aef9)" d="M 78.598076 261.805794 
L 78.598076 10.811376 
" style="fill:none;stroke:#b0b0b0;stroke-linecap:square;stroke-width:0.8;"/>
     </g>
     <g id="line2d_2">
      <defs>
       <path d="M 0 0 
L 0 3.5 
" id="m32c0f04381" style="stroke:#000000;stroke-width:0.8;"/>
      </defs>
      <g>
       <use style="stroke:#000000;stroke-width:0.8;" x="78.598076" xlink:href="#m32c0f04381" y="261.805794"/>
      </g>
     </g>
     <g id="text_1">
      <!-- $\mathdefault{0}$ -->
      <g transform="translate(70.602242 293.020546)scale(0.35 -0.35)">
       <defs>
        <path d="M 2688 2038 
C 2688 2430 2682 3099 2413 3613 
C 2176 4063 1798 4224 1466 4224 
C 1158 4224 768 4082 525 3620 
C 269 3137 243 2539 243 2038 
C 243 1671 250 1112 448 623 
C 723 -39 1216 -128 1466 -128 
C 1760 -128 2208 -7 2470 604 
C 2662 1048 2688 1568 2688 2038 
z
M 1466 -26 
C 1056 -26 813 328 723 816 
C 653 1196 653 1749 653 2109 
C 653 2604 653 3015 736 3407 
C 858 3954 1216 4121 1466 4121 
C 1728 4121 2067 3947 2189 3420 
C 2272 3054 2278 2623 2278 2109 
C 2278 1691 2278 1176 2202 797 
C 2067 96 1690 -26 1466 -26 
z
" id="CMR17-30" transform="scale(0.015625)"/>
       </defs>
       <use transform="scale(0.996264)" xlink:href="#CMR17-30"/>
      </g>
     </g>
    </g>
    <g id="xtick_2">
     <g id="line2d_3">
      <path clip-path="url(#p04bae8aef9)" d="M 255.456135 261.805794 
L 255.456135 10.811376 
" style="fill:none;stroke:#b0b0b0;stroke-linecap:square;stroke-width:0.8;"/>
     </g>
     <g id="line2d_4">
      <g>
       <use style="stroke:#000000;stroke-width:0.8;" x="255.456135" xlink:href="#m32c0f04381" y="261.805794"/>
      </g>
     </g>
     <g id="text_2">
      <!-- $\mathdefault{10}$ -->
      <g transform="translate(239.464468 293.020546)scale(0.35 -0.35)">
       <defs>
        <path d="M 1702 4083 
C 1702 4217 1696 4224 1606 4224 
C 1357 3927 979 3833 621 3820 
C 602 3820 570 3820 563 3808 
C 557 3795 557 3782 557 3648 
C 755 3648 1088 3686 1344 3839 
L 1344 467 
C 1344 243 1331 166 781 166 
L 589 166 
L 589 0 
C 896 6 1216 12 1523 12 
C 1830 12 2150 6 2458 0 
L 2458 166 
L 2266 166 
C 1715 166 1702 236 1702 467 
L 1702 4083 
z
" id="CMR17-31" transform="scale(0.015625)"/>
       </defs>
       <use transform="scale(0.996264)" xlink:href="#CMR17-31"/>
       <use transform="translate(45.690477 0)scale(0.996264)" xlink:href="#CMR17-30"/>
      </g>
     </g>
    </g>
    <g id="xtick_3">
     <g id="line2d_5">
      <path clip-path="url(#p04bae8aef9)" d="M 432.314194 261.805794 
L 432.314194 10.811376 
" style="fill:none;stroke:#b0b0b0;stroke-linecap:square;stroke-width:0.8;"/>
     </g>
     <g id="line2d_6">
      <g>
       <use style="stroke:#000000;stroke-width:0.8;" x="432.314194" xlink:href="#m32c0f04381" y="261.805794"/>
      </g>
     </g>
     <g id="text_3">
      <!-- $\mathdefault{20}$ -->
      <g transform="translate(416.322527 293.020546)scale(0.35 -0.35)">
       <defs>
        <path d="M 2669 990 
L 2554 990 
C 2490 537 2438 460 2413 422 
C 2381 371 1920 371 1830 371 
L 602 371 
C 832 620 1280 1073 1824 1596 
C 2214 1966 2669 2400 2669 3033 
C 2669 3788 2067 4224 1395 4224 
C 691 4224 262 3603 262 3027 
C 262 2777 448 2745 525 2745 
C 589 2745 781 2783 781 3007 
C 781 3206 614 3264 525 3264 
C 486 3264 448 3257 422 3244 
C 544 3788 915 4057 1306 4057 
C 1862 4057 2227 3616 2227 3033 
C 2227 2477 1901 1998 1536 1583 
L 262 147 
L 262 0 
L 2515 0 
L 2669 990 
z
" id="CMR17-32" transform="scale(0.015625)"/>
       </defs>
       <use transform="scale(0.996264)" xlink:href="#CMR17-32"/>
       <use transform="translate(45.690477 0)scale(0.996264)" xlink:href="#CMR17-30"/>
      </g>
     </g>
    </g>
    <g id="text_4">
     <!-- $t$ -->
     <g transform="translate(249.291531 328.017649)scale(0.35 -0.35)">
      <defs>
       <path d="M 1286 2566 
L 1875 2566 
C 1997 2566 2061 2566 2061 2681 
C 2061 2752 2022 2752 1894 2752 
L 1331 2752 
L 1568 3664 
C 1594 3752 1594 3764 1594 3808 
C 1594 3910 1510 3968 1427 3968 
C 1376 3968 1229 3948 1178 3746 
L 928 2752 
L 326 2752 
C 198 2752 141 2752 141 2630 
C 141 2566 186 2566 307 2566 
L 877 2566 
L 454 881 
C 403 657 384 593 384 510 
C 384 210 595 -64 954 -64 
C 1600 -64 1946 868 1946 913 
C 1946 951 1920 970 1882 970 
C 1869 970 1843 970 1830 944 
C 1824 938 1818 932 1773 830 
C 1638 510 1344 64 973 64 
C 781 64 768 223 768 364 
C 768 370 768 491 787 568 
L 1286 2566 
z
" id="CMMI12-74" transform="scale(0.015625)"/>
      </defs>
      <use transform="scale(0.996264)" xlink:href="#CMMI12-74"/>
     </g>
    </g>
   </g>
   <g id="matplotlib.axis_2">
    <g id="ytick_1">
     <g id="line2d_7">
      <path clip-path="url(#p04bae8aef9)" d="M 60.91227 250.397082 
L 450 250.397082 
" style="fill:none;stroke:#b0b0b0;stroke-linecap:square;stroke-width:0.8;"/>
     </g>
     <g id="line2d_8">
      <defs>
       <path d="M 0 0 
L -3.5 0 
" id="m005d7edddf" style="stroke:#000000;stroke-width:0.8;"/>
      </defs>
      <g>
       <use style="stroke:#000000;stroke-width:0.8;" x="60.91227" xlink:href="#m005d7edddf" y="250.397082"/>
      </g>
     </g>
     <g id="text_5">
      <!-- $\mathdefault{−1}$ -->
      <g transform="translate(10.8 262.504458)scale(0.35 -0.35)">
       <defs>
        <path d="M 4218 1472 
C 4326 1472 4442 1472 4442 1600 
C 4442 1728 4326 1728 4218 1728 
L 755 1728 
C 646 1728 531 1728 531 1600 
C 531 1472 646 1472 755 1472 
L 4218 1472 
z
" id="CMSY10-0" transform="scale(0.015625)"/>
       </defs>
       <use transform="scale(0.996264)" xlink:href="#CMSY10-0"/>
       <use transform="translate(77.487468 0)scale(0.996264)" xlink:href="#CMR17-31"/>
      </g>
     </g>
    </g>
    <g id="ytick_2">
     <g id="line2d_9">
      <path clip-path="url(#p04bae8aef9)" d="M 60.91227 136.308648 
L 450 136.308648 
" style="fill:none;stroke:#b0b0b0;stroke-linecap:square;stroke-width:0.8;"/>
     </g>
     <g id="line2d_10">
      <g>
       <use style="stroke:#000000;stroke-width:0.8;" x="60.91227" xlink:href="#m005d7edddf" y="136.308648"/>
      </g>
     </g>
     <g id="text_6">
      <!-- $\mathdefault{0}$ -->
      <g transform="translate(37.920603 148.416023)scale(0.35 -0.35)">
       <use transform="scale(0.996264)" xlink:href="#CMR17-30"/>
      </g>
     </g>
    </g>
    <g id="ytick_3">
     <g id="line2d_11">
      <path clip-path="url(#p04bae8aef9)" d="M 60.91227 22.220213 
L 450 22.220213 
" style="fill:none;stroke:#b0b0b0;stroke-linecap:square;stroke-width:0.8;"/>
     </g>
     <g id="line2d_12">
      <g>
       <use style="stroke:#000000;stroke-width:0.8;" x="60.91227" xlink:href="#m005d7edddf" y="22.220213"/>
      </g>
     </g>
     <g id="text_7">
      <!-- $\mathdefault{1}$ -->
      <g transform="translate(37.920603 34.327589)scale(0.35 -0.35)">
       <use transform="scale(0.996264)" xlink:href="#CMR17-31"/>
      </g>
     </g>
    </g>
   </g>
   <g id="line2d_13">
    <path clip-path="url(#p04bae8aef9)" d="M 78.598076 22.220213 
L 79.306216 22.311654 
L 80.014357 22.585832 
L 80.722497 23.042306 
L 81.784708 24.067143 
L 82.846918 25.496737 
L 83.909129 27.325933 
L 84.971339 29.548134 
L 86.38762 33.10836 
L 87.803901 37.330037 
L 89.220182 42.186107 
L 90.990533 49.100521 
L 92.760883 56.888034 
L 94.885305 67.275195 
L 97.363796 80.639631 
L 100.196357 97.233514 
L 104.091129 121.591873 
L 112.942884 177.686615 
L 115.775446 194.112641 
L 118.253937 207.285193 
L 120.378358 217.477394 
L 122.502779 226.499832 
L 124.27313 233.030601 
L 125.689411 237.560824 
L 127.105692 241.442081 
L 128.521972 244.649497 
L 129.584183 246.600318 
L 130.646394 248.153412 
L 131.708604 249.303181 
L 132.770815 250.045477 
L 133.478955 250.312584 
L 134.187096 250.396945 
L 134.895236 250.298423 
L 135.603376 250.017176 
L 136.311517 249.553656 
L 137.373727 248.518317 
L 138.435938 247.078336 
L 139.498148 245.238905 
L 140.560359 243.006658 
L 141.97664 239.433395 
L 143.39292 235.199165 
L 144.809201 230.331106 
L 146.579552 223.402617 
L 148.349903 215.602171 
L 150.474324 205.201183 
L 152.952815 191.823192 
L 155.785377 175.21754 
L 159.680149 150.849989 
L 168.531904 94.765881 
L 171.364465 78.352216 
L 173.842957 65.193693 
L 175.967378 55.01569 
L 177.737729 47.423226 
L 179.50808 40.720653 
L 181.278431 34.975076 
L 182.694711 31.106642 
L 184.110992 27.91249 
L 185.173203 25.971855 
L 186.235413 24.429108 
L 187.297624 23.289813 
L 188.359834 22.558078 
L 189.067975 22.298041 
L 189.776115 22.220762 
L 190.484255 22.326364 
L 191.192396 22.61468 
L 191.900536 23.085245 
L 192.962747 24.131083 
L 194.024957 25.581448 
L 195.087168 27.431109 
L 196.149378 29.673396 
L 197.565659 33.259688 
L 198.98194 37.506461 
L 200.398221 42.386497 
L 202.168572 49.329045 
L 203.938923 57.142404 
L 206.063344 67.557196 
L 208.541835 80.948709 
L 211.374397 97.566089 
L 215.269169 121.942774 
L 224.120923 178.016113 
L 226.953485 194.417378 
L 229.431976 207.561839 
L 231.556397 217.72562 
L 233.326748 225.304858 
L 235.097099 231.993095 
L 236.86745 237.723372 
L 238.283731 241.578971 
L 239.700012 244.759852 
L 240.762222 246.690297 
L 241.824433 248.222693 
L 242.886643 249.351512 
L 243.948854 250.072684 
L 244.656994 250.32565 
L 245.365135 250.395848 
L 246.073275 250.283165 
L 246.781415 249.987782 
L 247.489556 249.510172 
L 248.551766 248.453837 
L 249.613977 246.993092 
L 250.676187 245.133205 
L 251.738398 242.880883 
L 253.154679 239.281571 
L 254.57096 235.022265 
L 255.98724 230.130265 
L 257.757591 223.173675 
L 259.527942 215.347421 
L 261.652363 204.91885 
L 264.130855 191.513848 
L 266.963416 174.884778 
L 270.858188 150.499019 
L 279.709943 94.436583 
L 282.542504 78.047758 
L 285.020996 64.91739 
L 287.145417 54.767855 
L 288.915768 47.201862 
L 290.686119 40.527977 
L 292.45647 34.813015 
L 293.87275 30.970258 
L 295.289031 27.802657 
L 296.351242 25.882406 
L 297.413452 24.360366 
L 298.475663 23.242025 
L 299.537873 22.531418 
L 300.246014 22.285523 
L 300.954154 22.222407 
L 301.662295 22.34217 
L 302.370435 22.644621 
L 303.078575 23.129273 
L 304.140786 24.196102 
L 305.202996 25.667224 
L 306.265207 27.537332 
L 307.327418 29.799684 
L 308.743698 33.412007 
L 310.159979 37.683836 
L 311.57626 42.58779 
L 313.346611 49.558405 
L 315.116962 57.397534 
L 317.241383 67.839858 
L 319.719874 81.258319 
L 322.552436 97.899037 
L 326.447208 122.293812 
L 335.298962 178.34521 
L 338.131524 194.721556 
L 340.610015 207.837799 
L 342.734436 217.973063 
L 344.504787 225.525794 
L 346.275138 232.185312 
L 348.045489 237.884944 
L 349.46177 241.714849 
L 350.878051 244.869164 
L 351.940261 246.779216 
L 353.002472 248.290897 
L 354.064682 249.398756 
L 355.126893 250.098797 
L 355.835033 250.337619 
L 356.543174 250.393654 
L 357.251314 250.266811 
L 357.959455 249.957294 
L 358.667595 249.4656 
L 359.729805 248.388279 
L 360.792016 246.906784 
L 361.854227 245.026459 
L 362.916437 242.754083 
L 364.332718 239.128757 
L 365.748999 234.844416 
L 367.165279 229.92852 
L 368.93563 222.943897 
L 370.705981 215.091911 
L 372.830402 204.635858 
L 375.308894 191.203973 
L 378.141455 174.551645 
L 382.036227 150.147913 
L 390.887982 94.107688 
L 393.720544 77.74386 
L 396.199035 64.641774 
L 398.323456 54.520804 
L 400.093807 46.981355 
L 401.864158 40.336221 
L 403.634509 34.65193 
L 405.05079 30.834887 
L 406.46707 27.693866 
L 407.529281 25.794018 
L 408.591491 24.2927 
L 409.653702 23.195325 
L 410.715913 22.505851 
L 411.424053 22.274103 
L 412.132193 22.22515 
L 412.840334 22.359072 
L 413.548474 22.675655 
L 414.256614 23.174389 
L 415.318825 24.2622 
L 416.381036 25.754064 
L 417.443246 27.644601 
L 418.505457 29.926995 
L 419.921738 33.565316 
L 421.338018 37.862159 
L 422.754299 42.789984 
L 424.52465 49.788599 
L 426.295001 57.653423 
L 428.419422 68.123179 
L 430.897913 81.568458 
L 432.314194 89.751204 
L 432.314194 89.751204 
" style="fill:none;stroke:#1f77b4;stroke-linecap:square;stroke-width:1.5;"/>
   </g>
   <g id="line2d_14">
    <path clip-path="url(#p04bae8aef9)" d="M 78.598076 136.308648 
L 84.263199 100.385553 
L 87.449831 81.561634 
L 89.928322 68.116944 
L 92.052743 57.64779 
L 94.177164 48.312257 
L 95.947515 41.496207 
L 97.717866 35.629388 
L 99.134147 31.659184 
L 100.550428 28.35972 
L 101.612638 26.338182 
L 102.674849 24.713211 
L 103.737059 23.490668 
L 104.79927 22.674961 
L 105.50741 22.358689 
L 106.215551 22.225078 
L 106.923691 22.274342 
L 107.631831 22.506402 
L 108.339972 22.920885 
L 109.402182 23.883123 
L 110.464393 25.250781 
L 111.526603 27.018928 
L 112.588814 29.181187 
L 114.005095 32.663586 
L 115.421376 36.810286 
L 116.837656 41.59471 
L 118.608007 48.42495 
L 120.378358 56.135052 
L 122.502779 66.439333 
L 124.981271 79.722376 
L 127.813832 96.245336 
L 131.354534 118.288895 
L 141.268499 180.941696 
L 144.101061 197.114772 
L 146.579552 210.002686 
L 148.703973 219.908263 
L 150.474324 227.24813 
L 152.244675 233.677541 
L 153.660956 238.121962 
L 155.077237 241.913822 
L 156.493517 245.028817 
L 157.555728 246.908693 
L 158.617939 248.389731 
L 159.680149 249.466591 
L 160.74236 250.135389 
L 161.4505 250.353302 
L 162.15864 250.388402 
L 162.866781 250.240633 
L 163.574921 249.910232 
L 164.283062 249.397729 
L 165.345272 248.289409 
L 166.407483 246.777272 
L 167.469693 244.866772 
L 168.531904 242.564797 
L 169.948185 238.901085 
L 171.364465 234.579818 
L 173.134816 228.296127 
L 174.905167 221.091489 
L 177.029588 211.332439 
L 179.154009 200.492183 
L 181.632501 186.687878 
L 184.819132 167.528229 
L 189.422045 138.238822 
L 195.441238 100.049936 
L 198.62787 81.251507 
L 201.106361 67.833637 
L 203.230782 57.391917 
L 205.355203 48.087506 
L 207.125554 41.299885 
L 208.895905 35.46346 
L 210.312186 31.518784 
L 211.728467 28.245746 
L 212.790677 26.244517 
L 213.852888 24.640193 
L 214.915098 23.43856 
L 215.977309 22.643951 
L 216.685449 22.341811 
L 217.39359 22.222359 
L 218.10173 22.285787 
L 218.809871 22.531992 
L 219.518011 22.96058 
L 220.580221 23.943847 
L 221.642432 25.332316 
L 222.704643 27.12098 
L 223.766853 29.303389 
L 225.183134 32.811954 
L 226.599415 36.983871 
L 228.015695 41.792399 
L 229.786046 48.65097 
L 231.556397 56.38714 
L 233.680818 66.719349 
L 236.15931 80.02985 
L 238.991871 96.576783 
L 242.532573 118.638326 
L 252.446538 181.26707 
L 255.2791 197.413829 
L 257.757591 210.272408 
L 259.882012 220.148607 
L 261.652363 227.461327 
L 263.422714 233.861456 
L 264.838995 238.281112 
L 266.255276 242.047186 
L 267.671557 245.13554 
L 268.733767 246.994978 
L 269.795978 248.455266 
L 270.858188 249.51114 
L 271.920399 250.158791 
L 272.628539 250.362553 
L 273.33668 250.383489 
L 274.04482 250.221564 
L 274.75296 249.877037 
L 275.461101 249.350461 
L 276.523311 248.221181 
L 277.585522 246.688331 
L 278.647732 244.757437 
L 279.709943 242.435463 
L 281.126224 238.745824 
L 282.542504 234.399624 
L 284.312855 228.08641 
L 286.083206 220.854348 
L 288.207627 211.065546 
L 290.332049 200.199385 
L 292.81054 186.370211 
L 295.997172 167.187798 
L 300.600084 137.885078 
L 306.619277 99.714668 
L 309.805909 80.941908 
L 312.2844 67.550989 
L 314.408821 57.136803 
L 316.533243 47.863603 
L 318.303593 41.104476 
L 320.073944 35.298502 
L 321.490225 31.379391 
L 322.906506 28.132812 
L 323.968716 26.151911 
L 325.030927 24.568249 
L 326.093138 23.387538 
L 327.155348 22.614034 
L 327.863489 22.326029 
L 328.571629 22.220738 
L 329.279769 22.298328 
L 329.98791 22.558676 
L 330.69605 23.001364 
L 331.758261 24.005652 
L 332.820471 25.414919 
L 333.882682 27.224083 
L 334.944892 29.426619 
L 336.361173 32.961318 
L 337.777454 37.158411 
L 339.193735 41.990997 
L 340.964085 48.877833 
L 342.734436 56.639996 
L 344.858858 67.000035 
L 347.337349 80.337866 
L 350.16991 96.908613 
L 354.064682 121.248824 
L 363.270507 179.486646 
L 366.103069 195.775099 
L 368.58156 208.79222 
L 370.705981 218.827544 
L 372.476332 226.287517 
L 374.246683 232.846652 
L 375.662964 237.400907 
L 377.079245 241.307222 
L 378.495525 244.54056 
L 379.557736 246.51129 
L 380.619947 248.084615 
L 381.682157 249.254862 
L 382.744368 250.01781 
L 383.452508 250.298746 
L 384.160648 250.396957 
L 384.868789 250.312285 
L 385.576929 250.044866 
L 386.28507 249.59513 
L 387.34728 248.580335 
L 388.409491 247.160675 
L 389.471701 245.341268 
L 390.533912 243.128676 
L 391.950193 239.580922 
L 393.366473 235.371256 
L 394.782754 230.526659 
L 396.553105 223.625716 
L 398.323456 215.850583 
L 400.447877 205.476667 
L 402.926368 192.125219 
L 405.75893 175.542625 
L 409.653702 151.193108 
L 418.505457 95.088326 
L 421.338018 78.650519 
L 423.81651 65.464584 
L 425.940931 55.258832 
L 428.065352 46.221131 
L 429.835703 39.67649 
L 431.251984 35.134516 
L 432.314194 32.152153 
L 432.314194 32.152153 
" style="fill:none;stroke:#ff7f0e;stroke-linecap:square;stroke-width:1.5;"/>
   </g>
   <g id="patch_3">
    <path d="M 60.91227 261.805794 
L 60.91227 10.811376 
" style="fill:none;stroke:#000000;stroke-linecap:square;stroke-linejoin:miter;stroke-width:0.8;"/>
   </g>
   <g id="patch_4">
    <path d="M 450 261.805794 
L 450 10.811376 
" style="fill:none;stroke:#000000;stroke-linecap:square;stroke-linejoin:miter;stroke-width:0.8;"/>
   </g>
   <g id="patch_5">
    <path d="M 60.91227 261.805794 
L 450 261.805794 
" style="fill:none;stroke:#000000;stroke-linecap:square;stroke-linejoin:miter;stroke-width:0.8;"/>
   </g>
   <g id="patch_6">
    <path d="M 60.91227 10.811376 
L 450 10.811376 
" style="fill:none;stroke:#000000;stroke-linecap:square;stroke-linejoin:miter;stroke-width:0.8;"/>
   </g>
   <g id="legend_1">
    <g id="patch_7">
     <path d="M 194.03056 193.867261 
L 425.5 193.867261 
Q 432.5 193.867261 432.5 186.867261 
L 432.5 85.749908 
Q 432.5 78.749908 425.5 78.749908 
L 194.03056 78.749908 
Q 187.03056 78.749908 187.03056 85.749908 
L 187.03056 186.867261 
Q 187.03056 193.867261 194.03056 193.867261 
z
" style="fill:#ffffff;opacity:0.8;stroke:#cccccc;stroke-linejoin:miter;"/>
    </g>
    <g id="line2d_15">
     <path d="M 201.03056 106.620447 
L 271.03056 106.620447 
" style="fill:none;stroke:#1f77b4;stroke-linecap:square;stroke-width:1.5;"/>
    </g>
    <g id="line2d_16"/>
    <g id="text_8">
     <!-- $\mathrm{Re}(x(t))$ -->
     <g transform="translate(299.03056 118.870447)scale(0.35 -0.35)">
      <defs>
       <path d="M 2509 2156 
C 3117 2278 3629 2689 3629 3203 
C 3629 3806 2950 4352 2054 4352 
L 333 4352 
L 333 4185 
C 774 4185 845 4185 845 3896 
L 845 428 
C 845 140 774 140 333 140 
L 333 -26 
C 518 -13 851 -13 1050 -13 
C 1248 -13 1581 -13 1766 -26 
L 1766 140 
C 1325 140 1254 140 1254 428 
L 1254 2112 
L 2003 2112 
C 2368 2112 2573 1964 2662 1881 
C 2918 1632 2918 1459 2918 1024 
C 2918 595 2918 377 3110 160 
C 3354 -103 3680 -128 3821 -128 
C 4294 -128 4365 403 4365 512 
C 4365 550 4365 595 4307 595 
C 4256 595 4250 556 4250 531 
C 4218 115 4032 -26 3834 -26 
C 3482 -26 3443 377 3405 768 
C 3386 902 3373 998 3360 1139 
C 3322 1459 3270 1926 2509 2156 
z
M 1984 2214 
L 1254 2214 
L 1254 3935 
C 1254 4153 1267 4185 1523 4185 
L 1990 4185 
C 2522 4185 3142 3999 3142 3203 
C 3142 2374 2464 2214 1984 2214 
z
" id="CMR17-52" transform="scale(0.015625)"/>
       <path d="M 2438 1503 
C 2464 1529 2464 1542 2464 1606 
C 2464 2251 2118 2816 1389 2816 
C 710 2816 173 2175 173 1394 
C 173 554 781 -64 1459 -64 
C 2176 -64 2458 619 2458 755 
C 2458 800 2419 800 2406 800 
C 2362 800 2355 787 2330 709 
C 2189 270 1837 51 1504 51 
C 1229 51 954 206 781 490 
C 582 819 582 1200 582 1503 
L 2438 1503 
z
M 589 1600 
C 634 2511 1126 2713 1382 2713 
C 1818 2713 2112 2308 2118 1600 
L 589 1600 
z
" id="CMR17-65" transform="scale(0.015625)"/>
       <path d="M 1958 -1562 
C 1958 -1556 1958 -1543 1939 -1524 
C 1645 -1223 858 -403 858 1596 
C 858 3595 1632 4408 1946 4729 
C 1946 4735 1958 4748 1958 4767 
C 1958 4787 1939 4800 1914 4800 
C 1843 4800 1299 4325 986 3620 
C 666 2909 576 2218 576 1603 
C 576 1141 621 360 1005 -467 
C 1312 -1133 1837 -1600 1914 -1600 
C 1946 -1600 1958 -1588 1958 -1562 
z
" id="CMR17-28" transform="scale(0.015625)"/>
       <path d="M 3034 2624 
C 2829 2585 2752 2431 2752 2310 
C 2752 2156 2874 2105 2963 2105 
C 3155 2105 3290 2271 3290 2444 
C 3290 2694 2982 2816 2714 2816 
C 2323 2816 2106 2451 2048 2329 
C 1901 2790 1504 2816 1389 2816 
C 736 2816 390 1993 390 1849 
C 390 1823 416 1790 461 1790 
C 512 1790 525 1829 538 1855 
C 755 2572 1184 2687 1370 2687 
C 1658 2687 1715 2438 1715 2284 
C 1715 2143 1677 1993 1600 1678 
L 1382 778 
C 1286 390 1101 64 762 64 
C 730 64 570 64 435 126 
C 666 166 717 358 717 435 
C 717 563 621 640 499 640 
C 346 640 179 505 179 300 
C 179 57 480 -64 755 -64 
C 1062 -64 1280 153 1414 415 
C 1517 64 1837 -64 2074 -64 
C 2726 -64 3072 751 3072 896 
C 3072 929 3046 955 3008 955 
C 2950 955 2944 922 2925 870 
C 2752 300 2381 64 2093 64 
C 1869 64 1747 204 1747 467 
C 1747 607 1773 712 1875 1146 
L 2099 2039 
C 2195 2425 2413 2687 2707 2687 
C 2720 2687 2899 2687 3034 2624 
z
" id="CMMI12-78" transform="scale(0.015625)"/>
       <path d="M 1683 1596 
C 1683 2057 1638 2839 1254 3665 
C 947 4332 422 4800 346 4800 
C 326 4800 301 4793 301 4761 
C 301 4748 307 4742 314 4729 
C 621 4408 1402 3595 1402 1603 
C 1402 -396 627 -1210 314 -1530 
C 307 -1543 301 -1549 301 -1562 
C 301 -1594 326 -1600 346 -1600 
C 416 -1600 960 -1127 1274 -422 
C 1594 289 1683 981 1683 1596 
z
" id="CMR17-29" transform="scale(0.015625)"/>
      </defs>
      <use transform="scale(0.996264)" xlink:href="#CMR17-52"/>
      <use transform="translate(67.791102 0)scale(0.996264)" xlink:href="#CMR17-65"/>
      <use transform="translate(108.276762 0)scale(0.996264)" xlink:href="#CMR17-28"/>
      <use transform="translate(143.55753 0)scale(0.996264)" xlink:href="#CMMI12-78"/>
      <use transform="translate(198.99159 0)scale(0.996264)" xlink:href="#CMR17-28"/>
      <use transform="translate(234.272358 0)scale(0.996264)" xlink:href="#CMMI12-74"/>
      <use transform="translate(269.498688 0)scale(0.996264)" xlink:href="#CMR17-29"/>
      <use transform="translate(304.779456 0)scale(0.996264)" xlink:href="#CMR17-29"/>
     </g>
    </g>
    <g id="line2d_17">
     <path d="M 201.03056 158.929123 
L 271.03056 158.929123 
" style="fill:none;stroke:#ff7f0e;stroke-linecap:square;stroke-width:1.5;"/>
    </g>
    <g id="line2d_18"/>
    <g id="text_9">
     <!-- $\mathrm{Im}(x(t))$ -->
     <g transform="translate(299.03056 171.179123)scale(0.35 -0.35)">
      <defs>
       <path d="M 1261 3898 
C 1261 4185 1338 4185 1798 4185 
L 1798 4352 
C 1594 4339 1267 4339 1050 4339 
C 832 4339 506 4339 301 4352 
L 301 4185 
C 762 4185 838 4185 838 3898 
L 838 453 
C 838 166 762 166 301 166 
L 301 0 
C 506 12 832 12 1050 12 
C 1267 12 1594 12 1798 0 
L 1798 166 
C 1338 166 1261 166 1261 453 
L 1261 3898 
z
" id="CMR17-49" transform="scale(0.015625)"/>
       <path d="M 4326 1954 
C 4326 2276 4269 2816 3507 2816 
C 3072 2816 2771 2520 2656 2173 
L 2650 2173 
C 2573 2700 2195 2816 1837 2816 
C 1331 2816 1069 2424 973 2166 
L 966 2166 
L 966 2816 
L 211 2745 
L 211 2578 
C 589 2578 646 2540 646 2231 
L 646 443 
C 646 198 621 166 211 166 
L 211 0 
C 365 12 646 12 813 12 
C 979 12 1267 12 1421 0 
L 1421 166 
C 1011 166 986 192 986 443 
L 986 1678 
C 986 2269 1344 2713 1792 2713 
C 2266 2713 2317 2289 2317 1980 
L 2317 443 
C 2317 198 2291 166 1882 166 
L 1882 0 
C 2035 12 2317 12 2483 12 
C 2650 12 2938 12 3091 0 
L 3091 166 
C 2682 166 2656 192 2656 443 
L 2656 1678 
C 2656 2269 3014 2713 3462 2713 
C 3936 2713 3987 2289 3987 1980 
L 3987 443 
C 3987 198 3962 166 3552 166 
L 3552 0 
C 3706 12 3987 12 4154 12 
C 4320 12 4608 12 4762 0 
L 4762 166 
C 4352 166 4326 192 4326 443 
L 4326 1954 
z
" id="CMR17-6d" transform="scale(0.015625)"/>
      </defs>
      <use transform="scale(0.996264)" xlink:href="#CMR17-49"/>
      <use transform="translate(32.638409 0)scale(0.996264)" xlink:href="#CMR17-6d"/>
      <use transform="translate(109.557999 0)scale(0.996264)" xlink:href="#CMR17-28"/>
      <use transform="translate(144.838767 0)scale(0.996264)" xlink:href="#CMMI12-78"/>
      <use transform="translate(200.272826 0)scale(0.996264)" xlink:href="#CMR17-28"/>
      <use transform="translate(235.553594 0)scale(0.996264)" xlink:href="#CMMI12-74"/>
      <use transform="translate(270.779924 0)scale(0.996264)" xlink:href="#CMR17-29"/>
      <use transform="translate(306.060692 0)scale(0.996264)" xlink:href="#CMR17-29"/>
     </g>
    </g>
   </g>
  </g>
 </g>
 <defs>
  <clipPath id="p04bae8aef9">
   <rect height="250.994418" width="389.08773" x="60.91227" y="10.811376"/>
  </clipPath>
 </defs>
</svg>
