<?xml version="1.0" encoding="utf-8" standalone="no"?>
<!DOCTYPE svg PUBLIC "-//W3C//DTD SVG 1.1//EN"
  "http://www.w3.org/Graphics/SVG/1.1/DTD/svg11.dtd">
<svg height="345.6pt" version="1.1" viewBox="0 0 460.8 345.6" width="460.8pt" xmlns="http://www.w3.org/2000/svg" xmlns:xlink="http://www.w3.org/1999/xlink">
 <metadata>
  <rdf:RDF xmlns:cc="http://creativecommons.org/ns#" xmlns:dc="http://purl.org/dc/elements/1.1/" xmlns:rdf="http://www.w3.org/1999/02/22-rdf-syntax-ns#">
   <cc:Work>
    <dc:type rdf:resource="http://purl.org/dc/dcmitype/StillImage"/>
    <dc:date>2021-04-13T08:29:02.012337</dc:date>
    <dc:format>image/svg+xml</dc:format>
    <dc:creator>
     <cc:Agent>
      <dc:title>Matplotlib v3.4.1, https://matplotlib.org/</dc:title>
     </cc:Agent>
    </dc:creator>
   </cc:Work>
  </rdf:RDF>
 </metadata>
 <defs>
  <style type="text/css">*{stroke-linecap:butt;stroke-linejoin:round;}</style>
 </defs>
 <g id="figure_1">
  <g id="patch_1">
   <path d="M 0 345.6 
L 460.8 345.6 
L 460.8 0 
L 0 0 
z
" style="fill:#ffffff;"/>
  </g>
  <g id="axes_1">
   <g id="patch_2">
    <path d="M 60.91227 261.805794 
L 450 261.805794 
L 450 10.811376 
L 60.91227 10.811376 
z
" style="fill:#ffffff;"/>
   </g>
   <g id="matplotlib.axis_1">
    <g id="xtick_1">
     <g id="line2d_1">
      <path clip-path="url(#p45f0aab4bb)" d="M 78.598076 261.805794 
L 78.598076 10.811376 
" style="fill:none;stroke:#b0b0b0;stroke-linecap:square;stroke-width:0.8;"/>
     </g>
     <g id="line2d_2">
      <defs>
       <path d="M 0 0 
L 0 3.5 
" id="ma79b998a5b" style="stroke:#000000;stroke-width:0.8;"/>
      </defs>
      <g>
       <use style="stroke:#000000;stroke-width:0.8;" x="78.598076" xlink:href="#ma79b998a5b" y="261.805794"/>
      </g>
     </g>
     <g id="text_1">
      <!-- $\mathdefault{0.0}$ -->
      <g transform="translate(57.864403 293.020546)scale(0.35 -0.35)">
       <defs>
        <path d="M 2688 2038 
C 2688 2430 2682 3099 2413 3613 
C 2176 4063 1798 4224 1466 4224 
C 1158 4224 768 4082 525 3620 
C 269 3137 243 2539 243 2038 
C 243 1671 250 1112 448 623 
C 723 -39 1216 -128 1466 -128 
C 1760 -128 2208 -7 2470 604 
C 2662 1048 2688 1568 2688 2038 
z
M 1466 -26 
C 1056 -26 813 328 723 816 
C 653 1196 653 1749 653 2109 
C 653 2604 653 3015 736 3407 
C 858 3954 1216 4121 1466 4121 
C 1728 4121 2067 3947 2189 3420 
C 2272 3054 2278 2623 2278 2109 
C 2278 1691 2278 1176 2202 797 
C 2067 96 1690 -26 1466 -26 
z
" id="CMR17-30" transform="scale(0.015625)"/>
        <path d="M 1178 307 
C 1178 492 1024 620 870 620 
C 685 620 557 467 557 313 
C 557 128 710 0 864 0 
C 1050 0 1178 153 1178 307 
z
" id="CMMI12-3a" transform="scale(0.015625)"/>
       </defs>
       <use transform="scale(0.996264)" xlink:href="#CMR17-30"/>
       <use transform="translate(45.690477 0)scale(0.996264)" xlink:href="#CMMI12-3a"/>
       <use transform="translate(72.787654 0)scale(0.996264)" xlink:href="#CMR17-30"/>
      </g>
     </g>
    </g>
    <g id="xtick_2">
     <g id="line2d_3">
      <path clip-path="url(#p45f0aab4bb)" d="M 219.337248 261.805794 
L 219.337248 10.811376 
" style="fill:none;stroke:#b0b0b0;stroke-linecap:square;stroke-width:0.8;"/>
     </g>
     <g id="line2d_4">
      <g>
       <use style="stroke:#000000;stroke-width:0.8;" x="219.337248" xlink:href="#ma79b998a5b" y="261.805794"/>
      </g>
     </g>
     <g id="text_2">
      <!-- $\mathdefault{2.5}$ -->
      <g transform="translate(198.603575 293.020546)scale(0.35 -0.35)">
       <defs>
        <path d="M 2669 990 
L 2554 990 
C 2490 537 2438 460 2413 422 
C 2381 371 1920 371 1830 371 
L 602 371 
C 832 620 1280 1073 1824 1596 
C 2214 1966 2669 2400 2669 3033 
C 2669 3788 2067 4224 1395 4224 
C 691 4224 262 3603 262 3027 
C 262 2777 448 2745 525 2745 
C 589 2745 781 2783 781 3007 
C 781 3206 614 3264 525 3264 
C 486 3264 448 3257 422 3244 
C 544 3788 915 4057 1306 4057 
C 1862 4057 2227 3616 2227 3033 
C 2227 2477 1901 1998 1536 1583 
L 262 147 
L 262 0 
L 2515 0 
L 2669 990 
z
" id="CMR17-32" transform="scale(0.015625)"/>
        <path d="M 730 3750 
C 794 3724 1056 3641 1325 3641 
C 1920 3641 2246 3961 2432 4140 
C 2432 4191 2432 4224 2394 4224 
C 2387 4224 2374 4224 2323 4198 
C 2099 4102 1837 4032 1517 4032 
C 1325 4032 1037 4055 723 4191 
C 653 4224 640 4224 634 4224 
C 602 4224 595 4217 595 4090 
L 595 2231 
C 595 2113 595 2080 659 2080 
C 691 2080 704 2093 736 2139 
C 941 2435 1222 2560 1542 2560 
C 1766 2560 2246 2415 2246 1293 
C 2246 1087 2246 716 2054 422 
C 1894 159 1645 25 1370 25 
C 947 25 518 319 403 812 
C 429 806 480 793 506 793 
C 589 793 749 838 749 1036 
C 749 1209 627 1280 506 1280 
C 358 1280 262 1190 262 1011 
C 262 454 704 -128 1382 -128 
C 2042 -128 2669 441 2669 1267 
C 2669 2054 2170 2662 1549 2662 
C 1222 2662 947 2540 730 2304 
L 730 3750 
z
" id="CMR17-35" transform="scale(0.015625)"/>
       </defs>
       <use transform="scale(0.996264)" xlink:href="#CMR17-32"/>
       <use transform="translate(45.690477 0)scale(0.996264)" xlink:href="#CMMI12-3a"/>
       <use transform="translate(72.787654 0)scale(0.996264)" xlink:href="#CMR17-35"/>
      </g>
     </g>
    </g>
    <g id="xtick_3">
     <g id="line2d_5">
      <path clip-path="url(#p45f0aab4bb)" d="M 360.076419 261.805794 
L 360.076419 10.811376 
" style="fill:none;stroke:#b0b0b0;stroke-linecap:square;stroke-width:0.8;"/>
     </g>
     <g id="line2d_6">
      <g>
       <use style="stroke:#000000;stroke-width:0.8;" x="360.076419" xlink:href="#ma79b998a5b" y="261.805794"/>
      </g>
     </g>
     <g id="text_3">
      <!-- $\mathdefault{5.0}$ -->
      <g transform="translate(339.342746 293.020546)scale(0.35 -0.35)">
       <use transform="scale(0.996264)" xlink:href="#CMR17-35"/>
       <use transform="translate(45.690477 0)scale(0.996264)" xlink:href="#CMMI12-3a"/>
       <use transform="translate(72.787654 0)scale(0.996264)" xlink:href="#CMR17-30"/>
      </g>
     </g>
    </g>
    <g id="text_4">
     <!-- $t$ -->
     <g transform="translate(249.291531 328.017649)scale(0.35 -0.35)">
      <defs>
       <path d="M 1286 2566 
L 1875 2566 
C 1997 2566 2061 2566 2061 2681 
C 2061 2752 2022 2752 1894 2752 
L 1331 2752 
L 1568 3664 
C 1594 3752 1594 3764 1594 3808 
C 1594 3910 1510 3968 1427 3968 
C 1376 3968 1229 3948 1178 3746 
L 928 2752 
L 326 2752 
C 198 2752 141 2752 141 2630 
C 141 2566 186 2566 307 2566 
L 877 2566 
L 454 881 
C 403 657 384 593 384 510 
C 384 210 595 -64 954 -64 
C 1600 -64 1946 868 1946 913 
C 1946 951 1920 970 1882 970 
C 1869 970 1843 970 1830 944 
C 1824 938 1818 932 1773 830 
C 1638 510 1344 64 973 64 
C 781 64 768 223 768 364 
C 768 370 768 491 787 568 
L 1286 2566 
z
" id="CMMI12-74" transform="scale(0.015625)"/>
      </defs>
      <use transform="scale(0.996264)" xlink:href="#CMMI12-74"/>
     </g>
    </g>
   </g>
   <g id="matplotlib.axis_2">
    <g id="ytick_1">
     <g id="line2d_7">
      <path clip-path="url(#p45f0aab4bb)" d="M 60.91227 250.787293 
L 450 250.787293 
" style="fill:none;stroke:#b0b0b0;stroke-linecap:square;stroke-width:0.8;"/>
     </g>
     <g id="line2d_8">
      <defs>
       <path d="M 0 0 
L -3.5 0 
" id="m6030e51296" style="stroke:#000000;stroke-width:0.8;"/>
      </defs>
      <g>
       <use style="stroke:#000000;stroke-width:0.8;" x="60.91227" xlink:href="#m6030e51296" y="250.787293"/>
      </g>
     </g>
     <g id="text_5">
      <!-- $\mathdefault{−1}$ -->
      <g transform="translate(10.8 262.894669)scale(0.35 -0.35)">
       <defs>
        <path d="M 4218 1472 
C 4326 1472 4442 1472 4442 1600 
C 4442 1728 4326 1728 4218 1728 
L 755 1728 
C 646 1728 531 1728 531 1600 
C 531 1472 646 1472 755 1472 
L 4218 1472 
z
" id="CMSY10-0" transform="scale(0.015625)"/>
        <path d="M 1702 4083 
C 1702 4217 1696 4224 1606 4224 
C 1357 3927 979 3833 621 3820 
C 602 3820 570 3820 563 3808 
C 557 3795 557 3782 557 3648 
C 755 3648 1088 3686 1344 3839 
L 1344 467 
C 1344 243 1331 166 781 166 
L 589 166 
L 589 0 
C 896 6 1216 12 1523 12 
C 1830 12 2150 6 2458 0 
L 2458 166 
L 2266 166 
C 1715 166 1702 236 1702 467 
L 1702 4083 
z
" id="CMR17-31" transform="scale(0.015625)"/>
       </defs>
       <use transform="scale(0.996264)" xlink:href="#CMSY10-0"/>
       <use transform="translate(77.487468 0)scale(0.996264)" xlink:href="#CMR17-31"/>
      </g>
     </g>
    </g>
    <g id="ytick_2">
     <g id="line2d_9">
      <path clip-path="url(#p45f0aab4bb)" d="M 60.91227 136.503753 
L 450 136.503753 
" style="fill:none;stroke:#b0b0b0;stroke-linecap:square;stroke-width:0.8;"/>
     </g>
     <g id="line2d_10">
      <g>
       <use style="stroke:#000000;stroke-width:0.8;" x="60.91227" xlink:href="#m6030e51296" y="136.503753"/>
      </g>
     </g>
     <g id="text_6">
      <!-- $\mathdefault{0}$ -->
      <g transform="translate(37.920603 148.611129)scale(0.35 -0.35)">
       <use transform="scale(0.996264)" xlink:href="#CMR17-30"/>
      </g>
     </g>
    </g>
    <g id="ytick_3">
     <g id="line2d_11">
      <path clip-path="url(#p45f0aab4bb)" d="M 60.91227 22.220213 
L 450 22.220213 
" style="fill:none;stroke:#b0b0b0;stroke-linecap:square;stroke-width:0.8;"/>
     </g>
     <g id="line2d_12">
      <g>
       <use style="stroke:#000000;stroke-width:0.8;" x="60.91227" xlink:href="#m6030e51296" y="22.220213"/>
      </g>
     </g>
     <g id="text_7">
      <!-- $\mathdefault{1}$ -->
      <g transform="translate(37.920603 34.327589)scale(0.35 -0.35)">
       <use transform="scale(0.996264)" xlink:href="#CMR17-31"/>
      </g>
     </g>
    </g>
   </g>
   <g id="line2d_13">
    <path clip-path="url(#p45f0aab4bb)" d="M 78.598076 22.220213 
L 97.214714 28.412411 
L 115.831352 46.317982 
L 134.447989 73.996581 
L 153.064627 108.448803 
L 171.681265 145.941213 
L 190.297903 182.410928 
L 208.914541 213.905888 
L 227.531178 237.013126 
L 246.147816 249.228614 
L 264.764454 249.228614 
L 283.381092 237.013126 
L 301.99773 213.905888 
L 320.614367 182.410928 
L 339.231005 145.941213 
L 357.847643 108.448803 
L 376.464281 73.996581 
L 395.080918 46.317982 
L 413.697556 28.412411 
L 432.314194 22.220213 
" style="fill:none;stroke:#000000;stroke-dasharray:5.55,2.4;stroke-dashoffset:0;stroke-width:1.5;"/>
   </g>
   <g id="line2d_14">
    <path clip-path="url(#p45f0aab4bb)" d="M 78.598076 136.503753 
L 97.214714 99.395948 
L 115.831352 66.30935 
L 134.447989 40.829404 
L 153.064627 25.717259 
L 171.681265 22.610549 
L 190.297903 31.845936 
L 208.914541 52.42262 
L 227.531178 82.1108 
L 246.147816 117.693301 
L 264.764454 155.314205 
L 283.381092 190.896706 
L 301.99773 220.584886 
L 320.614367 241.16157 
L 339.231005 250.396957 
L 357.847643 247.290247 
L 376.464281 232.178101 
L 395.080918 206.698156 
L 413.697556 173.611558 
L 432.314194 136.503753 
" style="fill:none;stroke:#000000;stroke-dasharray:5.55,2.4;stroke-dashoffset:0;stroke-width:1.5;"/>
   </g>
   <g id="line2d_15">
    <path clip-path="url(#p45f0aab4bb)" d="M 78.598076 22.220213 
L 78.603706 22.220214 
L 78.660001 22.220282 
L 79.222958 22.227254 
L 84.852525 22.924801 
L 102.538331 32.399273 
L 120.224137 52.06422 
L 137.909942 79.994692 
L 155.595748 113.456656 
L 173.281554 149.174615 
L 190.96736 183.652244 
L 208.653166 213.514631 
L 226.338972 235.838638 
L 244.024778 248.439037 
L 261.710584 250.082417 
L 279.39639 240.607919 
L 297.082196 220.942977 
L 314.768002 193.01254 
L 332.453807 159.550639 
L 350.139613 123.832762 
L 367.825419 89.355228 
L 385.511225 59.49294 
L 403.197031 37.169025 
L 420.882837 24.568703 
L 432.314194 22.220731 
" style="fill:none;stroke:#1f77b4;stroke-linecap:square;stroke-width:2;"/>
    <defs>
     <path d="M 0 2.5 
C 0.663008 2.5 1.29895 2.236584 1.767767 1.767767 
C 2.236584 1.29895 2.5 0.663008 2.5 0 
C 2.5 -0.663008 2.236584 -1.29895 1.767767 -1.767767 
C 1.29895 -2.236584 0.663008 -2.5 0 -2.5 
C -0.663008 -2.5 -1.29895 -2.236584 -1.767767 -1.767767 
C -2.236584 -1.29895 -2.5 -0.663008 -2.5 0 
C -2.5 0.663008 -2.236584 1.29895 -1.767767 1.767767 
C -1.29895 2.236584 -0.663008 2.5 0 2.5 
z
" id="m3d5c025258" style="stroke:#1f77b4;"/>
    </defs>
    <g clip-path="url(#p45f0aab4bb)">
     <use style="fill:#1f77b4;stroke:#1f77b4;" x="78.598076" xlink:href="#m3d5c025258" y="22.220213"/>
     <use style="fill:#1f77b4;stroke:#1f77b4;" x="78.603706" xlink:href="#m3d5c025258" y="22.220214"/>
     <use style="fill:#1f77b4;stroke:#1f77b4;" x="78.660001" xlink:href="#m3d5c025258" y="22.220282"/>
     <use style="fill:#1f77b4;stroke:#1f77b4;" x="79.222958" xlink:href="#m3d5c025258" y="22.227254"/>
     <use style="fill:#1f77b4;stroke:#1f77b4;" x="84.852525" xlink:href="#m3d5c025258" y="22.924801"/>
     <use style="fill:#1f77b4;stroke:#1f77b4;" x="102.538331" xlink:href="#m3d5c025258" y="32.399273"/>
     <use style="fill:#1f77b4;stroke:#1f77b4;" x="120.224137" xlink:href="#m3d5c025258" y="52.06422"/>
     <use style="fill:#1f77b4;stroke:#1f77b4;" x="137.909942" xlink:href="#m3d5c025258" y="79.994692"/>
     <use style="fill:#1f77b4;stroke:#1f77b4;" x="155.595748" xlink:href="#m3d5c025258" y="113.456656"/>
     <use style="fill:#1f77b4;stroke:#1f77b4;" x="173.281554" xlink:href="#m3d5c025258" y="149.174615"/>
     <use style="fill:#1f77b4;stroke:#1f77b4;" x="190.96736" xlink:href="#m3d5c025258" y="183.652244"/>
     <use style="fill:#1f77b4;stroke:#1f77b4;" x="208.653166" xlink:href="#m3d5c025258" y="213.514631"/>
     <use style="fill:#1f77b4;stroke:#1f77b4;" x="226.338972" xlink:href="#m3d5c025258" y="235.838638"/>
     <use style="fill:#1f77b4;stroke:#1f77b4;" x="244.024778" xlink:href="#m3d5c025258" y="248.439037"/>
     <use style="fill:#1f77b4;stroke:#1f77b4;" x="261.710584" xlink:href="#m3d5c025258" y="250.082417"/>
     <use style="fill:#1f77b4;stroke:#1f77b4;" x="279.39639" xlink:href="#m3d5c025258" y="240.607919"/>
     <use style="fill:#1f77b4;stroke:#1f77b4;" x="297.082196" xlink:href="#m3d5c025258" y="220.942977"/>
     <use style="fill:#1f77b4;stroke:#1f77b4;" x="314.768002" xlink:href="#m3d5c025258" y="193.01254"/>
     <use style="fill:#1f77b4;stroke:#1f77b4;" x="332.453807" xlink:href="#m3d5c025258" y="159.550639"/>
     <use style="fill:#1f77b4;stroke:#1f77b4;" x="350.139613" xlink:href="#m3d5c025258" y="123.832762"/>
     <use style="fill:#1f77b4;stroke:#1f77b4;" x="367.825419" xlink:href="#m3d5c025258" y="89.355228"/>
     <use style="fill:#1f77b4;stroke:#1f77b4;" x="385.511225" xlink:href="#m3d5c025258" y="59.49294"/>
     <use style="fill:#1f77b4;stroke:#1f77b4;" x="403.197031" xlink:href="#m3d5c025258" y="37.169025"/>
     <use style="fill:#1f77b4;stroke:#1f77b4;" x="420.882837" xlink:href="#m3d5c025258" y="24.568703"/>
     <use style="fill:#1f77b4;stroke:#1f77b4;" x="432.314194" xlink:href="#m3d5c025258" y="22.220731"/>
    </g>
   </g>
   <g id="line2d_16">
    <path clip-path="url(#p45f0aab4bb)" d="M 78.598076 136.503753 
L 78.603706 136.492325 
L 78.660001 136.378041 
L 79.222958 135.235232 
L 84.852525 123.832956 
L 102.538331 89.355279 
L 120.224137 59.492843 
L 137.909942 37.16879 
L 155.595748 24.568352 
L 173.281554 22.924945 
L 190.96736 32.39943 
L 208.653166 52.064374 
L 226.338972 79.994829 
L 244.024778 113.456761 
L 261.710584 149.174679 
L 279.39639 183.652261 
L 297.082196 213.514599 
L 314.768002 235.838559 
L 332.453807 248.43892 
L 350.139613 250.082273 
L 367.825419 240.607762 
L 385.511225 220.942823 
L 403.197031 193.012403 
L 420.882837 159.550533 
L 432.314194 136.503448 
" style="fill:none;stroke:#ff7f0e;stroke-linecap:square;stroke-width:2;"/>
    <defs>
     <path d="M 0 2.5 
C 0.663008 2.5 1.29895 2.236584 1.767767 1.767767 
C 2.236584 1.29895 2.5 0.663008 2.5 0 
C 2.5 -0.663008 2.236584 -1.29895 1.767767 -1.767767 
C 1.29895 -2.236584 0.663008 -2.5 0 -2.5 
C -0.663008 -2.5 -1.29895 -2.236584 -1.767767 -1.767767 
C -2.236584 -1.29895 -2.5 -0.663008 -2.5 0 
C -2.5 0.663008 -2.236584 1.29895 -1.767767 1.767767 
C -1.29895 2.236584 -0.663008 2.5 0 2.5 
z
" id="m6e0337e5c0" style="stroke:#ff7f0e;"/>
    </defs>
    <g clip-path="url(#p45f0aab4bb)">
     <use style="fill:#ff7f0e;stroke:#ff7f0e;" x="78.598076" xlink:href="#m6e0337e5c0" y="136.503753"/>
     <use style="fill:#ff7f0e;stroke:#ff7f0e;" x="78.603706" xlink:href="#m6e0337e5c0" y="136.492325"/>
     <use style="fill:#ff7f0e;stroke:#ff7f0e;" x="78.660001" xlink:href="#m6e0337e5c0" y="136.378041"/>
     <use style="fill:#ff7f0e;stroke:#ff7f0e;" x="79.222958" xlink:href="#m6e0337e5c0" y="135.235232"/>
     <use style="fill:#ff7f0e;stroke:#ff7f0e;" x="84.852525" xlink:href="#m6e0337e5c0" y="123.832956"/>
     <use style="fill:#ff7f0e;stroke:#ff7f0e;" x="102.538331" xlink:href="#m6e0337e5c0" y="89.355279"/>
     <use style="fill:#ff7f0e;stroke:#ff7f0e;" x="120.224137" xlink:href="#m6e0337e5c0" y="59.492843"/>
     <use style="fill:#ff7f0e;stroke:#ff7f0e;" x="137.909942" xlink:href="#m6e0337e5c0" y="37.16879"/>
     <use style="fill:#ff7f0e;stroke:#ff7f0e;" x="155.595748" xlink:href="#m6e0337e5c0" y="24.568352"/>
     <use style="fill:#ff7f0e;stroke:#ff7f0e;" x="173.281554" xlink:href="#m6e0337e5c0" y="22.924945"/>
     <use style="fill:#ff7f0e;stroke:#ff7f0e;" x="190.96736" xlink:href="#m6e0337e5c0" y="32.39943"/>
     <use style="fill:#ff7f0e;stroke:#ff7f0e;" x="208.653166" xlink:href="#m6e0337e5c0" y="52.064374"/>
     <use style="fill:#ff7f0e;stroke:#ff7f0e;" x="226.338972" xlink:href="#m6e0337e5c0" y="79.994829"/>
     <use style="fill:#ff7f0e;stroke:#ff7f0e;" x="244.024778" xlink:href="#m6e0337e5c0" y="113.456761"/>
     <use style="fill:#ff7f0e;stroke:#ff7f0e;" x="261.710584" xlink:href="#m6e0337e5c0" y="149.174679"/>
     <use style="fill:#ff7f0e;stroke:#ff7f0e;" x="279.39639" xlink:href="#m6e0337e5c0" y="183.652261"/>
     <use style="fill:#ff7f0e;stroke:#ff7f0e;" x="297.082196" xlink:href="#m6e0337e5c0" y="213.514599"/>
     <use style="fill:#ff7f0e;stroke:#ff7f0e;" x="314.768002" xlink:href="#m6e0337e5c0" y="235.838559"/>
     <use style="fill:#ff7f0e;stroke:#ff7f0e;" x="332.453807" xlink:href="#m6e0337e5c0" y="248.43892"/>
     <use style="fill:#ff7f0e;stroke:#ff7f0e;" x="350.139613" xlink:href="#m6e0337e5c0" y="250.082273"/>
     <use style="fill:#ff7f0e;stroke:#ff7f0e;" x="367.825419" xlink:href="#m6e0337e5c0" y="240.607762"/>
     <use style="fill:#ff7f0e;stroke:#ff7f0e;" x="385.511225" xlink:href="#m6e0337e5c0" y="220.942823"/>
     <use style="fill:#ff7f0e;stroke:#ff7f0e;" x="403.197031" xlink:href="#m6e0337e5c0" y="193.012403"/>
     <use style="fill:#ff7f0e;stroke:#ff7f0e;" x="420.882837" xlink:href="#m6e0337e5c0" y="159.550533"/>
     <use style="fill:#ff7f0e;stroke:#ff7f0e;" x="432.314194" xlink:href="#m6e0337e5c0" y="136.503448"/>
    </g>
   </g>
   <g id="patch_3">
    <path d="M 60.91227 261.805794 
L 60.91227 10.811376 
" style="fill:none;stroke:#000000;stroke-linecap:square;stroke-linejoin:miter;stroke-width:0.8;"/>
   </g>
   <g id="patch_4">
    <path d="M 450 261.805794 
L 450 10.811376 
" style="fill:none;stroke:#000000;stroke-linecap:square;stroke-linejoin:miter;stroke-width:0.8;"/>
   </g>
   <g id="patch_5">
    <path d="M 60.91227 261.805794 
L 450 261.805794 
" style="fill:none;stroke:#000000;stroke-linecap:square;stroke-linejoin:miter;stroke-width:0.8;"/>
   </g>
   <g id="patch_6">
    <path d="M 60.91227 10.811376 
L 450 10.811376 
" style="fill:none;stroke:#000000;stroke-linecap:square;stroke-linejoin:miter;stroke-width:0.8;"/>
   </g>
   <g id="legend_1">
    <g id="patch_7">
     <path d="M 165.3962 143.428729 
L 345.51607 143.428729 
Q 352.51607 143.428729 352.51607 136.428729 
L 352.51607 35.311376 
Q 352.51607 28.311376 345.51607 28.311376 
L 165.3962 28.311376 
Q 158.3962 28.311376 158.3962 35.311376 
L 158.3962 136.428729 
Q 158.3962 143.428729 165.3962 143.428729 
z
" style="fill:#ffffff;opacity:0.8;stroke:#cccccc;stroke-linejoin:miter;"/>
    </g>
    <g id="line2d_17">
     <path d="M 172.3962 56.181915 
L 242.3962 56.181915 
" style="fill:none;stroke:#1f77b4;stroke-linecap:square;stroke-width:2;"/>
    </g>
    <g id="line2d_18">
     <g>
      <use style="fill:#1f77b4;stroke:#1f77b4;" x="207.3962" xlink:href="#m3d5c025258" y="56.181915"/>
     </g>
    </g>
    <g id="text_8">
     <!-- $x_1(t)$ -->
     <g transform="translate(270.3962 68.431915)scale(0.35 -0.35)">
      <defs>
       <path d="M 3034 2624 
C 2829 2585 2752 2431 2752 2310 
C 2752 2156 2874 2105 2963 2105 
C 3155 2105 3290 2271 3290 2444 
C 3290 2694 2982 2816 2714 2816 
C 2323 2816 2106 2451 2048 2329 
C 1901 2790 1504 2816 1389 2816 
C 736 2816 390 1993 390 1849 
C 390 1823 416 1790 461 1790 
C 512 1790 525 1829 538 1855 
C 755 2572 1184 2687 1370 2687 
C 1658 2687 1715 2438 1715 2284 
C 1715 2143 1677 1993 1600 1678 
L 1382 778 
C 1286 390 1101 64 762 64 
C 730 64 570 64 435 126 
C 666 166 717 358 717 435 
C 717 563 621 640 499 640 
C 346 640 179 505 179 300 
C 179 57 480 -64 755 -64 
C 1062 -64 1280 153 1414 415 
C 1517 64 1837 -64 2074 -64 
C 2726 -64 3072 751 3072 896 
C 3072 929 3046 955 3008 955 
C 2950 955 2944 922 2925 870 
C 2752 300 2381 64 2093 64 
C 1869 64 1747 204 1747 467 
C 1747 607 1773 712 1875 1146 
L 2099 2039 
C 2195 2425 2413 2687 2707 2687 
C 2720 2687 2899 2687 3034 2624 
z
" id="CMMI12-78" transform="scale(0.015625)"/>
       <path d="M 1958 -1562 
C 1958 -1556 1958 -1543 1939 -1524 
C 1645 -1223 858 -403 858 1596 
C 858 3595 1632 4408 1946 4729 
C 1946 4735 1958 4748 1958 4767 
C 1958 4787 1939 4800 1914 4800 
C 1843 4800 1299 4325 986 3620 
C 666 2909 576 2218 576 1603 
C 576 1141 621 360 1005 -467 
C 1312 -1133 1837 -1600 1914 -1600 
C 1946 -1600 1958 -1588 1958 -1562 
z
" id="CMR17-28" transform="scale(0.015625)"/>
       <path d="M 1683 1596 
C 1683 2057 1638 2839 1254 3665 
C 947 4332 422 4800 346 4800 
C 326 4800 301 4793 301 4761 
C 301 4748 307 4742 314 4729 
C 621 4408 1402 3595 1402 1603 
C 1402 -396 627 -1210 314 -1530 
C 307 -1543 301 -1549 301 -1562 
C 301 -1594 326 -1600 346 -1600 
C 416 -1600 960 -1127 1274 -422 
C 1594 289 1683 981 1683 1596 
z
" id="CMR17-29" transform="scale(0.015625)"/>
      </defs>
      <use transform="scale(0.996264)" xlink:href="#CMMI12-78"/>
      <use transform="translate(55.43406 -14.943915)scale(0.697382)" xlink:href="#CMR17-31"/>
      <use transform="translate(87.915374 0)scale(0.996264)" xlink:href="#CMR17-28"/>
      <use transform="translate(123.196141 0)scale(0.996264)" xlink:href="#CMMI12-74"/>
      <use transform="translate(158.422472 0)scale(0.996264)" xlink:href="#CMR17-29"/>
     </g>
    </g>
    <g id="line2d_19">
     <path d="M 172.3962 108.490591 
L 242.3962 108.490591 
" style="fill:none;stroke:#ff7f0e;stroke-linecap:square;stroke-width:2;"/>
    </g>
    <g id="line2d_20">
     <g>
      <use style="fill:#ff7f0e;stroke:#ff7f0e;" x="207.3962" xlink:href="#m6e0337e5c0" y="108.490591"/>
     </g>
    </g>
    <g id="text_9">
     <!-- $x_2(t)$ -->
     <g transform="translate(270.3962 120.740591)scale(0.35 -0.35)">
      <use transform="scale(0.996264)" xlink:href="#CMMI12-78"/>
      <use transform="translate(55.43406 -14.943915)scale(0.697382)" xlink:href="#CMR17-32"/>
      <use transform="translate(87.915374 0)scale(0.996264)" xlink:href="#CMR17-28"/>
      <use transform="translate(123.196141 0)scale(0.996264)" xlink:href="#CMMI12-74"/>
      <use transform="translate(158.422472 0)scale(0.996264)" xlink:href="#CMR17-29"/>
     </g>
    </g>
   </g>
  </g>
 </g>
 <defs>
  <clipPath id="p45f0aab4bb">
   <rect height="250.994418" width="389.08773" x="60.91227" y="10.811376"/>
  </clipPath>
 </defs>
</svg>
