<?xml version="1.0" encoding="utf-8" standalone="no"?>
<!DOCTYPE svg PUBLIC "-//W3C//DTD SVG 1.1//EN"
  "http://www.w3.org/Graphics/SVG/1.1/DTD/svg11.dtd">
<svg height="345.6pt" version="1.1" viewBox="0 0 460.8 345.6" width="460.8pt" xmlns="http://www.w3.org/2000/svg" xmlns:xlink="http://www.w3.org/1999/xlink">
 <metadata>
  <rdf:RDF xmlns:cc="http://creativecommons.org/ns#" xmlns:dc="http://purl.org/dc/elements/1.1/" xmlns:rdf="http://www.w3.org/1999/02/22-rdf-syntax-ns#">
   <cc:Work>
    <dc:type rdf:resource="http://purl.org/dc/dcmitype/StillImage"/>
    <dc:date>2021-04-13T08:29:02.154065</dc:date>
    <dc:format>image/svg+xml</dc:format>
    <dc:creator>
     <cc:Agent>
      <dc:title>Matplotlib v3.4.1, https://matplotlib.org/</dc:title>
     </cc:Agent>
    </dc:creator>
   </cc:Work>
  </rdf:RDF>
 </metadata>
 <defs>
  <style type="text/css">*{stroke-linecap:butt;stroke-linejoin:round;}</style>
 </defs>
 <g id="figure_1">
  <g id="patch_1">
   <path d="M 0 345.6 
L 460.8 345.6 
L 460.8 0 
L 0 0 
z
" style="fill:#ffffff;"/>
  </g>
  <g id="axes_1">
   <g id="patch_2">
    <path d="M 60.91227 261.805794 
L 450 261.805794 
L 450 10.809393 
L 60.91227 10.809393 
z
" style="fill:#ffffff;"/>
   </g>
   <g id="matplotlib.axis_1">
    <g id="xtick_1">
     <g id="line2d_1">
      <path clip-path="url(#p2040c4f925)" d="M 78.598076 261.805794 
L 78.598076 10.809393 
" style="fill:none;stroke:#b0b0b0;stroke-linecap:square;stroke-width:0.8;"/>
     </g>
     <g id="line2d_2">
      <defs>
       <path d="M 0 0 
L 0 3.5 
" id="m2fafa5afdb" style="stroke:#000000;stroke-width:0.8;"/>
      </defs>
      <g>
       <use style="stroke:#000000;stroke-width:0.8;" x="78.598076" xlink:href="#m2fafa5afdb" y="261.805794"/>
      </g>
     </g>
     <g id="text_1">
      <!-- $\mathdefault{0.0}$ -->
      <g transform="translate(57.864403 293.020546)scale(0.35 -0.35)">
       <defs>
        <path d="M 2688 2038 
C 2688 2430 2682 3099 2413 3613 
C 2176 4063 1798 4224 1466 4224 
C 1158 4224 768 4082 525 3620 
C 269 3137 243 2539 243 2038 
C 243 1671 250 1112 448 623 
C 723 -39 1216 -128 1466 -128 
C 1760 -128 2208 -7 2470 604 
C 2662 1048 2688 1568 2688 2038 
z
M 1466 -26 
C 1056 -26 813 328 723 816 
C 653 1196 653 1749 653 2109 
C 653 2604 653 3015 736 3407 
C 858 3954 1216 4121 1466 4121 
C 1728 4121 2067 3947 2189 3420 
C 2272 3054 2278 2623 2278 2109 
C 2278 1691 2278 1176 2202 797 
C 2067 96 1690 -26 1466 -26 
z
" id="CMR17-30" transform="scale(0.015625)"/>
        <path d="M 1178 307 
C 1178 492 1024 620 870 620 
C 685 620 557 467 557 313 
C 557 128 710 0 864 0 
C 1050 0 1178 153 1178 307 
z
" id="CMMI12-3a" transform="scale(0.015625)"/>
       </defs>
       <use transform="scale(0.996264)" xlink:href="#CMR17-30"/>
       <use transform="translate(45.690477 0)scale(0.996264)" xlink:href="#CMMI12-3a"/>
       <use transform="translate(72.787654 0)scale(0.996264)" xlink:href="#CMR17-30"/>
      </g>
     </g>
    </g>
    <g id="xtick_2">
     <g id="line2d_3">
      <path clip-path="url(#p2040c4f925)" d="M 219.337248 261.805794 
L 219.337248 10.809393 
" style="fill:none;stroke:#b0b0b0;stroke-linecap:square;stroke-width:0.8;"/>
     </g>
     <g id="line2d_4">
      <g>
       <use style="stroke:#000000;stroke-width:0.8;" x="219.337248" xlink:href="#m2fafa5afdb" y="261.805794"/>
      </g>
     </g>
     <g id="text_2">
      <!-- $\mathdefault{2.5}$ -->
      <g transform="translate(198.603575 293.020546)scale(0.35 -0.35)">
       <defs>
        <path d="M 2669 990 
L 2554 990 
C 2490 537 2438 460 2413 422 
C 2381 371 1920 371 1830 371 
L 602 371 
C 832 620 1280 1073 1824 1596 
C 2214 1966 2669 2400 2669 3033 
C 2669 3788 2067 4224 1395 4224 
C 691 4224 262 3603 262 3027 
C 262 2777 448 2745 525 2745 
C 589 2745 781 2783 781 3007 
C 781 3206 614 3264 525 3264 
C 486 3264 448 3257 422 3244 
C 544 3788 915 4057 1306 4057 
C 1862 4057 2227 3616 2227 3033 
C 2227 2477 1901 1998 1536 1583 
L 262 147 
L 262 0 
L 2515 0 
L 2669 990 
z
" id="CMR17-32" transform="scale(0.015625)"/>
        <path d="M 730 3750 
C 794 3724 1056 3641 1325 3641 
C 1920 3641 2246 3961 2432 4140 
C 2432 4191 2432 4224 2394 4224 
C 2387 4224 2374 4224 2323 4198 
C 2099 4102 1837 4032 1517 4032 
C 1325 4032 1037 4055 723 4191 
C 653 4224 640 4224 634 4224 
C 602 4224 595 4217 595 4090 
L 595 2231 
C 595 2113 595 2080 659 2080 
C 691 2080 704 2093 736 2139 
C 941 2435 1222 2560 1542 2560 
C 1766 2560 2246 2415 2246 1293 
C 2246 1087 2246 716 2054 422 
C 1894 159 1645 25 1370 25 
C 947 25 518 319 403 812 
C 429 806 480 793 506 793 
C 589 793 749 838 749 1036 
C 749 1209 627 1280 506 1280 
C 358 1280 262 1190 262 1011 
C 262 454 704 -128 1382 -128 
C 2042 -128 2669 441 2669 1267 
C 2669 2054 2170 2662 1549 2662 
C 1222 2662 947 2540 730 2304 
L 730 3750 
z
" id="CMR17-35" transform="scale(0.015625)"/>
       </defs>
       <use transform="scale(0.996264)" xlink:href="#CMR17-32"/>
       <use transform="translate(45.690477 0)scale(0.996264)" xlink:href="#CMMI12-3a"/>
       <use transform="translate(72.787654 0)scale(0.996264)" xlink:href="#CMR17-35"/>
      </g>
     </g>
    </g>
    <g id="xtick_3">
     <g id="line2d_5">
      <path clip-path="url(#p2040c4f925)" d="M 360.076419 261.805794 
L 360.076419 10.809393 
" style="fill:none;stroke:#b0b0b0;stroke-linecap:square;stroke-width:0.8;"/>
     </g>
     <g id="line2d_6">
      <g>
       <use style="stroke:#000000;stroke-width:0.8;" x="360.076419" xlink:href="#m2fafa5afdb" y="261.805794"/>
      </g>
     </g>
     <g id="text_3">
      <!-- $\mathdefault{5.0}$ -->
      <g transform="translate(339.342746 293.020546)scale(0.35 -0.35)">
       <use transform="scale(0.996264)" xlink:href="#CMR17-35"/>
       <use transform="translate(45.690477 0)scale(0.996264)" xlink:href="#CMMI12-3a"/>
       <use transform="translate(72.787654 0)scale(0.996264)" xlink:href="#CMR17-30"/>
      </g>
     </g>
    </g>
    <g id="text_4">
     <!-- $t$ -->
     <g transform="translate(249.291531 328.017649)scale(0.35 -0.35)">
      <defs>
       <path d="M 1286 2566 
L 1875 2566 
C 1997 2566 2061 2566 2061 2681 
C 2061 2752 2022 2752 1894 2752 
L 1331 2752 
L 1568 3664 
C 1594 3752 1594 3764 1594 3808 
C 1594 3910 1510 3968 1427 3968 
C 1376 3968 1229 3948 1178 3746 
L 928 2752 
L 326 2752 
C 198 2752 141 2752 141 2630 
C 141 2566 186 2566 307 2566 
L 877 2566 
L 454 881 
C 403 657 384 593 384 510 
C 384 210 595 -64 954 -64 
C 1600 -64 1946 868 1946 913 
C 1946 951 1920 970 1882 970 
C 1869 970 1843 970 1830 944 
C 1824 938 1818 932 1773 830 
C 1638 510 1344 64 973 64 
C 781 64 768 223 768 364 
C 768 370 768 491 787 568 
L 1286 2566 
z
" id="CMMI12-74" transform="scale(0.015625)"/>
      </defs>
      <use transform="scale(0.996264)" xlink:href="#CMMI12-74"/>
     </g>
    </g>
   </g>
   <g id="matplotlib.axis_2">
    <g id="ytick_1">
     <g id="line2d_7">
      <path clip-path="url(#p2040c4f925)" d="M 60.91227 250.353995 
L 450 250.353995 
" style="fill:none;stroke:#b0b0b0;stroke-linecap:square;stroke-width:0.8;"/>
     </g>
     <g id="line2d_8">
      <defs>
       <path d="M 0 0 
L -3.5 0 
" id="m1a5b976c55" style="stroke:#000000;stroke-width:0.8;"/>
      </defs>
      <g>
       <use style="stroke:#000000;stroke-width:0.8;" x="60.91227" xlink:href="#m1a5b976c55" y="250.353995"/>
      </g>
     </g>
     <g id="text_5">
      <!-- $\mathdefault{−1}$ -->
      <g transform="translate(10.8 262.461371)scale(0.35 -0.35)">
       <defs>
        <path d="M 4218 1472 
C 4326 1472 4442 1472 4442 1600 
C 4442 1728 4326 1728 4218 1728 
L 755 1728 
C 646 1728 531 1728 531 1600 
C 531 1472 646 1472 755 1472 
L 4218 1472 
z
" id="CMSY10-0" transform="scale(0.015625)"/>
        <path d="M 1702 4083 
C 1702 4217 1696 4224 1606 4224 
C 1357 3927 979 3833 621 3820 
C 602 3820 570 3820 563 3808 
C 557 3795 557 3782 557 3648 
C 755 3648 1088 3686 1344 3839 
L 1344 467 
C 1344 243 1331 166 781 166 
L 589 166 
L 589 0 
C 896 6 1216 12 1523 12 
C 1830 12 2150 6 2458 0 
L 2458 166 
L 2266 166 
C 1715 166 1702 236 1702 467 
L 1702 4083 
z
" id="CMR17-31" transform="scale(0.015625)"/>
       </defs>
       <use transform="scale(0.996264)" xlink:href="#CMSY10-0"/>
       <use transform="translate(77.487468 0)scale(0.996264)" xlink:href="#CMR17-31"/>
      </g>
     </g>
    </g>
    <g id="ytick_2">
     <g id="line2d_9">
      <path clip-path="url(#p2040c4f925)" d="M 60.91227 136.287093 
L 450 136.287093 
" style="fill:none;stroke:#b0b0b0;stroke-linecap:square;stroke-width:0.8;"/>
     </g>
     <g id="line2d_10">
      <g>
       <use style="stroke:#000000;stroke-width:0.8;" x="60.91227" xlink:href="#m1a5b976c55" y="136.287093"/>
      </g>
     </g>
     <g id="text_6">
      <!-- $\mathdefault{0}$ -->
      <g transform="translate(37.920603 148.394469)scale(0.35 -0.35)">
       <use transform="scale(0.996264)" xlink:href="#CMR17-30"/>
      </g>
     </g>
    </g>
    <g id="ytick_3">
     <g id="line2d_11">
      <path clip-path="url(#p2040c4f925)" d="M 60.91227 22.220191 
L 450 22.220191 
" style="fill:none;stroke:#b0b0b0;stroke-linecap:square;stroke-width:0.8;"/>
     </g>
     <g id="line2d_12">
      <g>
       <use style="stroke:#000000;stroke-width:0.8;" x="60.91227" xlink:href="#m1a5b976c55" y="22.220191"/>
      </g>
     </g>
     <g id="text_7">
      <!-- $\mathdefault{1}$ -->
      <g transform="translate(37.920603 34.327567)scale(0.35 -0.35)">
       <use transform="scale(0.996264)" xlink:href="#CMR17-31"/>
      </g>
     </g>
    </g>
   </g>
   <g id="line2d_13">
    <path clip-path="url(#p2040c4f925)" d="M 78.598076 22.220191 
L 81.076567 22.330722 
L 83.555059 22.662101 
L 86.03355 23.213685 
L 88.512041 23.984407 
L 90.990533 24.972771 
L 93.469024 26.176863 
L 96.301585 27.814112 
L 99.134147 29.725922 
L 101.966708 31.907454 
L 104.79927 34.353186 
L 107.985902 37.412702 
L 111.172533 40.788943 
L 114.359165 44.471094 
L 117.899867 48.906776 
L 121.440569 53.688 
L 125.335341 59.32384 
L 129.584183 65.89102 
L 134.187096 73.456534 
L 139.144078 82.071981 
L 144.455131 91.767138 
L 150.474324 103.228858 
L 157.909798 117.894156 
L 171.010395 144.351345 
L 181.278431 164.855846 
L 188.005764 177.817268 
L 193.670887 188.280023 
L 198.62787 197.006882 
L 203.230782 204.690516 
L 207.479624 211.378566 
L 211.728467 217.639076 
L 215.623239 222.971807 
L 219.163941 227.460473 
L 222.704643 231.588599 
L 225.891274 234.982128 
L 229.077906 238.059507 
L 232.264538 240.810878 
L 235.097099 242.975707 
L 237.929661 244.870492 
L 240.762222 246.490436 
L 243.594784 247.831439 
L 246.073275 248.773313 
L 248.551766 249.497188 
L 251.030258 250.001661 
L 253.508749 250.285755 
L 255.98724 250.348919 
L 258.465732 250.19103 
L 260.944223 249.812396 
L 263.422714 249.213749 
L 265.901206 248.396249 
L 268.379697 247.361482 
L 271.212258 245.91544 
L 274.04482 244.191913 
L 276.877381 242.195262 
L 279.709943 239.930543 
L 282.542504 237.403488 
L 285.729136 234.254965 
L 288.915768 230.792622 
L 292.45647 226.591035 
L 295.997172 222.032347 
L 299.891944 216.626892 
L 303.786716 210.837048 
L 308.035558 204.115057 
L 312.63847 196.398357 
L 317.595453 187.640439 
L 323.260576 177.14827 
L 329.633839 164.855846 
L 337.777454 148.638339 
L 360.083876 103.916139 
L 366.457139 91.767138 
L 372.122262 81.441851 
L 377.079245 72.859005 
L 381.682157 65.327915 
L 385.930999 58.795856 
L 389.825771 53.194856 
L 393.720544 47.991415 
L 397.261245 43.62699 
L 400.801947 39.628985 
L 403.988579 36.357167 
L 407.175211 33.405454 
L 410.007772 31.058107 
L 412.840334 28.977111 
L 415.672895 27.167731 
L 418.505457 25.634548 
L 421.338018 24.381443 
L 423.81651 23.517239 
L 426.295001 22.871583 
L 428.773492 22.445726 
L 431.251984 22.240495 
L 432.314194 22.220191 
L 432.314194 22.220191 
" style="fill:none;stroke:#000000;stroke-dasharray:5.55,2.4;stroke-dashoffset:0;stroke-width:1.5;"/>
   </g>
   <g id="line2d_14">
    <path clip-path="url(#p2040c4f925)" d="M 78.598076 136.287093 
L 91.698673 109.981455 
L 98.780077 96.264433 
L 104.79927 85.093961 
L 110.110323 75.71921 
L 114.713235 68.027281 
L 118.962077 61.330722 
L 123.21092 55.060932 
L 127.105692 49.719064 
L 130.646394 45.221606 
L 134.187096 41.084261 
L 137.373727 37.682101 
L 140.560359 34.595802 
L 143.746991 31.835252 
L 146.579552 29.662069 
L 149.412114 27.758769 
L 152.244675 26.13017 
L 155.077237 24.780395 
L 157.555728 23.830767 
L 160.034219 23.09908 
L 162.512711 22.586751 
L 164.991202 22.294775 
L 167.469693 22.223716 
L 169.948185 22.373712 
L 172.426676 22.744473 
L 174.905167 23.33528 
L 177.383658 24.144988 
L 179.86215 25.172028 
L 182.340641 26.414409 
L 185.173203 28.094849 
L 188.005764 30.049139 
L 190.838326 32.272334 
L 193.670887 34.758804 
L 196.857519 37.86292 
L 200.044151 41.282317 
L 203.584852 45.438068 
L 207.125554 49.953077 
L 211.020326 55.313178 
L 214.915098 61.060704 
L 219.163941 67.740227 
L 223.766853 75.415546 
L 228.723836 84.134587 
L 234.034889 93.922984 
L 240.408152 106.158503 
L 248.197696 121.620679 
L 273.33668 171.910762 
L 279.355873 183.271392 
L 284.666926 192.853932 
L 289.623908 201.345377 
L 294.226821 208.780269 
L 298.475663 215.214416 
L 302.370435 220.718467 
L 305.911137 225.372256 
L 309.451839 229.673763 
L 312.992541 233.605977 
L 316.179172 236.816342 
L 319.365804 239.704682 
L 322.198366 241.994249 
L 325.030927 244.016256 
L 327.863489 245.765585 
L 330.69605 247.237807 
L 333.174541 248.295742 
L 335.653033 249.136603 
L 338.131524 249.758762 
L 340.610015 250.161012 
L 343.088507 250.342574 
L 345.566998 250.303095 
L 348.045489 250.042654 
L 350.523981 249.561753 
L 353.002472 248.861326 
L 355.480963 247.94273 
L 357.959455 246.807744 
L 360.792016 245.248492 
L 363.624578 243.413443 
L 366.457139 241.307242 
L 369.289701 238.935219 
L 372.476332 235.956456 
L 375.662964 232.658421 
L 378.849596 229.05168 
L 382.390298 224.696211 
L 385.930999 219.991134 
L 389.825771 214.433996 
L 394.074614 207.946202 
L 398.323456 201.050411 
L 402.926368 193.165147 
L 408.237421 183.598026 
L 414.256614 172.251353 
L 421.338018 158.3865 
L 431.606054 137.721897 
L 432.314194 136.287093 
L 432.314194 136.287093 
" style="fill:none;stroke:#000000;stroke-dasharray:5.55,2.4;stroke-dashoffset:0;stroke-width:1.5;"/>
   </g>
   <g id="line2d_15">
    <path clip-path="url(#p2040c4f925)" d="M 78.598076 22.220191 
L 81.076567 22.330722 
L 83.555059 22.662101 
L 86.03355 23.213645 
L 88.512041 23.984064 
L 90.990533 24.971918 
L 93.469024 26.175397 
L 96.301585 27.811956 
L 99.134147 29.723226 
L 101.966708 31.904495 
L 104.79927 34.350332 
L 107.985902 37.410459 
L 111.172533 40.787798 
L 114.359165 44.471365 
L 117.899867 48.908586 
L 121.440569 53.690569 
L 125.335341 59.326513 
L 129.584183 65.893247 
L 134.187096 73.457148 
L 139.144078 82.069962 
L 144.455131 91.762655 
L 150.474324 103.224388 
L 157.909798 117.896747 
L 170.656325 143.661562 
L 180.92436 164.195903 
L 187.651694 177.194773 
L 193.316817 187.693066 
L 198.62787 197.060757 
L 203.230782 204.742283 
L 207.479624 211.42657 
L 211.374397 217.178368 
L 215.269169 222.543251 
L 218.809871 227.063376 
L 222.350572 231.225054 
L 225.537204 234.650307 
L 228.723836 237.760363 
L 231.910467 240.546298 
L 234.743029 242.745903 
L 237.575591 244.678108 
L 240.408152 246.33698 
L 243.240714 247.71745 
L 245.719205 248.693652 
L 248.197696 249.451184 
L 250.676187 249.988267 
L 253.154679 250.303627 
L 255.63317 250.396496 
L 258.111661 250.266606 
L 260.590153 249.914197 
L 263.068644 249.340009 
L 265.547135 248.545288 
L 268.025627 247.531784 
L 270.504118 246.30175 
L 273.33668 244.634417 
L 276.169241 242.69281 
L 279.001803 240.482708 
L 281.834364 238.010754 
L 285.020996 234.926166 
L 288.207627 231.528295 
L 291.748329 227.396573 
L 295.289031 222.905472 
L 299.183803 217.570976 
L 303.078575 211.847535 
L 307.327418 205.191476 
L 311.93033 197.536993 
L 316.887313 188.833872 
L 322.198366 179.054617 
L 328.571629 166.8214 
L 336.715243 150.649381 
L 361.500156 101.035371 
L 367.87342 89.006494 
L 373.184473 79.438162 
L 378.141455 70.960716 
L 382.744368 63.539207 
L 386.99321 57.118464 
L 390.887982 51.629043 
L 394.428684 46.991459 
L 397.969386 42.705913 
L 401.510088 38.789885 
L 404.696719 35.594926 
L 407.883351 32.723132 
L 410.715913 30.449344 
L 413.548474 28.444116 
L 416.381036 26.712472 
L 419.213597 25.258671 
L 421.692088 24.217282 
L 424.17058 23.393172 
L 426.649071 22.787758 
L 429.127562 22.402012 
L 431.606054 22.236457 
L 432.314194 22.229621 
L 432.314194 22.229621 
" style="fill:none;stroke:#1f77b4;stroke-linecap:square;stroke-width:2;"/>
   </g>
   <g id="line2d_16">
    <path clip-path="url(#p2040c4f925)" d="M 78.598076 136.287093 
L 91.698673 109.979394 
L 98.780077 96.260465 
L 104.79927 85.090354 
L 110.110323 75.716819 
L 114.713235 68.025862 
L 118.962077 61.329781 
L 123.21092 55.059428 
L 127.105692 49.712231 
L 130.646394 45.207556 
L 134.187096 41.062666 
L 137.373727 37.654557 
L 140.560359 34.563814 
L 143.746991 31.800739 
L 146.579552 29.627084 
L 149.412114 27.724989 
L 152.244675 26.099165 
L 155.077237 24.753536 
L 157.555728 23.808437 
L 160.034219 23.081869 
L 162.512711 22.574967 
L 164.991202 22.288404 
L 167.469693 22.222388 
L 169.948185 22.376661 
L 172.426676 22.750504 
L 174.905167 23.342725 
L 177.383658 24.151915 
L 179.86215 25.176866 
L 182.694711 26.610413 
L 185.527273 28.320712 
L 188.359834 30.30403 
L 191.192396 32.55591 
L 194.024957 35.071172 
L 197.211589 38.208282 
L 200.398221 41.661733 
L 203.938923 45.856905 
L 207.479624 50.413113 
L 211.374397 55.820302 
L 215.269169 61.615887 
L 219.518011 68.347006 
L 224.120923 76.073448 
L 229.077906 84.835041 
L 234.743029 95.324276 
L 241.116292 107.615789 
L 249.259907 123.830688 
L 271.920399 169.251959 
L 278.293662 181.387546 
L 283.958785 191.691065 
L 288.915768 200.247543 
L 293.51868 207.755278 
L 297.767523 214.26336 
L 301.662295 219.838621 
L 305.557067 225.011946 
L 309.097769 229.345035 
L 312.63847 233.308129 
L 315.825102 236.54582 
L 319.011734 239.46129 
L 321.844295 241.775061 
L 324.676857 243.821616 
L 327.509418 245.5961 
L 330.34198 247.094352 
L 333.174541 248.312898 
L 335.653033 249.147477 
L 338.131524 249.764797 
L 340.610015 250.164584 
L 343.088507 250.345465 
L 345.566998 250.306474 
L 348.045489 250.047127 
L 350.523981 249.56742 
L 353.002472 248.86783 
L 355.480963 247.949317 
L 357.959455 246.81332 
L 360.792016 245.251214 
L 363.624578 243.411205 
L 366.457139 241.297748 
L 369.289701 238.916119 
L 372.476332 235.923859 
L 375.662964 232.609851 
L 378.849596 228.98533 
L 382.390298 224.60921 
L 385.930999 219.884378 
L 389.825771 214.309566 
L 394.074614 207.811329 
L 398.323456 200.907879 
L 402.926368 193.015445 
L 408.237421 183.441984 
L 414.256614 172.090051 
L 421.338018 158.220069 
L 431.606054 137.550541 
L 432.314194 136.115805 
L 432.314194 136.115805 
" style="fill:none;stroke:#ff7f0e;stroke-linecap:square;stroke-width:2;"/>
   </g>
   <g id="line2d_17">
    <defs>
     <path d="M 0 2.5 
C 0.663008 2.5 1.29895 2.236584 1.767767 1.767767 
C 2.236584 1.29895 2.5 0.663008 2.5 0 
C 2.5 -0.663008 2.236584 -1.29895 1.767767 -1.767767 
C 1.29895 -2.236584 0.663008 -2.5 0 -2.5 
C -0.663008 -2.5 -1.29895 -2.236584 -1.767767 -1.767767 
C -2.236584 -1.29895 -2.5 -0.663008 -2.5 0 
C -2.5 0.663008 -2.236584 1.29895 -1.767767 1.767767 
C -1.29895 2.236584 -0.663008 2.5 0 2.5 
z
" id="ma2b060eaf2" style="stroke:#1f77b4;"/>
    </defs>
    <g clip-path="url(#p2040c4f925)">
     <use style="fill:#1f77b4;stroke:#1f77b4;" x="78.598076" xlink:href="#ma2b060eaf2" y="22.220191"/>
     <use style="fill:#1f77b4;stroke:#1f77b4;" x="78.654315" xlink:href="#ma2b060eaf2" y="22.220248"/>
     <use style="fill:#1f77b4;stroke:#1f77b4;" x="79.21671" xlink:href="#ma2b060eaf2" y="22.227078"/>
     <use style="fill:#1f77b4;stroke:#1f77b4;" x="84.840653" xlink:href="#ma2b060eaf2" y="22.920778"/>
     <use style="fill:#1f77b4;stroke:#1f77b4;" x="121.39126" xlink:href="#ma2b060eaf2" y="53.621695"/>
     <use style="fill:#1f77b4;stroke:#1f77b4;" x="173.932856" xlink:href="#ma2b060eaf2" y="150.272567"/>
     <use style="fill:#1f77b4;stroke:#1f77b4;" x="229.576987" xlink:href="#ma2b060eaf2" y="238.538145"/>
     <use style="fill:#1f77b4;stroke:#1f77b4;" x="284.780885" xlink:href="#ma2b060eaf2" y="235.169555"/>
     <use style="fill:#1f77b4;stroke:#1f77b4;" x="336.312452" xlink:href="#ma2b060eaf2" y="151.458627"/>
     <use style="fill:#1f77b4;stroke:#1f77b4;" x="392.564785" xlink:href="#ma2b060eaf2" y="49.389842"/>
     <use style="fill:#1f77b4;stroke:#1f77b4;" x="432.314194" xlink:href="#ma2b060eaf2" y="22.229621"/>
    </g>
   </g>
   <g id="line2d_18">
    <defs>
     <path d="M 0 2.5 
C 0.663008 2.5 1.29895 2.236584 1.767767 1.767767 
C 2.236584 1.29895 2.5 0.663008 2.5 0 
C 2.5 -0.663008 2.236584 -1.29895 1.767767 -1.767767 
C 1.29895 -2.236584 0.663008 -2.5 0 -2.5 
C -0.663008 -2.5 -1.29895 -2.236584 -1.767767 -1.767767 
C -2.236584 -1.29895 -2.5 -0.663008 -2.5 0 
C -2.5 0.663008 -2.236584 1.29895 -1.767767 1.767767 
C -1.29895 2.236584 -0.663008 2.5 0 2.5 
z
" id="m46a14edb81" style="stroke:#ff7f0e;"/>
    </defs>
    <g clip-path="url(#p2040c4f925)">
     <use style="fill:#ff7f0e;stroke:#ff7f0e;" x="78.598076" xlink:href="#m46a14edb81" y="136.287093"/>
     <use style="fill:#ff7f0e;stroke:#ff7f0e;" x="78.654315" xlink:href="#m46a14edb81" y="136.17314"/>
     <use style="fill:#ff7f0e;stroke:#ff7f0e;" x="79.21671" xlink:href="#m46a14edb81" y="135.033636"/>
     <use style="fill:#ff7f0e;stroke:#ff7f0e;" x="84.840653" xlink:href="#m46a14edb81" y="123.664222"/>
     <use style="fill:#ff7f0e;stroke:#ff7f0e;" x="121.39126" xlink:href="#m46a14edb81" y="57.690695"/>
     <use style="fill:#ff7f0e;stroke:#ff7f0e;" x="173.932856" xlink:href="#m46a14edb81" y="23.084464"/>
     <use style="fill:#ff7f0e;stroke:#ff7f0e;" x="229.576987" xlink:href="#m46a14edb81" y="85.739628"/>
     <use style="fill:#ff7f0e;stroke:#ff7f0e;" x="284.780885" xlink:href="#m46a14edb81" y="193.141238"/>
     <use style="fill:#ff7f0e;stroke:#ff7f0e;" x="336.312452" xlink:href="#m46a14edb81" y="249.332903"/>
     <use style="fill:#ff7f0e;stroke:#ff7f0e;" x="392.564785" xlink:href="#m46a14edb81" y="210.168245"/>
     <use style="fill:#ff7f0e;stroke:#ff7f0e;" x="432.314194" xlink:href="#m46a14edb81" y="136.115805"/>
    </g>
   </g>
   <g id="patch_3">
    <path d="M 60.91227 261.805794 
L 60.91227 10.809393 
" style="fill:none;stroke:#000000;stroke-linecap:square;stroke-linejoin:miter;stroke-width:0.8;"/>
   </g>
   <g id="patch_4">
    <path d="M 450 261.805794 
L 450 10.809393 
" style="fill:none;stroke:#000000;stroke-linecap:square;stroke-linejoin:miter;stroke-width:0.8;"/>
   </g>
   <g id="patch_5">
    <path d="M 60.91227 261.805794 
L 450 261.805794 
" style="fill:none;stroke:#000000;stroke-linecap:square;stroke-linejoin:miter;stroke-width:0.8;"/>
   </g>
   <g id="patch_6">
    <path d="M 60.91227 10.809393 
L 450 10.809393 
" style="fill:none;stroke:#000000;stroke-linecap:square;stroke-linejoin:miter;stroke-width:0.8;"/>
   </g>
   <g id="legend_1">
    <g id="patch_7">
     <path d="M 245.380129 143.426746 
L 425.5 143.426746 
Q 432.5 143.426746 432.5 136.426746 
L 432.5 35.309393 
Q 432.5 28.309393 425.5 28.309393 
L 245.380129 28.309393 
Q 238.380129 28.309393 238.380129 35.309393 
L 238.380129 136.426746 
Q 238.380129 143.426746 245.380129 143.426746 
z
" style="fill:#ffffff;opacity:0.8;stroke:#cccccc;stroke-linejoin:miter;"/>
    </g>
    <g id="line2d_19">
     <path d="M 252.380129 56.179932 
L 322.380129 56.179932 
" style="fill:none;stroke:#1f77b4;stroke-linecap:square;stroke-width:2;"/>
    </g>
    <g id="line2d_20"/>
    <g id="text_8">
     <!-- $x_1(t)$ -->
     <g transform="translate(350.380129 68.429932)scale(0.35 -0.35)">
      <defs>
       <path d="M 3034 2624 
C 2829 2585 2752 2431 2752 2310 
C 2752 2156 2874 2105 2963 2105 
C 3155 2105 3290 2271 3290 2444 
C 3290 2694 2982 2816 2714 2816 
C 2323 2816 2106 2451 2048 2329 
C 1901 2790 1504 2816 1389 2816 
C 736 2816 390 1993 390 1849 
C 390 1823 416 1790 461 1790 
C 512 1790 525 1829 538 1855 
C 755 2572 1184 2687 1370 2687 
C 1658 2687 1715 2438 1715 2284 
C 1715 2143 1677 1993 1600 1678 
L 1382 778 
C 1286 390 1101 64 762 64 
C 730 64 570 64 435 126 
C 666 166 717 358 717 435 
C 717 563 621 640 499 640 
C 346 640 179 505 179 300 
C 179 57 480 -64 755 -64 
C 1062 -64 1280 153 1414 415 
C 1517 64 1837 -64 2074 -64 
C 2726 -64 3072 751 3072 896 
C 3072 929 3046 955 3008 955 
C 2950 955 2944 922 2925 870 
C 2752 300 2381 64 2093 64 
C 1869 64 1747 204 1747 467 
C 1747 607 1773 712 1875 1146 
L 2099 2039 
C 2195 2425 2413 2687 2707 2687 
C 2720 2687 2899 2687 3034 2624 
z
" id="CMMI12-78" transform="scale(0.015625)"/>
       <path d="M 1958 -1562 
C 1958 -1556 1958 -1543 1939 -1524 
C 1645 -1223 858 -403 858 1596 
C 858 3595 1632 4408 1946 4729 
C 1946 4735 1958 4748 1958 4767 
C 1958 4787 1939 4800 1914 4800 
C 1843 4800 1299 4325 986 3620 
C 666 2909 576 2218 576 1603 
C 576 1141 621 360 1005 -467 
C 1312 -1133 1837 -1600 1914 -1600 
C 1946 -1600 1958 -1588 1958 -1562 
z
" id="CMR17-28" transform="scale(0.015625)"/>
       <path d="M 1683 1596 
C 1683 2057 1638 2839 1254 3665 
C 947 4332 422 4800 346 4800 
C 326 4800 301 4793 301 4761 
C 301 4748 307 4742 314 4729 
C 621 4408 1402 3595 1402 1603 
C 1402 -396 627 -1210 314 -1530 
C 307 -1543 301 -1549 301 -1562 
C 301 -1594 326 -1600 346 -1600 
C 416 -1600 960 -1127 1274 -422 
C 1594 289 1683 981 1683 1596 
z
" id="CMR17-29" transform="scale(0.015625)"/>
      </defs>
      <use transform="scale(0.996264)" xlink:href="#CMMI12-78"/>
      <use transform="translate(55.43406 -14.943915)scale(0.697382)" xlink:href="#CMR17-31"/>
      <use transform="translate(87.915374 0)scale(0.996264)" xlink:href="#CMR17-28"/>
      <use transform="translate(123.196141 0)scale(0.996264)" xlink:href="#CMMI12-74"/>
      <use transform="translate(158.422472 0)scale(0.996264)" xlink:href="#CMR17-29"/>
     </g>
    </g>
    <g id="line2d_21">
     <path d="M 252.380129 108.488608 
L 322.380129 108.488608 
" style="fill:none;stroke:#ff7f0e;stroke-linecap:square;stroke-width:2;"/>
    </g>
    <g id="line2d_22"/>
    <g id="text_9">
     <!-- $x_2(t)$ -->
     <g transform="translate(350.380129 120.738608)scale(0.35 -0.35)">
      <use transform="scale(0.996264)" xlink:href="#CMMI12-78"/>
      <use transform="translate(55.43406 -14.943915)scale(0.697382)" xlink:href="#CMR17-32"/>
      <use transform="translate(87.915374 0)scale(0.996264)" xlink:href="#CMR17-28"/>
      <use transform="translate(123.196141 0)scale(0.996264)" xlink:href="#CMMI12-74"/>
      <use transform="translate(158.422472 0)scale(0.996264)" xlink:href="#CMR17-29"/>
     </g>
    </g>
   </g>
  </g>
 </g>
 <defs>
  <clipPath id="p2040c4f925">
   <rect height="250.9964" width="389.08773" x="60.91227" y="10.809393"/>
  </clipPath>
 </defs>
</svg>
